/* XPM */
static char *aa9b0f02fe704a44e85f113215db00a9SqHjM2IY5ENJTKls[] = {
/* columns rows colors chars-per-pixel */
"64 64 256 2 ",
"   c #020501",
".  c #030C01",
"X  c #0A0B03",
"o  c #050A09",
"O  c #051203",
"+  c #0A1302",
"@  c #0B1902",
"#  c #09170A",
"$  c #141807",
"%  c #151913",
"&  c #110D0B",
"*  c #241A0B",
"=  c #182707",
"-  c #1D3608",
";  c #1D3815",
":  c #192415",
">  c #262909",
",  c #223402",
"<  c #253A0B",
"1  c #2B3D0C",
"2  c #243708",
"3  c #252717",
"4  c #243412",
"5  c #2A3C12",
"6  c #273916",
"7  c #383517",
"8  c #38330B",
"9  c #343724",
"0  c #473A18",
"q  c #4D3A12",
"w  c #4A3D23",
"e  c #553D23",
"r  c #2C420D",
"t  c #2C4405",
"y  c #31450D",
"u  c #35490C",
"i  c #2E4212",
"p  c #2A4416",
"a  c #324513",
"s  c #354A14",
"d  c #394E15",
"f  c #35481A",
"g  c #3C5214",
"h  c #3D521A",
"j  c #3F5919",
"k  c #385906",
"l  c #384A24",
"z  c #3B5324",
"x  c #2E4A21",
"c  c #1C4012",
"v  c #49421B",
"b  c #554519",
"n  c #445A1B",
"m  c #44581A",
"M  c #5B511E",
"N  c #65541B",
"B  c #4C631C",
"V  c #55661E",
"C  c #6D651A",
"Z  c #484625",
"A  c #524322",
"S  c #5A4B2B",
"D  c #584B25",
"F  c #465B21",
"G  c #5B542A",
"H  c #5A4C32",
"J  c #5B5533",
"K  c #644C27",
"L  c #63542C",
"P  c #675929",
"I  c #6B5D3B",
"U  c #675833",
"Y  c #765C38",
"T  c #6C552F",
"R  c #4D6423",
"E  c #4B6525",
"W  c #516624",
"Q  c #546B25",
"!  c #546B29",
"~  c #586B29",
"^  c #5B732C",
"/  c #587328",
"(  c #5C7432",
")  c #5F7B31",
"_  c #576C33",
"`  c #6A6829",
"'  c #627A2D",
"]  c #65792B",
"[  c #6B653A",
"{  c #766638",
"}  c #647C33",
"|  c #697D34",
" . c #657C3A",
".. c #667936",
"X. c #757031",
"o. c #745C47",
"O. c #7A6944",
"+. c #777148",
"@. c #5B6E41",
"#. c #826939",
"$. c #8B7639",
"%. c #947733",
"&. c #AE7830",
"*. c #C77F35",
"=. c #846E47",
"-. c #887746",
";. c #91794F",
":. c #A67F43",
">. c #6B8335",
",. c #6D843A",
"<. c #6A8637",
"1. c #71853C",
"2. c #758B3C",
"3. c #7A8D3D",
"4. c #758637",
"5. c #7B923D",
"6. c #77963B",
"7. c #6D8830",
"8. c #5E8231",
"9. c #6C8643",
"0. c #758C42",
"q. c #7A8D42",
"w. c #758C48",
"e. c #7D9343",
"r. c #799646",
"t. c #6F9147",
"y. c #87873D",
"u. c #998838",
"i. c #81963D",
"p. c #95802F",
"a. c #BD882D",
"s. c #AB893A",
"d. c #BD8632",
"f. c #BA8A37",
"g. c #BA9338",
"h. c #BE912A",
"j. c #D58A1A",
"k. c #C28A2E",
"l. c #C5852A",
"z. c #DA9627",
"x. c #C48B34",
"c. c #CA8C33",
"v. c #C58D3A",
"b. c #CA8A38",
"n. c #CA9236",
"m. c #C6933C",
"M. c #CB933B",
"N. c #C89839",
"B. c #D59D3C",
"V. c #D89839",
"C. c #CB9130",
"Z. c #DEA42E",
"A. c #DCA23D",
"S. c #D8A439",
"D. c #CFA43E",
"F. c #E4A73A",
"G. c #F0AF35",
"H. c #E69B3B",
"J. c #858A44",
"K. c #978647",
"L. c #829544",
"P. c #839A45",
"I. c #829649",
"U. c #859B49",
"Y. c #899D4B",
"T. c #899947",
"R. c #96984B",
"E. c #949652",
"W. c #A68947",
"Q. c #A79749",
"!. c #B69749",
"~. c #B69855",
"^. c #AB8E52",
"/. c #87A149",
"(. c #AFA250",
"). c #B49662",
"_. c #BDA665",
"`. c #CC9B43",
"'. c #C89746",
"]. c #D19B44",
"[. c #DC9C43",
"{. c #D49D4A",
"}. c #D79847",
"|. c #CE9751",
" X c #E09D45",
".X c #DBA443",
"XX c #D5A34C",
"oX c #DBA44A",
"OX c #DCAB4D",
"+X c #D9A744",
"@X c #DDB44A",
"#X c #C9A456",
"$X c #D8A955",
"%X c #DBB65D",
"&X c #CBA953",
"*X c #E4A544",
"=X c #E3AB44",
"-X c #E3AD4C",
";X c #EAAC4C",
":X c #E8AA47",
">X c #E5B24D",
",X c #EBB34C",
"<X c #E9B648",
"1X c #F4B64A",
"2X c #E5AC54",
"3X c #E5B254",
"4X c #EAB453",
"5X c #ECBA54",
"6X c #EBB55A",
"7X c #ECBB5C",
"8X c #E5B859",
"9X c #F3B554",
"0X c #F4BC54",
"qX c #F2BC5C",
"wX c #F9B959",
"eX c #F0AD49",
"rX c #D7B665",
"tX c #D0B06E",
"yX c #EBBC63",
"uX c #E9BA67",
"iX c #F2BD62",
"pX c #F6BC68",
"aX c #E4BB73",
"sX c #C59E67",
"dX c #EDC25C",
"fX c #F3C15C",
"gX c #FDC45C",
"hX c #F6C556",
"jX c #FBC04C",
"kX c #DBC176",
"lX c #EDC363",
"zX c #EDC66A",
"xX c #F4C364",
"cX c #F8C463",
"vX c #FBCA64",
"bX c #F4C56B",
"nX c #F5CA6C",
"mX c #FACC6C",
"MX c #F7C768",
"NX c #FCD26D",
"BX c #FBD367",
"VX c #ECC776",
"CX c #F5CB73",
"ZX c #FBCD73",
"AX c #FBCD79",
"SX c #F6C776",
"DX c #FDD274",
"FX c #FDD37C",
"GX c #F8D47A",
"HX c #EFD076",
"JX c #F9CE82",
"KX c #FDD583",
"LX c #FEDA84",
"PX c #FCD88A",
"IX c #EDCF8A",
"UX c #FCE18D",
/* pixels */
"b.c.x.m.M.m.v.v.k.l.a.a.k.a.a.k.l.b.g.f.c.b.v.}.b.N.N.g.x.f.f.f.!.'.'.m.v.N.N.n.N.g.N.N.M..XN.`.'.'.n.M.'.'.'.{.|.`.m.m.m.m.v.g.",
"c.c.x.c.b.b.v.m.x.c.k.c.b.c.c.c.N.C.v.b.V.M.N.B.}.}.].`.M.`.`.`.{.}. X}.N.N.N.`.B.V.].{.XX'.{.#X!.{.oXB.{.2X'.XX`.'.m.m.M.m.v.m.",
"C.C.n.n.n.M.M.M.M.n.n.M.M.n.b.n.C.C.C.M.n.c.n.g.x.v.c.c.k.x.m.M.'.v.d.x.c.l.k.c.b.m.f.s.u.R.E.J.f.!.W.g.C.k.f.'.d.d.d.a.d.d.d.f.",
"l.l.l.k.c.M.M.M.m.b.n.n.m.v.h.x.c.c.n.m.x.k.b.s.u.f.x.b.x.f.v.b.x.k.d.f.f.s.u.K.X.] X.J.q.4.3.5.Q.u.W.|.v.l.x.M.m.m.v.v.x.f.x.x.",
"l.x.k.c.b.M.b.n.d.x.x.c.n.M.V.N.}.$X#X+X.X2X2X!.6.6.y.y.y.T.y.y.f.'.'.!.K.2.,.9.>.>.0.r.q.q.J.2.r.i.g.x.*.d.c.l.v.v.m.b.v.v.d.x.",
"M.b.x.m.'.].].].oXoX.X].V.[.[.*X XOX.X-X-X$X~.1.2.2.3.3.q.3.2.1.1.y.J.q.4.2.6.6.L.2.P.P.r.5.6.6.P.q.X.%.b.a.n.b.n.b.M.M.M.M.v.x.",
"c.a.x.m.].{.{.{.]..XXX$XXX#X$X$XoXOXOX$X$X^.L. .6.i.L.r.5.q.0.e.3.4.,.1.r.U.I.r.6././.P.r.T.U.2.i.I.w.8.u.XXXX$XXX{.}.`.`.b.v.x.",
"].M.].+X$X{.XXoX.XXXOX$X~.(.E.(.L.L.$.K.y.7.7.T.5.e.r.P.T.T.T.U.r.q.q.q.r.P.P.R.Y.I.P.Y.Y.P.U.L.r.P.i.e.t.J.!.B.M.M.v.x.d.d.d.x.",
"`.{.{.}.{.OX$X3X2X$X+X2X$XE.t.5.2.,.0.0.,.q.e.5.L.L.P.P.P./.P.P.P.L.U.L.5.P./.T.Y.Y.U.P.U.U.P.L.e.r.r.U.r.1.$.R.N.n.v.d.x.x.d.*.",
"$X}.].].`.]..X.X`.oXOX`.Q.q.J.3.e.e.q.2.,.U.P.e.L.i.L.P.T.P.P.U.P.U.P.e.P.T.i.P.P.P.U.Y././.Y.P.P.P.U.U.P.e.4.y.#XXXV.oX'.'.}.XX",
"M.b.x.x.l.l.l.k.k.l.d.u.0.w.U.5.P.2.0.0.1.<.4.P.I.L.e.P./.i.P.P.U.Y.r.L.U.L.U.Y.P.U.Y./.Y.T.P.P.P.P.T.U././.6.>.X.|.[.M.}.`.`.}.",
"[.].M.V.V.V.n.m.'.f.%.3.t.w.r.6.2.e.0.<.( ^ ) 4.q.2.q.P.U.P.T.T.U.e.0.q.1.2.I.I.e.P.P.P.P.P.P.T.P././.U./././.e.^ ` |..X].{.{.M.",
"*X*XV.B.V.V.'.Q.R.R.3.6.5.3.3.3.2.2.>.^ ^ ^ ^ } | ,.9.q.q.I.I.I.q.w.1.,.| 4.0.0.2.0.e.5.e.e.P.Y.P.Y./.T.T./.T.P.2.V R.(.N.[.M.k.",
"eXeX;X=X*X*X!.L.9.r.P.i.P.6.e.R.0.| ^ / ) / W ' ..| ,.,.1.0.w.2.2.q.2.2.P.r.>.,.,.,.,.0.q.5.P.P./././.T.T./.T.i.6.4.<.t.Q.D.z.V.",
"<XeX;X=X<X;X(.t.2.0.P.i.P.r.r.r.>.<.) / W Q Q ..,.>...| ,.1.2.2.q.q.e.2.U.P.} >.} ) <.,.2.2.e.e.P.P./.P.Y.R./.6.2./ B 9.r.g.-X-X",
"B.V.[.S.A.*X!.r.7.] <.<.e.4.3.} >.) ) ^ Q B ^ w.I.0.| | | | ,.1.T.e.I.2.>.4./ ^ ^ ^ ^ | <.e.e.P.L.P./.P.P./.P.<.2.} E B y.Q.%X@X",
"S.A.F.A.S.F.$X'.| W } ..} } } ) | ( ^ ( E n ^ e.P.2.>.1.1.,.1.q.2.2.2.>.0.,.! ^ / E ! ^ ,.,.| w.4.P./.i.P./.i.P.,.^ / j '.F.V..X",
"F.*XoX*XF.=X@XOXK.B ^ <.) ^ } ) | ( Q _ ! g j >.L.q.e.q.1.2.2.2.7.4.7.2.P.e.Q W E h m W ( ^ 1.r.3.e.e.5./.5.e.3.1.} ^ m s.F.V.B.",
"*XA.F.:X9X=XS.G.^.C ! ( ( / } } ^ ( Q W R y y ! / ] 2.>.,.1.,.} >.1.Y.U.U.^ B g f s d m R ^ e.4.U.5.e.2.P.>.2.<.>.' ~ F f.A.V.N.",
"<X*X;X=X=XeX;X2XR./ _ ! / ( ^ ^ ! ^ ~ R s 1 a F m m / / } } ^ Q ( W ^ ~ 9.h i z h z h s m R ^ Q w.>.e.>.>.<.>.>...^ W W &XF.+XS.",
"Z.V.A.V.z.F.'.{ ] / ^ ' / / Q Q ( ( W g r 1 a s h m n n W R n B ! n g u d r f i y y j m R m m ( >.) 0.} ' ,.>.| ) ^ ! W #X,X:X@X",
"A.=Xz.V.2Xu.W ( 8.8.| ` / Q / |  .~ m y a r r j F n n j F m R } 8.}  .y i a 1 s B ! ( E ! W n ! } } >.,.| >.>.} ^ E W j u.5X;X=X",
"xXvXyX$XQ.r.t.5.U.r.q.| ' / ] .._ E s y a y g / ! E W ! _ m } 0.P.Q _ i 6 4 2 m ' 9. .W B  . .' <.<. .9.>.} } ^ Q E E z p.5X2X*X",
"jX%XE.9.9.X.] / X.0.e.J.5.5.4.^ E n h f i y V <.0.^ >.0. .d ^ 4.7.} p 3 @ + , y (  .( ' R ~ ' } | | <.| ^ ^ W Q B / B W Q..XV.V.",
"<X7XE.] F m V E _ +.0.P.P.i.| Q n d y f i t  .w.2.,.}  .F 6 i _ w.z @ # o o % r u j 9.0.) B } ) '  .( ' / Q W E B W F ` ^.[.z.n.",
"3X3XE.m d z F F Q W / / 7.2.m m F h a f a r ( W r.( , f 4 4 $ - _ = O   o . = s - i W ,.^ B W W ~ Q } ^ ,.Q B R B m J.$X~.V.*X.X",
"qXwXR.y u z z m R R n B n R h h f f F < 1 r a , _ l . @ 4 6 # . #   o & X X : r r t , d g n R R R B ' >.5.r.^ B n 2 #.wX:X<X4X@X",
"<XwXp.1 t s s m g m h F h h s d _ E a a 1 < f < = % # o + +   o   % & $ X   # 9 < 1 < i i y d m m ~ e.P./ I.} n d ; ` <X<XdX3X9X",
"F.1Xs.l u u p a h s h d h d t ~ ,.....( a 5 6 4 @ .     O + #   o   $ 3 X +   % f f < 2 < 1 y d d R r.} g Q R y 8 ; R dXdX5X5X1X",
"V.V.v.0 1 r f l f s d d a y u ^ B  .W _ f 6 4 @ O O O % $ . $ + % % 9 3 X @ @ O $ 4 6 i 2 2 1 a i a F d u g s a t ; m 7X1X0XqX,X",
"eX=X,XX.2 1 i y a a y d a a a y 9._ 2 - > = . X O O O @ = @ O X & 0 7 @ # @ O X   X @ ; r 1 1 < i r r y y a r a 1 4 P 7X0X9X6X5X",
"H.Z.G.g.5 y a t 5 y u r 5 i , f @.6 $ $ X + $ + # % @ @ + 9 $ l O.K D 3 . # + X &   + = 6 - 5 4 i r a i r r a 2 2 = { xX@XdX7X7X",
"*XOXeX;X/ x p t r r a 5 5 i < , 4 % & X $ $ = = : $ + O 6 I %.nX|.w !.#.o # & * & $   + 9 t - > 5 p f 7 1 r 5 ; - - ;.gX0X8XyXpX",
"9X>X,X>X4.z s k u p < < - , - - @ 8 $ O $ $ % * > 7 > > 7 S { tXK > %.tX> $ A * 3 + o o : 5 - ; , 2 < 1 < 2 > ; 4 2 rXxXqXyX6XqX",
"7XdX2XpXX.z p s s F M d f < 6 Z f.S.%.0 @ X   X D I 0 w w w 0 b 0 Z o.K w w 3 % + X & o @ p r 6 = - - 4 ; 4 4 - > ~.vX6XuX7X7X6X",
"MXyXpXpXR.1 G $.!.xX1X-X&XW.f.9XjX1XvX%XQ.#.Y K.P Y K w 0 0 0 o.w U e D =.T * o # $ & X O O = = p 6 = 4 4 - < 2 #.mXqXlXqXqX7XpX",
"8XvXpXMXrXC &XfXgXgX0XhXpXcXvXcXMXqXpXgXNXZXDX#X0 S S w D v D L b T G L %.aX#XD @ O O o O X o % = a 1 - , , 2 6 %X9X9X7X9X4X3X9X",
",XA.:XF.=XfXjXjX4X,X1XeX;X9XwXgXgXgXgXgXxX0XvX-.0 0 0 A D L P U { Y ` Y uX9XeX<Xg.#.w 9 :   o . # : 6 c , , - r XX,X<X=X>X2XOXF.",
"eXhX<X<X,X;X,X:X-X:X:XH.V. XV.:X8X<X<X,X>X<X1X$.8 v S S 8 e L U =.L L W.F.*XH.2X;X:XF.XX$.$     .   = 4 p c t ` A.].V.F.B.OXD.A.",
"-X>X@X<X,X=X@X:X,XD.+X+XZ.F.S.`.-X4X2XqX4X4XpX^.A q [ 0 0 H T K { I ;.@X2X8X<X@XOXoX2X*XwX:.w 4 a :.!.N Z ; y ~.:X$X$X;X-XS.-X2X",
">X>X4X5X5X5XqX0XqXqXiXxXqXiX7XxX7XpXyXlXlXpXSX~.w S #.A 0 G K { S T &XbX3XyXyX6XyXyXyXyXxXmXbX8XpXMXMXuXtX%.C kXyXyX6X8X3X2X6XuX",
"7X7XqXxXxXxXxXxXbXbXnXCXCXCXSXSXzXnXDXCXzXxXGXK.0 { { b 0 S H N $.rXlX7XMXiXuXZXbXpXpXbXbXMXbXSXAXbXmXZXVXIXVXFXbXbXbXyXyXyX6XuX",
"7XqXqXqXfXqXqXqXyXbXMXbXbXnXnXbXSXbXnXSXnXNXSX=.I L =.w 0 A H P uXMX7XqXpXaXSXuXuXyXuXyXuXuXyXSXGXAXDXZXbXCXCXxXCXbXyXyXyX6X3X3X",
"ZXZXAXZXAXAXAXAXFXKXKXFXKXFXFXGXFXDXFXJXDXGX).U D q O.H 7 q Y kXKXSXSXAXSXSXCXnXSXAXAXAXAXGXAXCXVXZXZXnXZXCXnXvXlXyXyX8X3X8X8X3X",
"5X5X0XwXqXqXqXqXgXqXqXcXqX0X5X0X5X>X4X3X4X%X-.G S D U J v b ~.LXAXSXKXSXSXSXyXMXxXmXNXnXCXDXDXnXDXDXZXZXHXnXnXMXnXMXxXlXlXbXxXxX",
"F.G.F.Z.Z.Z.F.z.z.z.z.z.z.z.z.j.j.j.j.j.l.%.#.N O.D U U D G GXNXBXzXnXZXVXAXZXbXMXnXnXnXnXmXmXNXmXmXDXDXmXCXGXGXDXDXDXDXZXDXNXNX",
"gXgXgXgXwXwX1X0X5X0XgXqXgXgXgXhX1X,X<XG.`.#.=.P { L S U S { zXvXdXBXxXMXmXzXnXZXnXzXlXzXdX7XdXfXgXxXfXfXBXMXxXnXmXmXZXAXZXDXnXnX",
"vXgXvXBXgXvXvXmXBXDXDXDXDXDXNXDXFXFXBXNXsXL G G { G D G H { zXbXCXZXmXmXnXmXnXnXmXnXMXxXzXfXqX5X5X5XdXdXhXgXvXcXcXMXnXZXZXDXnXxX",
"cXvXMXmXMXMXZXZXZXZXDXDXDXDXDXDXAXHXHXDX#XJ Z { L b U b J q aXGXAXCXDXZXDXKXFXGXCXCXDXFXDXDXnXMXMXnXnXmXmXnXbXxXlXxXbXbXZXZXAXmX",
"DXCXZXZXAXAXFXFXFXDXGXDXGXAXAXFXDXFXDXDXW.{ [ { b L D D O.0 ).UXKXPXKXKXKXFXFXDXLXLXFXFXFXFXLXKXGXFXLXFXFXDXDXZXDXDXmXMXbXbXnXMX",
"FXFXAXAXGXFXKXKXFXGXGXDXFXFXFXFXDXDXDXKX-.D { b L L b U I 0 b IXGXLXKXKXKXFXGXGXDXGXGXAXFXFXFXFXAXGXGXFXFXFXDXZXmXmXmXZXmXZXDXDX",
"FXDXmXMXZXZXAXZXmXCXnXDXDXZXAXDXFXDXFX_.=.D S I U b L T U A U { CXHXPXZXmXNXCXFXZXZXZXZXDXCXCXCXSXSXGXDXZXCXnXnXMXbXbXpXpXiX7XqX",
"xXfXdXdXfXdXyXiXyX7X7XiXqX7X7XiXuX0X$X#.U T I D 0 U { L U o.0 q K.;.W.!.$XyX7X;X>X>X>X>X>X>XOX3X-X3X3X3XOXOXOXOX-XoXOXoX+X-X-X3X",
"=X>X<X4X4X4X5X5X7X7X4X4X,X;X>X,X4X<X#Xb b Y S D I o.O.G S 7 H O.[ +.{ U { W.%X-X=X>X>X>X-X>X>X-X=X>X4X3X3X2X;X;X-X-X-XoXoX.X.X.X",
";X>X4X4X7X5XqX7X4X6X4X3X>X-X-X>X+X>X2XW.P P Y U q 0 0 v 0 0 A { { U U O.=.O.~.8X4X4X4X8X8X>X2X-X4X3X3X-X+X.XA.A.B.V..X.X.XB.B.V.",
"6X6X3X6X4X6X3X2X-X-XoXOX-X;X>X>X,X|.'.^.=.[ U e q S U J D 0 I G H L Y J U T !.4X@XOXOXOXOX$X3X3X8X3X2X2X-XA.A.A.F.A.A..X.X=X*X.X",
"2X6X6X6X2X6X6X6XpXeX;X6X3XOX$X$X:.;.[ +.{ { S > A P M K { D w { #.{ S q b J =.$X4X%XyX6X6X5X8XuX3X3X>X4X4X4X=X<X=X-X=X=X-XA.S..X",
"qXiX6X6XqXyXyX3X3XuXuX0XfX).H +.=.T { K Y Y e T 0 q G O.#.=.L 0 q H K Y b w U ;.3XpXpXZXCX4XdX8X8X7X7X7X7XyX7X7X3X2X+X+X.XOX-X>X",
"iXbXxXxXbXbXnXbXSXCXVXaXzXkX{ D @.U N K e 8 ^.PXaX^.{ A H [ -.[ 7 $.%XCXtXN [ ` +.Q.~.^.sXGXSXBXCXnXnXzXZXCXSXAXCXzXnXnXlXbXCXnX",
"ZXZXFXAXAXAXFXFXCXtX;.;.=.J H 0 0 O.{ Z 7 I PXSXPXJXGX&X{ =.K.$.Y rXAXZXgX%XT v A D P { { ~.LXVXCXzXdX8XzXSXHXVXlXlXVXCXCXZXFXSX",
"FXKXAXKXKXKXPXKXPXtXtXKXIX;.Y ).aXPXIXtX^.rXFXNX_.=.{ K.K.T { o.N #XxXxXMXfX3X~.`.#XaXPXtX^.tXJXDXZXxXlXDXLXKXKXlX8X7XnXnXZXFXAX",
"FXFXKXAXKXKXPXPXIXUXUXLXPXUXPXPXKXLXFXPXLXKXaXtX{ P ` L 7 w q e b $XmXyXuXSXpXqXxXgXuXAXPX_.K.zXmXmXvXxXnXCXCXSXCXzXlXzXMXCXAXFX",
"AXFXFXFXFXGXKXFXFXPXKXNXDXFXGXCXZXzXZXmXxXAX#XK.W.%XMXuX$X!.K.K.~.8X5XdXhX5XbXwXlXyX%XzXrX#XzXlXdXlXdXdX7XyXyX7XlXlXdXdX7XyXzXSX",
"MXbXbXnXZXFXGXSXBXJXHXzXDXbXCXVXZXAXAXSXZXmXNXDXDXmXDXFXBXFXKXBXFXDXDXNXCXGXCXDXmXZXmXDXFXFXDXDXGXGXmXHXZXFXDXDXDXNXMXzXnXnXzXVX"
};
