/* XPM */
static char *da44cabd28074945960b71c180377e71y17WjjEVqUGF2343[] = {
/* columns rows colors chars-per-pixel */
"64 64 256 2 ",
"   c #1D0400",
".  c #260100",
"X  c #2B0302",
"o  c #250A03",
"O  c #2C0C05",
"+  c #2D0D0C",
"@  c #2C0208",
"#  c #350201",
"$  c #3C0300",
"%  c #3D0B03",
"&  c #350A0A",
"*  c #271506",
"=  c #381308",
"-  c #330D13",
";  c #291D19",
":  c #371716",
">  c #2F0E12",
",  c #27251B",
"<  c #37261A",
"1  c #3A270E",
"2  c #372826",
"3  c #3B3428",
"4  c #352F30",
"5  c #321A20",
"6  c #410400",
"7  c #440B03",
"8  c #4B0C03",
"9  c #4B0D0B",
"0  c #460A07",
"q  c #530D08",
"w  c #4C1203",
"e  c #4E120A",
"r  c #481707",
"t  c #52120C",
"y  c #5A1706",
"u  c #4C0C12",
"i  c #4B1A14",
"p  c #481716",
"a  c #541412",
"s  c #541B14",
"d  c #5C1B13",
"f  c #5A1D1B",
"g  c #561917",
"h  c #520E12",
"j  c #651B09",
"k  c #621D15",
"l  c #641D1A",
"z  c #6A1C18",
"x  c #701F0C",
"c  c #582405",
"v  c #47261A",
"b  c #5B241C",
"n  c #562519",
"m  c #492E1A",
"M  c #662606",
"N  c #773509",
"B  c #632215",
"V  c #65221B",
"C  c #6A231C",
"Z  c #6D291C",
"A  c #692716",
"S  c #74251C",
"D  c #782A1B",
"F  c #783417",
"G  c #6D2E0A",
"H  c #581E22",
"J  c #4A2825",
"K  c #5C2523",
"L  c #572A26",
"P  c #4B3727",
"I  c #573629",
"U  c #562D32",
"Y  c #4A3935",
"T  c #573736",
"R  c #4A2833",
"E  c #6B2421",
"W  c #6C2B24",
"Q  c #662A26",
"!  c #742C23",
"~  c #7B2D23",
"^  c #742B26",
"/  c #683528",
"(  c #7B3226",
")  c #74342C",
"_  c #7D332A",
"`  c #773729",
"'  c #693835",
"]  c #7B3D35",
"[  c #7C3C39",
"{  c #763733",
"}  c #7A4518",
"|  c #594738",
" . c #534836",
".. c #7B4428",
"X. c #6B4539",
"o. c #7E423B",
"O. c #774638",
"+. c #68543F",
"@. c #6D4C30",
"#. c #693C41",
"$. c #4B3C45",
"%. c #554C47",
"&. c #694947",
"*. c #754945",
"=. c #665646",
"-. c #785648",
";. c #7A5854",
":. c #705656",
">. c #766457",
",. c #736052",
"<. c #786663",
"1. c #747271",
"2. c #5A6057",
"3. c #83341C",
"4. c #832E26",
"5. c #83352C",
"6. c #8A352C",
"7. c #83392E",
"8. c #8C3B2C",
"9. c #863425",
"0. c #8B3631",
"q. c #843B32",
"w. c #8A3C33",
"e. c #843E3A",
"r. c #883634",
"t. c #923E35",
"y. c #91372F",
"u. c #8A471A",
"i. c #8B4628",
"p. c #985A29",
"a. c #8C4235",
"s. c #84433B",
"d. c #8C433B",
"f. c #854838",
"g. c #924234",
"h. c #93433B",
"j. c #98493A",
"k. c #88533D",
"l. c #975339",
"z. c #904B2A",
"x. c #A35B31",
"c. c #996735",
"v. c #AA6737",
"b. c #B07331",
"n. c #8A4A44",
"m. c #874845",
"M. c #984C44",
"N. c #895748",
"B. c #99564A",
"V. c #865B57",
"C. c #985A55",
"Z. c #8A4F52",
"A. c #A24D43",
"S. c #A4554C",
"D. c #A55749",
"F. c #A45C52",
"G. c #AA5C53",
"H. c #A55957",
"J. c #B05F5A",
"K. c #886859",
"L. c #966758",
"P. c #936A52",
"I. c #B77944",
"U. c #A76459",
"Y. c #AC6B54",
"T. c #876C63",
"R. c #976B65",
"E. c #8D7567",
"W. c #957567",
"Q. c #967774",
"!. c #A86B68",
"~. c #B36C67",
"^. c #A7746A",
"/. c #B5736A",
"(. c #A77776",
"). c #B97A75",
"_. c #A86F72",
"`. c #8A5E61",
"'. c #C47D53",
"]. c #C27C78",
"[. c #BC852D",
"{. c #BE8832",
"}. c #C3892C",
"|. c #C48B34",
" X c #C58D39",
".X c #C88C37",
"XX c #C6913A",
"oX c #CB923B",
"OX c #CB9537",
"+X c #D49A3B",
"@X c #DBA43A",
"#X c #E4A83E",
"$X c #E09E3C",
"%X c #BA864E",
"&X c #928678",
"*X c #B9887C",
"=X c #AE8772",
"-X c #C68947",
";X c #CD9644",
":X c #D49C45",
">X c #D49D4B",
",X c #D59949",
"<X c #C98B54",
"1X c #CA9457",
"2X c #D69854",
"3X c #D08C55",
"4X c #E39E48",
"5X c #DCA245",
"6X c #DCA34B",
"7X c #D9A848",
"8X c #DCA754",
"9X c #D7AE4F",
"0X c #E3A948",
"qX c #E9B34B",
"wX c #E4A957",
"eX c #E7B759",
"rX c #F2B24E",
"tX c #CB906F",
"yX c #DAA76B",
"uX c #DAA774",
"iX c #E4A666",
"pX c #EABA65",
"aX c #F3BB64",
"sX c #EBB374",
"dX c #F9C75A",
"fX c #EDC45A",
"gX c #EEC263",
"hX c #EDC46B",
"jX c #F3C56A",
"kX c #F5CA6C",
"lX c #FACC6D",
"zX c #F5C667",
"xX c #F9D16D",
"cX c #F5CC72",
"vX c #FBCD73",
"bX c #F7CB78",
"nX c #FDD274",
"mX c #FED47C",
"MX c #FCD67A",
"NX c #EDC376",
"BX c #A57B81",
"VX c #CB7F82",
"CX c #AB9585",
"ZX c #A09D91",
"AX c #C78A86",
"SX c #C9938C",
"DX c #C79692",
"FX c #D08487",
"GX c #EBBC8D",
"HX c #D7A685",
"JX c #FACA85",
"KX c #FED58B",
"LX c #FFD682",
"PX c #FDCD97",
"IX c #FED695",
"UX c #EAC18B",
/* pixels */
".X.X.X.XoX.X+X.X.X}.}.|.[.[..X.X|..X.X|.|.|.OX.X4X2X2X3X%X%X%X%XI.tX<X<X<X1X,X;XoXoXOX;X+XOXOX7X%X;XXXXXXXOX;X>X>X;X;X{.XX{.OX{.",
".X|..X.XoXoX.XoX}.}.}.}..X.X.X-X.X.X-X;X-X,X,X-X'.b.b.x.p.p.p.z.l.l.p.p.p.v.b.{.2X,X>X>X;X7X:X7X7X:X:X7X:X@X6X>X:X;XXXXXXX;X;X;X",
".XOXOXOXoX.XoXoX$X.X.X$X.X+XoX.X.X;X;X,X3XI.x.l.g.x.l.l.G.U.C.U.Y.F.D.D.B.j.a.z.z.v.b.'.%X{.{.{.XXOX|.|.OX|. X{.{.[.{.[.[.{.{.[.",
"}.}.b.}.oXoXoXoX.X}.}.OX+XOX}..X.X3XI.c.z.z.l.S.G.J.J.~._./.).)././.~.~.~.~.J.S.l.g.8.u.p.{.2X1XoXOXOXOXOXOX-X XXXXXXXXX{.{.{.{.",
"}.}.}.}..X+XoX.X}..X.X|..X.X;X,X<XD.z.p.l.D.G.J.Y./.).tXDXDXDXDXAXSXSXFX).).~.~.J.H.A.j.i.u.x.<Xb.b.b.[.[.[. X X{.{.OX{.{.{.{.{.",
"oXoXoXoXoX,X+X+X,X0X4X,X$X4X2Xv.u.l.l.B.F.U.~.).tXtXAXSXDXDXDXDXDXDXDXFXSXAXVX]./.J.J.J.D.j.8.9.p.{.|.[.}.}.XXXXXXXX;X;X:XXXOXXX",
".X|.}..X,X,X,X:X0X6X4X8XiX2Xz.u.z.l.D.G.Y./.].tX].).)./.!.!._._.Q._.BX_.).VXVXFXVXVX~.~.G.D.A.t.3.u.1XiXwX8X6X8X9X7X7X;XOX:XXX{.",
",X,X,XwX0X,X:X0X0X:X,XwX'.3.z.z.l.F././.*X).~.!.C.Z.m.*.#.*.[ &.[ #.*.#.Z.Z.C.!._.CX).).~.G.A.M.g.3.N I.6X>X;XOXXX;X;XXX{.{.{.{.",
",X,X,X,X,XwXwX0X0X9XiXv.D t.j.D.!._._.R.;.#.#.#.#.*.:.;.V.V.V.>.T.`.V.;.#.#.' T #.&.K.R._.~.J.A.M.j.9.x x.2XoXoXXX X X{.{.{.[.[.",
"wX>X,X:XoX,X0X5X:X8Xp.F h.M.G.U.C.m.Q U #.;.`.Q.BXBXBX(._.Q.^.^.R._.(.BXCX(.Q.R.:.#.L U ' Z.C.U.H.t.t.0.N p.8X,X8X6X6X:X>X:X:X7X",
",X.X}.}.}.}.}.}. Xp.3.i.n.C.m./ U ' Z.!.~.~.~.J.H.C.C.B.C.C.B.F.H.C.H.B.C.L.^.~./.)._.C.' U J #.Z.M.t.t.8.N p.>X>X,X5X:X;X:X>X6X",
",X:X+X+X+X+XOX+Xx.F 3.j.n.Q Q #.R._.~.G.S.A.S.H.H.H.G.U.F.F.F.F.S.G.G.H.D.F.D.A.S.M.C.!.).R.*.I H ' d.n.t.y.x b.yX:X>X:X7X:X1X;X",
"0X0X+XOX5X+X+Xb.N 5.e.' H { C.!.H.B.M.A.A.S.S.G.H.S.J.J.U.U.!.C.G.G.Y.G.F.S.S.A.A.j.j.M.M.F.J.U.m.b J Q e.y.4.x b.8X:X+X:X+X;X-X",
"0XqX0X#X$XwX-XN 9._ H K Z.!.H.A.B.B.M.S.S.B.C.L.C.S.H.U.R.N.V.^.U.F.F.D.G.G.G.G.S.A.A.j.j.j.j.M.B.C.' p E n.6.D N -XwX5X+X+XOXoX",
"qX#XrXqXwXwX} F ! d r.M.S.M.S.Z.k.O.*.O.O.V.K.R.V.R.R._.%.%.2.&.^.B.F.G.G.G.D.D.D.D.A.A.j.j.g.j.t.n.Z.m.g s O...M u.eX7XqXqX0X9X",
"@X@X@X@XwXp.G C E e.M.h.M.B.#.[ I @.-.< P &.=X*.P #.CX>.4 1.ZXY L.B.B.B.D.D.D.D.S.M.A.j.j.A.j.j.t.t.M.s.*.I 7 A ..y v.aXqXrXqXrX",
"#X$X$X4X3X3.j B a.w.M.M.&.| P < 4  .W.-.P %.CXE.| BXQ.>.2 BXQ.%.*XN.L.L.N.k.N.E.L.N.k.j.M.d.h.M.h.t.h.r.s.n.{ 0 K / M 3X5X0X+X#X",
"#X#X4XiXz.j B q.0.y.M.o.5 2 =.| , %.>.T.2 Y ZX| Y T.T.:.; 2.T E.&XP T T.N.P.,. .Y X.o.L.C.m.N.Z.d.M.t.t.0.h.e.' p K B u.wX+X0X+X",
"$X4X4X-Xc B ` 5.6.h.M.!.T Y E.&., $.;.R.3  .CX .2 <.E.*.4 4 :.Q.=.3 4 Y E.T., Y :.2 Y :.Y R X.X.' m.n.t.t.w.w.[ #.u d M I.0X+X+X",
"rXrXsXp.y F ( 4.y.h.M.C.J Y R.*., %.;.;.,  .&X .< T.&X&.5 %.Q.<.3 ZX2., =.+., 2.&X&., 4 $.5 2 1 : L s.t.t.0.0._ h.^ a y u.wX0X@X",
"+XwX-XM F F 4.9.y.t.h.C.J T !.-.; %.;.' < ,.Q. .< <.:., 4 $.<.2 3 &X2., | =., %.Q.=.* 2.1., Y =.< < B.h.g.y.8.0._ _ Z 8 N iXwX7X",
",XwXp.y F D 9.6.y.t.h.C.2  .Q.=.; Y :.J < >.W.m : 2 Y &.2 5 < :.%.< , , T.E., 3 <.P O T.<.,  .T.< 2 Z.h.g.g.6.8.4._ ) n 8 b.pXqX",
"zXsXG j D D 4.9.8.h.h.C.< 4 >.3 ; , 2 + *.Z.C.N.I O.P.!.V.*.P.P.K.Z.X.V.U.n.m.J 2 p O.^.| *  .>., < Z.t.g.i.9.9.5.~ ! ` % i.eX@X",
"cX2XM D 4.3.4.9.w.a.d.C.T * * < >.%.< *.Z.m.m.L.L.N.i...o.-.f.O.f.B.Z.C.e.q.m.L.K.L.D.z.-.m *.K.< : m.w.8.7.9.8.6.4.D ! n A >XOX",
"sXI.y ! 4.4.4.r.r.s.s.s.L.O.' L.-.*.' [ Q W ' Q ) / W W { [ { O.] [ { { ) _ ) { { { C f.N.m.N.N.O.n ] ! w.q.6.5.9.4.4.x j S 3XoX",
"sXi.y ( D 4.4.0.q.[ s.f.f.C.C.f.e.m.V W ^ { e.s.m.m.m.m.n.m.m.n.n.m.m.m.m.m.m.d.] 7.! a.s.q.q.q.f.M.d.( w.6.5.6.4.3.4.S x j <XwX",
"sXN M D D 4.4.4.8.a.w.a.h.w.e.t.w.7.w.w.t.e.w.w.a.a.h.a.g.a.a.a.w.d.a.h.h.t.t.d.h.h.t.h.g.g.t.g.i.f.] i.8.8.9.6.3.3.S S S y x.sX",
"wXx x D D 4.0.r.0.8.w.g.t.w.w.t.w.h.5.q.5.w.a.t.g.g.g.g.z.g.g.g.g.t.h.j.M.M.h.h.g.t.g.t.y.t.t.8.a.` i.( 7.8.6.4.4.4.S S S y 3.aX",
"'.x x 4.D 4._ r.r.5.0.0.r.w.0.r.r.r.r.4.r.r.6.0.9.6.6.9.9.9.9.6.9.5.8.0.0.y.y.8.0.y.t.0.0.0.0.0.a.7.q.7.0.5.4.4.~ ^ ^ E C j j iX",
"v.y z z C ! ^ ) ) { _ { { { { { [ [ [ { #.[ m.s.m.s.f.d.s.d.f.d.d.f.s.m.e.e.e.e.[ q.d.q.r.e.r.e.s.O.o.o.] _ _ _ ) W ^ Q E j j iX",
"I.w r J L L J J J J J v J J v J J J v J H J R J J J R J R J J J R U R U U T U U U I I L L U L P I J L J I L L L n m m K n c c yX",
"tX$ . # X o .   o o o o o . o o . O o + @ + + + + > + > + > > > > > : > > - > - = O > O O * O * * o o O O X . X . . . . X # r uX",
"=X% = p r p p f K K Q U ' ' ' ' ' ) ) ' { { ] O.o.[ ] [ *.e.o.o.o.o.o.o.[ [ ] [ { { { ` I / I I b I K b n b b f s p u - u # c UX",
"I.w K K / { { [ [ [ [ o.s.m.s.s._ 7._ 5.q.q.w.q.q.7.] q.0.q.q.q.8.7.8.7.q.q.q.w.0.0.7.s.f.o.o.o.O.f.O.O.s.o.] { { ) Q Q Q p G GX",
"P.w V E E Q ^ ~ ) ` ) _ _ _ _ ` _ _ ~ ( ( _ 5.5.7.5.q._ 7.7.] 5.7.7.7.7.5.5.5.5.5.6.6.5.5.5.5.5.5.` ( ( ` ( ~ ! ^ W E E E t c yX",
"I.w d l z z ^ ^ ! ! ( ( ( ( ` ( ( _ _ _ ( _ 5.7.7.5.7.q._ 5.q.5.7.7.7.7.q.q.q.q.q.0.0.0.4.5.5.6.4.5.( D ( D S Z ^ E E z l y M yX",
"I.j y z C S S D D S ~ S ( ( 4.4._ ( ( ~ _ _ 7.` 5.q.7._ 7.5.q.7.7.5.5.5.5.q.q.w.6.5.5.5.6.6.F ( ! Z ` F ( S D F S S z z l q x iX",
"tXy j j z x S S S _ m.f.o.` ! ! ! W ! ! _ ` ] 7._ d.q._ q.q.q.q.7.7.5.( r.5.7.5._ 7.( ( W ` ` / k.N.k...` D ! ! S z z z q q 3.iX",
"iXj q y x B A Z W ) v : I X.{ s.N.f.O.` / / / ` ` _ q.7._ _ _ _ 5.( ` ( ~ ~ ( ( 5.) a.N.N.N.P.P.@.m 1 * o.^ W W z z k j k 8 v.iX",
"uXG 8 k j B C Z W / O +.| * -.@.n / @.-.L.P.P.N.N.N.Q o.k.N.n.N.n.N.C.C.B.C.!.!.L.*XP.@.I m I  .* +.+.v { ^ W V z x k y y y 1XiX",
"NXp.6 h k j l V / n = +.I *  .* =.+.|  .&Xm m  . .=.Q.<.+.=.-.X.L.K.&.&.' I X.R.v T.= +.-.@.1 P / @.P i { ^ C C z z j k % r pXpX",
"bX%X$ a d k l V Q n i @.= | m * | +.| CXP 1 &X&X .; &Xo @.+.@.@.W.E.>.; P K.Q.+.P  .+.>.,. .P 1 O.! m m ^ E z C z k n r O G NXeX",
"hXsXc $ a k d l V ) Z Q c I 1 v >.,.,.&X1 3 +.=.3  .=.m =XO.k.f.O.O.E.; K.o.,.m =.1 +.>.| 1 ,.n o.b { ' E V V V k a t % * -.NX9X",
"zXLXv.# t a d d V b d n V ' O./ m m  .K.* K.>.K.  >.J I L.o.k.B.l.` =.  L.Z P.* &X1 1  . .+.P.O.Q W X.b E l d V h d w % = %XhX9X",
"rXaX1X8 % i g d k k l V E / ] n.N.N.N.k.k.O.c R.@.&X..v n I n B.k.f.N.-.N.Z Y.k.P...@.@.@.@.@.@.O.O.N.b l z k z f 6 8 7 N LXhXgX",
"#X+XaXu.$ 7 g d d d k l V A C W ` ` i.f.k.z.k.B.B.N.B.L.P.P.P.P...k.R.R.o.i.l.O.F P.P.W.%X..P.=X@.X.O.b z k k a $ # s $ 1XLXMXxX",
"dXdXlX;X8 7 % s s d d d d B B V A A Z ! ! ( i._ e.e.d.f.a.k.f.i.k.f.X.T { ` A c P.=Xc.P.P.r N.@.@./ s A d l k 6 # K 7 G KXMXxXgX",
"dXdXdXmXF q = & i s d d B l z z C B C A Z C C C C C C A D A B M F t 7 r r n w n W./ n A @.r n n n s b k f e $ $ v i # tXKXkXxXkX",
"dXlXlXvXyX6 g r . = i c d l l l B B A A V C C E E E E C Z Z Z Z A B b C W A A C Z Q Q V B B z B B b l d u X # i r # } KXcXkXkXkX",
"lXlXlXvXKXc.$ g p # & t f f l l V B V V C C C E S E C E E E E E C Z Z A A C C C Q E V l C B z k d n p # X : p i 7 r yXJXkXkXkXkX",
"mXvXvXvXJXPXG 7 e s & . - u f d k B V l V E E E E E E E E E E E V C V V C C C C C C E z z E E H p - @ & s s e w # I.KXcXlXxXnXcX",
"mXvXvXvXNXKXuX% 8 e a H & & # 0 g f b b V V l V V C C C C C V V C V V C C V V C V V l l l H u & @ - : n g t 8 $ } NXsXgXgXgXgXhX",
"zXgXgXeXpXpXJXv.$ 8 t g H H - & & & p n b n B n A V B B z k V k k V V V C B V b b L p p - @ @ @ g g a h q q 6 j yX8X8X9X7XqX8XeX",
"9XeXeXeXeXpXpXJXc.$ 8 7 h p H J : # X # % % r n n b b b b b b b b b b b n g s e = & .   + : J H d h q 8 q 8 q 1X0X0X0X6X0X6X6X6X",
"eXeXaXeXeXeXeXeXsXp.% w e p r r n K n p = X . X . X O + = = - = = > + X @ @ . . # & p H b b i w q q q 8 6 w %XeX@X@X@X@X5X5X5X5X",
"eXeXeXwXeXeXqXqXwXpX..% % r 7 e e t s s b J p J : - = > + + O + + - - - : : J R L L K g s t w w w 8 8 8 8 I.8X7X@X@X@X@X5X5X6X6X",
"eXeXwXaXeXeXeXeXeXpXNXc.% & 7 p 9 9 e t e e i s f f K K K Q K Q Q K K K K f f s a h e t e t q 9 8 8 $ c 1XhX8X8X7X9X9XqX9X:X7X9X",
"aXaXaXaXaXpXeXeX9XfXpXJX%Xc % 0 9 9 8 e w e e e 9 h h h a a t t a a a t t q e 9 h a e e e 9 9 9 6 $ } yXhXpXgXeXeXeX9X7X7X7X9XeX",
"jXjXjXaXaXjXjXjXkXcXcXbXPXUX..% # 7 8 w e w 9 h u u h h h t t t t t t e t t t 9 9 9 9 e 8 9 9 $ $ c.JXcXNXcXvXvXnXxXkXzXzXxXzXhX",
"vXvXvXvXvXvXMXmXMXLXJXKXKXIXPX%XA $ $ w e 0 0 9 u u u h 9 9 9 w 9 9 8 8 9 9 e e 9 9 9 w 7 $ $ } yXcXgXeXhXbXcXcXeXfXkXMXzXnXMXnX",
"vXmXmXvXmXmXMXMXLXmXLXLXKXKXKXKXIX=Xn O $ % 7 w 0 9 0 u e e 0 0 % 0 0 9 7 0 0 w w $ $ # % } yXKXmXxXdXfXnXMXmXmXhXeXgXgXxXxXnXnX",
"mXmXmXmXMXLXLXLXLXMXmXLXmXmXmXLXIXIXIXtX..% # # $ $ $ 7 7 0 7 7 u 0 7 7 7 0 $ # X O r k.HXIXMXhXvXlXdXdXzXlXvXmXkXzXjXjXxXlXnXlX",
"MXnXmXnXMXMXMXMXMXnXnXnXnXnXMXMXLXNXbXKXKXuX%X} c 8 # $ # # $ # # # # # # + w c c.%XpXKXMXhXhXgXgXgXfXfXfXfXjXNXjXzXfXgXpXgXgXgX",
"kXcXcXcXcXnXnXnXnXxXxXkXnXxXcXvXcXMXcXkXcXLXKXIXGXHX=XL.o.{ / K L ' O.N.=XtXUXIXIXKXbXxXxXxXxXMXxXxXxXxXxXxXmXmXcXnXzXkXzXgXkXkX"
};
