/* XPM */
static char *_806775ee57842cfd844223e4212246fLGdxMfJWcZFNRNPK[] = {
/* columns rows colors chars-per-pixel */
"64 64 256 2 ",
"   c #010202",
".  c #050709",
"X  c #050E10",
"o  c #032A16",
"O  c #04381A",
"+  c #113314",
"@  c #053A27",
"#  c #08312A",
"$  c #28372E",
"%  c #211E25",
"&  c #6E3518",
"*  c #763826",
"=  c #04481B",
"-  c #03551B",
";  c #135010",
":  c #2F5519",
">  c #0C7117",
",  c #336D12",
"<  c #044726",
"1  c #174A28",
"2  c #035827",
"3  c #175725",
"4  c #0C5134",
"5  c #265A26",
"6  c #285A37",
"7  c #2E4C2E",
"8  c #06672A",
"9  c #0B702F",
"0  c #376928",
"q  c #396A38",
"w  c #2E6C2E",
"e  c #76461A",
"r  c #477615",
"t  c #51760D",
"y  c #677809",
"u  c #476C24",
"i  c #4D7232",
"p  c #6D7236",
"a  c #554B21",
"s  c #0A7247",
"d  c #2F6F49",
"f  c #29544C",
"g  c #4E5450",
"h  c #506F4F",
"j  c #6E7650",
"k  c #5B746C",
"l  c #6F766C",
"z  c #565866",
"x  c #3B3E43",
"c  c #924C16",
"v  c #AD561A",
"b  c #B3601A",
"n  c #994925",
"m  c #925027",
"M  c #A75529",
"N  c #B75A27",
"B  c #A9512A",
"V  c #976233",
"C  c #B0722A",
"Z  c #C85B1B",
"A  c #CE6E19",
"S  c #C45A2D",
"D  c #CD6D26",
"F  c #E57623",
"G  c #94774A",
"H  c #AD764E",
"J  c #8A7C65",
"K  c #863E25",
"L  c #359114",
"P  c #0A8728",
"I  c #2D971D",
"U  c #5A9609",
"Y  c #558716",
"T  c #5A9517",
"R  c #4C8B12",
"E  c #67960A",
"W  c #669915",
"Q  c #71910A",
"!  c #4EA80D",
"~  c #67A705",
"^  c #78AA05",
"/  c #79B505",
"(  c #71AF11",
")  c #56832E",
"_  c #6E8832",
"`  c #6BA72B",
"'  c #328565",
"]  c #728D4D",
"[  c #548F74",
"{  c #758A70",
"}  c #61965D",
"|  c #86AA03",
" . c #89B804",
".. c #97B904",
"X. c #8DAD15",
"o. c #A6BD05",
"O. c #ABBA16",
"+. c #8F8D2F",
"@. c #BC842D",
"#. c #BC872F",
"$. c #BB8835",
"%. c #AF9238",
"&. c #91B427",
"*. c #B0B32F",
"=. c #A09210",
"-. c #D38B16",
";. c #C5872C",
":. c #C48C34",
">. c #C58D39",
",. c #C98B36",
"<. c #CB9236",
"1. c #C6923B",
"2. c #CB933B",
"3. c #C89938",
"4. c #D49C3C",
"5. c #DA9E3B",
"6. c #D59737",
"7. c #D3932B",
"8. c #E69736",
"9. c #CCA23B",
"0. c #DBA33D",
"q. c #D8A438",
"w. c #CFB136",
"e. c #E5A83C",
"r. c #EAAB36",
"t. c #DE9D1C",
"y. c #9BC202",
"u. c #93C50E",
"i. c #A7C504",
"p. c #B4C706",
"a. c #B5C71A",
"s. c #B1CC0D",
"d. c #B4C626",
"f. c #BACA37",
"g. c #B4CD2F",
"h. c #C3C936",
"j. c #C9E217",
"k. c #928F52",
"l. c #A89349",
"z. c #B99648",
"x. c #AE8F50",
"c. c #93A951",
"v. c #B9A759",
"b. c #B0AD4F",
"n. c #8B8F70",
"m. c #AD9267",
"M. c #96AC79",
"N. c #B2AD6D",
"B. c #CB9845",
"V. c #D39C44",
"C. c #D49D49",
"Z. c #D89946",
"A. c #CB934E",
"S. c #E49948",
"D. c #D5A144",
"F. c #DBA442",
"G. c #DDAA44",
"H. c #DAA44A",
"J. c #DCAB4C",
"K. c #D4A649",
"L. c #D6B64B",
"P. c #C8A757",
"I. c #DDAC52",
"U. c #D8A655",
"Y. c #D9B559",
"T. c #CAAE4F",
"R. c #E2A642",
"E. c #E3AB44",
"W. c #EAAD44",
"Q. c #E3AD4A",
"!. c #EAAD4A",
"~. c #E3A54A",
"^. c #E5B24C",
"/. c #EBB34C",
"(. c #E9B548",
"). c #F5B84C",
"_. c #E3AC52",
"`. c #E6AA57",
"'. c #E6B352",
"]. c #EBB553",
"[. c #EDBA54",
"{. c #EBB55A",
"}. c #ECBB5C",
"|. c #E4B958",
" X c #F1BB54",
".X c #F3BD5B",
"XX c #F7B759",
"oX c #F3AC50",
"OX c #CB976C",
"+X c #D8B664",
"@X c #D0B56D",
"#X c #ECBC62",
"$X c #E8B865",
"%X c #F3BD63",
"&X c #F7BB68",
"*X c #ECB369",
"=X c #BAC845",
"-X c #BBCC57",
";X c #B7D153",
":X c #B8CE6B",
">X c #C9CD54",
",X c #EAC359",
"<X c #F3C25C",
"1X c #FBC45A",
"2X c #F5C34B",
"3X c #C9D76A",
"4X c #CAD67A",
"5X c #D0CE6E",
"6X c #EDC164",
"7X c #EBC66A",
"8X c #F3C364",
"9X c #F3C46B",
"0X c #F4CA6C",
"qX c #FBCB6C",
"wX c #FBC766",
"eX c #F8D56A",
"rX c #EBC574",
"tX c #F5CB72",
"yX c #FBCD73",
"uX c #F9C878",
"iX c #FCD274",
"pX c #FDD37C",
"aX c #F9D879",
"sX c #E5D275",
"dX c #DDE277",
"fX c #709584",
"gX c #67A389",
"hX c #8C918C",
"jX c #92AA92",
"kX c #A8AD8A",
"lX c #B0B2AD",
"zX c #AA9E96",
"xX c #C8B0A0",
"cX c #AFC694",
"vX c #B5C4B2",
"bX c #CAD886",
"nX c #D3DB87",
"mX c #D5DB99",
"MX c #CBCB8C",
"NX c #FDD583",
"BX c #FDD886",
"VX c #F2CD8B",
"CX c #D2E291",
"ZX c #D1D8A9",
"AX c #E3DBAB",
"SX c #D8E5AF",
"DX c #E6E7B3",
"FX c #E6E799",
"GX c #B8B6C1",
"HX c #D6D8CC",
"JX c #E7ECCA",
"KX c #F2F4D9",
"LX c #FBFBF9",
"PX c #F3F4E4",
"IX c #D3EAC8",
"UX c #C3BBD2",
/* pixels */
",.:.,.<.>.>.>.<.:.@.@.:.;.@.@.:.,._ W 8 i C H B.H x.$.A.#.$.$.$.B.A.n.z.B.m.<.2.2.<.2.B.3.B.3.B.1.1.B.3.1.B.B.A.C.B.1.1.1.1.$.B.",
",.:.,.,.,.,.1.1.:.;.@.:.<.:.:.<.z.W h.Y = G 8.9.z.x.B.6.7.3.C.D.B.m.OXR.A.m.z.Z.v.x.6.Z.9.9.K.C.K.B.K.D.V.D.K.K.C.B.1.B.1.1.1.1.",
",.<.<.<.<.2.2.6.2.2.2.2.1.<.<.;.7.) > 8 6 %.<.,.6.V $.z.l.k.k.%.m.n.+.$.,.C n.+.` d j ;.:.$.$.A.>.:.>.1.<.$.1.$.$.#.#.#.#.@.$.$.",
";.;.;.;.,.<.2.<.:.<.,.<.<.<.<.:.;.%.q q %.:.:.%.l.J l.z.z.$.1.$.x.k.C k.k.%._ f.j.I 6 B.:.:.C.$.B.1.1.1.2.1.1.<.1.1.>.>.>.$.#.>.",
";.;.:.;.,.B.2.<.:.:.,.<.,.<.2.6.F.H.U.Y.D.H.K.l.T.x.l.5.R.!.G.K.m.A.7.9.3.v.] _ +.> g w.D.3.4.2.C C C @.@.@.;.#.:.>.>.>.:.>.:.$.",
"B.,.:.>.B.Z.B.V.V.D.H.Z.V.V.V.D.S.C.H.J.'.b.m.A.-.x.H K.P.A.A.P.J H.G.J.K.D.T.d 6 i z.4.4.K.B.C.C @.@.@.#.:.2.2.>.>.>.2.2.2.2.:.",
":.@.#.1.B.V.C.D.H.H.H.H.H.J.J.Q.U.J.`.`.b.v.~.0.S.x.p p W W T R r ) k.l.~.H.J.C.l.v.8.,.B.A.K.H.E.H.H.H.F.H.H.D.H.C.C.Z.B.B.>.:.",
"4.4.V.H.U.H.C.H.H.D.C.H.H.H.J.H.9.F.~.k.v.R.J.z.] U ^ a.f.a.a.y.u./ ~ R p k.T.3.H.%.z.6.3.4.4.B.q.4.V.V.9.V.V.V.2.2.,.:.;.@.#.#.",
"C.C.C.K.D.H._._.J._._._.I.`.{._.{._.P.v.*X{.v.) | g.DXJXJXSX4Xg.i.O. ./ +   V [.U.Q.b.U.U.3.H.H.D.V.V.3.2.2.<.2.2.>.>.:.$.;.$.C ",
"U.C.B.C.Z.V.C.Z.H.V.Z.C.C.C.H.H.4.V.c.Z.P.H T ..;XJXLXLXLXKXnX=Xy...i.t . . X p Y.6.T.z.K.G.H.F.V.C.C.D.H.D.V.C.C.C.D.V.B.B.C.H.",
",.,.D $.:.@.;.;.;.:.,.,.,.,.C ;.D x.G A C L u.d.SXLXLXLXLXPXmXg.y.p.|   . X   . p [.C.v.K.D.J.Z.F.D.B.V.H.J.H.U.Z.V.V.Z.6.B.C.H.",
"Z.Z.Z.6.Z.6.<.6.<.,.,.>.>.>.,.2.,.l.,.,.p ~ y.4XPXLXLXLXPXKXbXd.i.o.. X . . X . . kXU.P.P.J.I.`.I.J.V.K.H.I.I.I.H.V.V.V.V.V.V.2.",
"W.R.5.5.5.6.6.6.2.V.C.C.H.U.`.`.+XP.!.m.; y.s.dXPXLXLXLXPXDX;Xa.s.t z .   . . X lX{ +X$XN.].L.`.I.Q.J.I.I.I.J.J.D.4.4.4.V.4.2.<.",
"!.!.E.E.R.F.q.5.F.Q.{.}.#X%X8X8X5X$X1Xh X  .a.4XJXLXLXPXJX4Xg.p.y hXzX. X   . vX} ; +XI.OXY.E.I.K.J.J.K.Q.I.H.H.F.F.H.D.4.4.4.3.",
"!.!.!././././.!.!.'.'.!.^.'.].].@XT.A.k z | p.3XSXJXJXDXdXf.a.| z vX  .   . lXc., - z.#XP.K.F.0.G.Q.Q.Q.!.'._.'.'.'.].!.J.R.G.G.",
"5.8.0.5.8.0.R.S.R.0.F.G.G.F.0.0.v.0.k.X hXt p.f.4XmXZXnX>Xa.s.a UX%     . lX;XL 0 < b.{.P.L.J.W.Q.^./.^.].[.].].[.'.].'./.'.^.!.",
"q.0.R.5.R.e.R.R.G.E.G.G.G.e.0.R.P.|.+.. hXj X.O.=XdX3X>Xa.s.y z % .   X vX;XE ) w 2 z.e.B.U.!.w.R.E.E.Q.G.G.0.0.F.0.0.F.0.q.0.5.",
"e.R.R.R.R.R.E.e.R.e.(.e.e.R.!.oX+X+Xk.. x l Q s.a.g.f.g.p.^ g PX$ . % lXg.| ~ R w 3 3.!.v.J.oX/.(.^./.(.^.^.G.G.F.0.5.6.4.4.5.0.",
"e.R.e.e.E.E.E.R.e.W.W.E.E.E./. X+Xv.N.7 . lXp o.p.p.a.s.O.g HXKXg % HXd. ./ T 0 3 q |.^.T.(.^.Q.^.E.Q.E.E.G.E.0.0.0.5.4.6.6.4.4.",
"E.W.!.~.!.(.W.E.W.E.e.E.W./.]./.J.T.+.M.% AXn.Q j.p.g.>Xj HXPXmXGXZXi. .u.( t u 3 ] (.K.K.e.G.G.E.^.E.^.^.E.E.E.E.E.R.F.R.F.F.D.",
"5.q.5.5.5.0.e.F.E.G.G.Q.'.[.'._.G.P._ X.GX:X:X7 y c.zXhXGXLXZXMX:Xy.i...~ T u 0 9 Y.).L.+X{.].^.].^././.^././.[.^.^.E.!.^.^.^.G.",
"q.q.6.5.5.F.G.!.^.^.{.'.}.|.[.[.'.+Xc.Y u.=X=XMXlXvXlXHXPXJXCX>XO.o... .T r u 8 p wX+XY.2X'.[.[.[.[.[.].[.'./.[.^.Q.Q.(./.'.(.^.",
"1X1X<X.X.X<X<X<X'.[.}.<X}.<X}.<X,X*XN.R  ...d.3XDXJXKXPXJXZX4Xd.i.o. .W Y i 3 6 ,X@XN.L.).[.|.&X<X[..X[.].'.[.'.'.'.'.].].].Q.F.",
"[.<X.X.X1X8X<X|.<X<X}.|.}.<X X X2X.Xv.} ~ ..p.a.>XbXmXmXnX3Xd.o.....^ Y u 2 3 *.T.v.{.[.L.{.[.|.}.{.{.'././.(./. X'.!.R.R.e.q.6.",
"}.|.{.'.^.e.e.e.(.(././././.^.E.!.J.).n., u.y.i.a.h.3X3X=Xa.i.i.y.^ T 0 5 2 ] @Xb.#X`.'.`.`.Q.'.I.'.`.U.J.H.~.H.J.H.H.4.4.6.<.7.",
"^.^.{./.E.q.q.e.(.(.(.(./. X<X<XXXqX,XeX} U  .y.o.i.o.i.i.i.y...^ T i : 2 ) v.Y.[.2X*X$X].,X6X'.XX/./.XX$X$X|.'._.J.K.H.G.F.F.5.",
" X<X1X.X(.e.e.W. X X.X X X.X8X1XwX6X1X2X+Xq ~ ..y.i.o.i.i.y. .| E w : < ) +X8XXX$X0X&XY.b.*.*.T.5X`.].'.{.'.|.|.{.[.'.'./.'.!.'.",
"W.^././.(.(.(. X]. X X].]. X X X[.1X).E./.l.) ^  .......y. .^ E r 5 2 5 P.oXwX<XwXb.X./ ..i.a.:XbXZXVXuX}.,X.X%X}.}.}.[.[. X[./.",
"W.^.!./.W././.]. X X.X X.X]. X].(. X'./.'.W.l.r ^ / u./ / ~ T 0 3 < = %.S.L.qXY.X.E ~ /  .o.g.;XCXSXIXDXrX8X}.&X X[.). X X X). X",
"6.5.5.5.5.e.e.W.E.R.E.R.G.E.G.R.R.F.q.~.q.q.e._ u Y E E U r , 1 @ o p 8.7.F.L.U ! T R L ! ( i.3XbXZXDXSXZX5X(.<X X[.[. X X].[. X",
"W.W.W.W.r.e.e.W.W.(.(./.]. X X X}.).[.)..X[.1XkX4 5 0 i q 5 5 1 + ; n.+XXX`.U R w > 8 2 2 P / >X4XmXbXbX4X=Xh.(..X.X[.{.[.[.[.[.",
"q.e.8.e.r.r.r.(.W.(.(.)..X.X.X.X<X8X#X<X8XXX XN.~ ^  ...o... .X.b.lX{ 1 j W Y w 2 = = @ @ < ! g.4XmX4Xh.h.h.O.&.}.}.}.{.#X{.}.}.",
"R.E.!.W.W.(.W.).].[.,X,XwX8XqX&X8XqXqX1XwXwXd [ SX=Xf.3X:X4XZXcXfX6 O o , U 5 2 2 6 u 1 o @ R d.4Xf.! I L ( s...b.,X%X%X|.$X%X$X",
"[.]./.!.W.G.F.!.r.`.Q.q.D.4.q.7.t.K.1X1X<X{ 4 = [ CX4XCXSXIX' 8 2 2 2 3 U w 8 6 l.%X&X%Xz.7 > i.` > 4 # < < I ~ ..T.&X[.}.&X$X.X",
"&X{.{.}.|.[.'.,X'.U.6.7.;.,.5.5.S.,.%.p i [ - 8 gXFX4XCXDXjXs s 9 2 4 U > 2 ) >XwXXX{.,X1X#X] > = O o + < @ O 2 L | $X*X6X,XXX{.",
"&X&X6X8X8X.X X<X&X1X X2X,XT.&.W I > 4 < d h - - [ FX4XCXIX[ P s 8 8 , ! s [ @X&X6X7X.X9X&XqX9XN.q < @ O O O < # @ I O.%X#X.X,X$X",
"<X.X8X%X.XXX.X<X).,X5X4XbX;Xg./ , 9 < < _ } f 2 } dX;X3XSX' 9 9 8 w X.' M.] +X7X6X,X7X$X%X8X%XwXqXP.k.4 O $ < < < # ; &.XX(.[.].",
"(.(.W.E.].[.[.'.>XbXnXAXSXnXf.y.I s < < ) 3Xd - gX>Xs.h.vXs 9 9 9 ^ ZXcX^ i (.G.`.XXoX.X|.'.XXQ.`. XS.C Z v a m : 0 3 3 %.'.K.'.",
"/.(.(./.(.(.L.>X>X4X4X4XbXbX>X .P 2 2 O i >X[ - [ >Xi.j.vX8 8 4 , p.HXa.U k.oXe.r.J.Q.e.Q.D.8.E.4.Z b F D e b Z S D B.B.3.t.8.e.",
"'._.'./.r.w.w.g.d.g.d.h.-X=Xa./ 9 3 < < k.h.{ = ' 3Xy.g.cX2 8 2 T =XAX..0 L.!.{.I._.K.e.`.|.`.,.A D F D M b F D S N N S.L.K.K.`.",
"!.{.'.[.L.i.i. .~ ~ (  .u.d.i.I 8 2 < w tX(.:X4 4 :Xo.g.gX1 2 < | bX5XQ ] ).[.*X9X%X$X&X8X0X+Xc m F F D V F C V n e & m {.J.{.$X",
"2X'.7X{.i.( ! P 8 2 2 8 ! i. .P 2 < i rXtX8X-Xf ; M.o.a.fX= @ 3  .mXO.r @X<X$XqX9X%X&X9X8X&XZ.Z V H OXOXOXOXH v N N N B Z.%XY.|.",
"].'.uXa.I P 2 < < 4 O O # I I 8 < } tX.XuX7X,X} o jXa.s.jX< O : O.mX^ h $X9XuX%X$X|.$X#XwX*XN D F OXxXxXlXzX7.A A S N c C {.Q.XX",
"uXNX^.I 9 - @ @ < 6 ) k.m.&.P s b.aXaXaXNXpXeX:X@ k >Xo.cX< # , 5X:XU ] NX9XuXrXVXpXyXtXpXU.m N c H zXlXxXC c m v N N B M +X|.`.",
"}.6X! 2 < = u ] T. XyXyXqXv.i {.2X X].^.L.(.<X,Xh # :X..N.1 # t 4Xb.t k.BXqX6XVX9X0XqXqXpXz.c c v D G H V D D M M e & n n $XqX9X",
"r.B.9 0 _ 2.t.r.t.8.-.-.t.8.t.t.-.-.A -.-.C 1X1XL.o { d.;Xf X t :X>XY _ pXwX6X9XqX<XeX0XuXU.n S D v v v v e Z D S N M K & $XeXqX",
"2X1X(.1X1X2X). X2X'.0XqX1XwX2XXX1XoX).e.~.].,Xb.b.i 4 b.O.{ X i O.:X_ 0 VXtX0X0XqX,X<X6X#X_.M N M c A c A N e N b v B n M uX0X0X",
"qXqXwXwXwXyXqXwX8XpXaX0XqXyXiXaXiXeXVXiXqXb.r 3 < p $ l s.M.# : O.cX) + p aXyX9XtXqX7XrX8X%Xb M e N N * N Z M & B c B n z.BX0X8X",
"8XqXqX0XqX9XyXyXyXyXiXiXiXiXiXiXyXeXuX7X&.y.| t 5 < : # b.*.d # *.c.1 7 < i sXBXBXaXaXaXiXpXC.& n b N * v b B n & m n n *XaXtXtX",
"yXyXyXyXiXpXpXNXpXiXiXiXiXiXpXiXiXeXVXmX;Xa. .R 1 # w v.{ b.c.+ p 0 u u 7 O 1 k.+.j { m.MXBXpXG m v N * n v M M m & c A.*XuXqXyX",
"pXiXyXyXiXpXBXBXBXpXaXiXpXpXNXpXNX5XDXIX;Xi.^ q O q VXBXaXBXuXrXsX) U ~ T 0 < O @ o o $ g J rXaXH m n n * M M n n * H eXyXyXqXwX",
"pXiXqXqXtXyXiXiX0XtX0XyXiXyXyXyXtXg.3X5Xa.^ Y 1 2 sXaXyXtXpXNXyXuXc./ i.X.Q 0 < O # # + g x n.wXqXA.M n & K K n N `.rX6X.X8X.X8X",
"8X<X,X#X}.,X#X#X}.#X#X%X.X.X%X8XL.i.i.o...W 5 = k.qX$X,X<X$X}.{.#Xb...h.d. .U 6 < o O O 7 g g n.^.[.`.S.x.C A.C.`.E.I.U.H.G.Q.J.",
"^.^./.'.].{.[.{.}.[.].].'.Q./.'.O...i...^ u 2 < J Y.,XY.G.[.}.,X8XL.O.bX5Xi.| r < o O 3 : g z k v.(.].{.'.I..XE.G.E.~.~.H.J.H.G.",
"Q.Q.{.[. X[..X.X{.{.'./._.Q.Q.'.w. . ./ r 3 = 1 g l G.^.V._.`.^.I.S.b.CXSXa.u.W 3 k l q 0 0 z l n.$X`.I.J.H.5.0.q.D.5.R.V.V.4.6.",
"{.{.'.'.'.{._._._.~.H.Q.Q.Q.Q.Q.Y.` t r 3 < o @ { l m.#XY.oXI.U.K.!.{.-X;Xi. .U hXM.p zXi , j { l P.{.K.e.F.e.6.Z.J.G.0.0.G.R.R.",
"_.{.{.].].{.{.{.{.{.{.{.].{.{.{..XkX{ 3 1 f = + l n.n.{.`.J._.'.{.[./.Y.*...&.kXcXy r i zXr ) J fXm.}./.{.!.E.{.E.E.G.E.E.0.q.0.",
".X.X{.{.{.}.{._.{.[.{.{.{.{.}.'.J.f.bXZXlXGXk O d hXl U..X{.Y.{.|.|.$X#X].$XbXkX^ Q T r ] { , j hXkXY. X$X.X,X#X{.'.J.K.D.K.I.'.",
"#X9X9X8X9X9X9X0XtXqXtXtXyXyXqX0XNX*.|  .( ] kX< 6 hXn.m.iXqX0X9XyX9XrXqX.X8X,X*.| ^ U _ r n.] , z zXVX<XtXuXrXtXtX0X0X0X6X9XqX0X",
"uXyXaXuXuXpXpXNXpXNXNXpXpXNXpXpXuX>X^ u.~ r kXd ; n.hXn.tXwX9X9X.X8X9XiXyX8X8X<X*.^ Q T Y : hXh 7 hX@X,X7XNXrXtX|.$X0XtXtXpXpXtX",
"NXNXpXNXNXNXBXBXBXBXBXBXNXBXBXNXBX7X/ | ^ t { n., n.n.{ rXwX}.8X,X0X&X<XwX,X{.XX&X*.E Y t 5 $ l l hXMX[.0XBXBXiX6X$X#X0X0XtXpXpX",
"pXuXpXNXBXBXBXBXBXBXBXBXBXBXNXNXNXNXX.( ( E ) jXr h hXl $X.X8X8X#X9X6X<X8XwX&X}.wX+Xu u i 1 = @ + { VXwX8XtXiXiXeX8X8X0X9XqXpXpX",
"iXpXpXpXpXNXpXBXNXpXpXpXpXpXpXtXqXBXb.~ | E , M.p 7 hXl @X<X9X,X&X8X6X6X6X#X6X,X&XXXj 2 8 6 3 O o fX@X].}.6X#X#X6X|.|.8X8X9X9XrX",
"qX9X9X0XiXiXpXtXiXyXtXtXtX0XtX0X0XeX@XU E Y : h jXk l n.+XqXNXqXwXiXeX0XqXtXaXtXuXyXN.6 , w 6 = # jXVXyXiXqXaXpXiXaX0X8X9X9X7X7X"
};
