/* XPM */
static char *_068c10e4e994f2de4a1b98f133ee24fBbreP3y3MTyVwLXe[] = {
/* columns rows colors chars-per-pixel */
"64 64 251 2 ",
"   c #B57D25",
".  c #AD7721",
"X  c #DD7C00",
"o  c #DD7C0B",
"O  c #D97804",
"+  c #CD7C18",
"@  c #EB7501",
"#  c #E47D02",
"$  c #EC7C01",
"%  c #E47C0B",
"&  c #EC7D0A",
"*  c #E67608",
"=  c #F37600",
"-  c #F47D02",
";  c #FA7B02",
":  c #F37D0A",
">  c #F97D0A",
",  c #FC7600",
"<  c #EC7F13",
"1  c #E57D13",
"2  c #F37E12",
"3  c #BC852C",
"4  c #BA862B",
"5  c #BF8A31",
"6  c #BF9134",
"7  c #DE8200",
"8  c #D8840A",
"9  c #DE8214",
"0  c #DA8819",
"q  c #D18C1A",
"w  c #E38301",
"e  c #ED8202",
"r  c #E48B01",
"t  c #EA8B03",
"y  c #E5810B",
"u  c #EC830B",
"i  c #EB8C0A",
"p  c #F38103",
"a  c #F98204",
"s  c #F4820B",
"d  c #F9840B",
"f  c #F48B0A",
"g  c #F68A06",
"h  c #EB9204",
"j  c #E8930A",
"k  c #F6980D",
"l  c #E48314",
"z  c #EB8212",
"x  c #EC8B17",
"c  c #E4861A",
"v  c #E28B1B",
"b  c #E98A1A",
"n  c #FE8C12",
"m  c #F68615",
"M  c #E99615",
"N  c #FE9313",
"B  c #F49A12",
"V  c #FB9B13",
"C  c #FE941D",
"Z  c #F5961A",
"A  c #FEA31C",
"S  c #FEAA1C",
"D  c #F7A517",
"F  c #FFB31D",
"G  c #E7A00B",
"H  c #C38C2E",
"J  c #C88728",
"K  c #DF8C24",
"L  c #D78C28",
"P  c #C6922C",
"I  c #DB942B",
"U  c #C48C33",
"Y  c #CB8C34",
"T  c #C58D3A",
"R  c #C78939",
"E  c #C49235",
"W  c #CA9235",
"Q  c #C4933A",
"!  c #CB943B",
"~  c #CB9A3E",
"^  c #D39A3D",
"/  c #DE9C3A",
"(  c #D89837",
")  c #D28F34",
"_  c #E48D24",
"`  c #EA8A25",
"'  c #F18E23",
"]  c #EC942B",
"[  c #E89728",
"{  c #F39A2B",
"}  c #F89827",
"|  c #E79B36",
" . c #F39C34",
".. c #FB9F33",
"X. c #E48C31",
"o. c #CFA23F",
"O. c #DCA43D",
"+. c #D9A234",
"@. c #DBB03F",
"#. c #FEAC23",
"$. c #FDA425",
"%. c #FEB324",
"&. c #FFBB24",
"*. c #FFB32C",
"=. c #FFBB2C",
"-. c #E5A33B",
";. c #E3AB3E",
":. c #ECAB3C",
">. c #EAA437",
",. c #F6A335",
"<. c #F3A43A",
"1. c #F5AA3B",
"2. c #FDA839",
"3. c #FFBC32",
"4. c #FCB638",
"5. c #EAAB37",
"6. c #FECC1F",
"7. c #FEC525",
"8. c #F7CC27",
"9. c #FECA25",
"0. c #F6C62C",
"q. c #FEC52B",
"w. c #F5CB2C",
"e. c #FDCA2C",
"r. c #F6C523",
"t. c #EDCB37",
"y. c #FEC433",
"u. c #F4CB33",
"i. c #FDCB33",
"p. c #FEC53B",
"a. c #F4CD3B",
"s. c #FDCB3B",
"d. c #F5C435",
"f. c #FDD33C",
"g. c #F9D43A",
"h. c #CC9542",
"j. c #CE9A43",
"k. c #C89845",
"l. c #D39D44",
"z. c #DA9C43",
"x. c #D59E49",
"c. c #D89846",
"v. c #E19E43",
"b. c #D6A143",
"n. c #DBA344",
"m. c #DEAA45",
"M. c #D6A249",
"N. c #DBA44B",
"B. c #DEAA4B",
"V. c #DEAB51",
"C. c #DEB252",
"Z. c #DFB049",
"A. c #E4A544",
"S. c #E3AB44",
"D. c #ECAC44",
"F. c #E3A54B",
"G. c #E2AC4B",
"H. c #EAAC4B",
"J. c #EBA545",
"K. c #F2AB42",
"L. c #FBAD44",
"P. c #F5AA48",
"I. c #EBB343",
"U. c #E6B14D",
"Y. c #EBB34D",
"T. c #E6B243",
"R. c #F4B34B",
"E. c #FCB44B",
"W. c #F3BA4D",
"Q. c #F8B445",
"!. c #E4AC54",
"~. c #E6AB56",
"^. c #E4B354",
"/. c #EAB453",
"(. c #EEB954",
"). c #E5B459",
"_. c #EDB75A",
"`. c #EABB5D",
"'. c #E6BC5E",
"]. c #F1B652",
"[. c #F4BA53",
"{. c #FCBB54",
"}. c #F2BC5B",
"|. c #FEBE5C",
" X c #F6B454",
".X c #F6AE52",
"XX c #ECBC62",
"oX c #E7BD60",
"OX c #F2BD62",
"+X c #F9BE61",
"@X c #FCCC43",
"#X c #F9C548",
"$X c #F5D443",
"%X c #FDD544",
"&X c #FEDA45",
"*X c #FFD44B",
"=X c #FFDB4C",
"-X c #F3DA49",
";X c #EDC35D",
":X c #E8C25A",
">X c #F1C25D",
",X c #FECB5D",
"<X c #FAC558",
"1X c #FEDC53",
"2X c #FFDC5A",
"3X c #F8D852",
"4X c #EDCD43",
"5X c #FFE24D",
"6X c #FEE353",
"7X c #FEE55A",
"8X c #FFEB5B",
"9X c #FEE956",
"0X c #FFF55F",
"qX c #ECC463",
"wX c #EDCA67",
"eX c #F3C464",
"rX c #F2CB64",
"tX c #FECB62",
"yX c #F4C769",
"uX c #F4CA6D",
"iX c #FCCC6D",
"pX c #FFC666",
"aX c #FEDA64",
"sX c #F5D36D",
"dX c #FDD26C",
"fX c #FAD466",
"gX c #F5CD73",
"hX c #FCCB73",
"jX c #F8C776",
"kX c #F3D372",
"lX c #FCD274",
"zX c #FDD37C",
"xX c #FCD97B",
"cX c #F9D975",
"vX c #EFD46C",
"bX c #FFEC64",
"nX c #FEE16D",
"mX c #FEEE6B",
"MX c #FCE464",
"NX c #FFF265",
"BX c #FFF26C",
"VX c #FFF86C",
"CX c #FEEE73",
"ZX c #FFEE7B",
"AX c #FEF173",
"SX c #FFF27A",
"DX c #FFF87E",
"FX c #FFCF86",
"GX c #FFD583",
"HX c #FED984",
"JX c #FAD686",
/* pixels */
"U H H 3 H H U H U H U U U U U U E T T T h.k.h.k.k.Q Q U 3 U R R X.X.v.h.W E Q Q 6 Q Q Q ~ k.k.h.l.h.h.h.j.h.h.! ! ~ ~ ! h.~ l.l.",
"U U U H H U U U Y U W W U W W T W ! ! h.x.h.l.~ k.k.~ ! ! h.k.c.X.` L ( ( l.~ o.~ ~ k.~ j.b.l.l.l.l.M.x.M.x.M.l.l.x.l.x.z.l.l.l.",
"^ ! W W ! ! ! ~ Y W W W W W W W P P ! Y R U H P W R U 5 H U W ! ` l 1 _ J H 6 6 U U E 5 6 5 5 5 U U 5 5 T T T T T U U Y U U U U ",
"Y U U U U W Y U U U T W W U W U P P Y R R Y J P R R U 5 H U Y L o & u m 0 q 5 5 U U H H H P P P U T Q ! Q ! ! k.~ ! ~ ~ Q Q U U ",
"U U U U Y ! ! W ! ~ z.l.N.M.n.n.H.A.c.c.c.n.z.z.c.c.x.N.N.N.J.0 % - - & z ` ( n.l.x.z.^ O.^ ( W h.j.j.j.c.    .   4 3 3 3 U U 5 ",
"z.l.x.l.l.z.z.x.z.M.N.F.N.!.G.F.!.F.v.( ( ) ) W R c.M.N.n.A.X.{ n - = > > 1 _ -.N.M.b.z./ I I / z.x.l.l.x.T .       3 5 U Q Q U ",
"M.x.N.N.N.M.N.N.G.N.F.N.N.F.N.B.b.G.K. ._ L ( B.v.~.~.).G.| c m n p = > : & u ] G.l.W ) I L 0 I ! l.l.l.N.N.N.N.M.N.B.V.N.N.N.N.",
"N.N.N.N.N.N.N.F.G.B.N.x.N.M.z.M.n.J.] 9 0 X.m.M.x.x.M.z.( _ z : - - , , > - - y I o.m.^ / ( K _ ) ! l.l.l.M.j.x.M.l.l.j.l.l.l.h.",
"~.~.~.~.~.~.~.~.C.C.!.~.~.~.~.H.R.] l l  .P.U.^./.H.A.| 0 u > ; - - ; ; ; - - e 8 >.A.F.F.J.] 9 | A.n.z.M.l.M.x.j.h.! h.! h.! h.",
"x.x.x.x.x.x.x.l.o.o.l.l.c.c.c.| X.l * l X.( ^ W ( ( K c < s ; ; ; ; ; - - ; ; = u v -.v.z.A.` 9 ` X.n.M.n.M.M.l.N.M.x.M.x.M.M.M.",
"5 R R 5 T 5 U U 5 H 4 5     + + l % l _ J J + + 0 o o # : - - ; - ; - ; ; - ; - * u ] <.F.F.| v l ] A.N.M.M.x.l.j.j.M.!.N.N.N.N.",
"h.T ! ! ! ! W ! P H E 6 W Y L K z % 0 L Y Y J 0 y e s p p p p - ; - ; - - ; - ; n } % ..F.n.:.K % } J.N.B.V.V.!.M.l.l.G.V.V.B.V.",
"U ! ^ M.N.N.F.N././.C.^.R.J._ o & b K.Y.H.-.` & ; - - - p p p - - ; ; ; ; - - = m n $ b P./.S.[ o b R./.!.!.B.B.G.B.G.C.N.B.B.G.",
"! !.Y./._._.(.].+X+XqX}.|.| ` z % L.pX}.|.<.u > - ; ; ; - p p p a = a - - ; - , > > - % | J.I.-.0 9 -.G.B.B.B.B.B.G.B.U.G.B.B.n.",
"/.G.].H.H.U.^.H.!./.^.^.H._ o l >.].^..X{ & p p - ; - - p p p p - - ; ; - ; = - - - - # v K.H.H.I 0 ( O.m.@.m.Z.U.B.U.U./.^.U.U.",
"O.m.O.n.n.O.n.n.O.n.O.| -.I 0 [ O.O.A.X.l > = = - - - - p p p e e g $ a - - - - - $ - s u ,.H.S.K.:.;.;.;.@.U.U.U.U.U.U.U.U././.",
"-.;.;.@.A.A.F.S.S.-.>.1.I.Y.Y.;.T.I.[ 0 e p ; - ; - e p a = - g &.&.t e e - - - $ p ; - * l K.S.G.S.:.;.S.-.S.S.G.S.G.S.n.n.@.O.",
";.:.:.S.A.S.S.F.D.:.' v Q.Y.U.T.W.>.9 y p p a ; ; - p $ = = p =.q.q.S X e $ - $ e p - ; - l ,.K.D.Y.5.>.Q.D.D.S.U.U.U.Y.S.B.B.S.",
";.:.T.D.J.H.H.J.,.Z : % >.Y.H.Y.4.v y $ ; ; ; ; ; ; - p e e #.s.i.e.q.t e $ $ : p - - ; - u  .P.L.<.b c >.I.D.S.Y.U.U.U.S.S.m.m.",
"@.;.S.A.H.H.D.1.x & > & ' :.H.H.{ % s ; , ; ; ; ; ; - e w %.y.q.q.e.q.%.w - - $ - $ - - > & } ....c 2 < v :.K.S.S.G.G.T.G.G.G.G.",
";.;.m.B.U.Y.E.c u - > > z ..J.K.b > > > , , ; ; = ; a w M p.y.q.e.e.i.y.A e p - $ $ ; - = s m } < 2 : 2 l { Q.R.Y./.Y./.Y.Y./.U.",
"D.U.U.C.^.[.K o e - > - & x E.<.< > , , , = $ = g p e w =.i.i.e.e.e.e.i.3.A $ $ > > - ; > - < 2 & : s : : x Q.W.(.[.(./.Y.U./.Y.",
"[.(.`.'.+XO.0 v u - - > - # 4.{ : ; , ; - @ e N f u # A s.y.i.i.i.e.e.q.y.=.n ; 2 > > > > - : - s e - : ; & <.[.[.(.[.(.(.(.(.(.",
"<X<X}.}.{.L.L.$.u p > - - e x x - - ; ; - $ B 4.t # t 3.y.q.s.e.9.9.e.e.=.q.4.s n m d p ; - > d p e p > = $ [ E.Y.Y./.Y.^.Y.U.U.",
"T.I.I.1...} ..2.p - - - - - p $ $ p - - $ r 3.*.y w D p.y.q.i.9.9.e.e.6.e.9.9.&.w i $ p a - = a ; p - - = p i 2.P.F.S.G.N.N.n.U.",
"@.I.Q.M & * & u - - ; - p ; - - p $ e e # A p.D # w #.i.y.e.9.9.9.9.6.6.6.e.9.9.B X $ p a ; - p ; ; ; - e - p }  X X.X| H.].^.(.",
"(.{.4.c u - $ e - ; - - - - ; - - e - e t *.y.M X i 3.e.9.9.6.6.9.e.9.9.9.9.9.7.&.w e p ; a p e p - - - - p $ x E..X..+ | ].]._.",
"(.W.] % u p - = - - - ; ; - - - $ p p $ M y.3.r X B i.q.e.9.9.9.e.i.e.e.9.9.6.9.i.D e p p a g e p - - - - p $ u {.L.< % 0 E.{.}.",
"(.Q.b & = = - - - ; p ; - - - - $ p p $ D y.=.r w D i.y.y.@X@Xa.s.s.i.e.e.9.6.e.i.*.t - ; p A w $ = p - - - - - ..x & s & { {./.",
"D.{ 1 : $ p - - - p ; - a n p = - - - e %.p.*.r r F q.i.&X1X2X1X*X*X*X&Xi.e.6.9.i.3.V = - p #.B # g N $ - - - - = * & ; = u E.W.",
"2.l & ; - - - $ - ; - - a N - = ; - - e =.s.#.7 h &.9.w.i.f.&Xa.1X*X&X&Xg.e.9.9.e.y.#.@ - $ %.#.# g N - - ; ; ; a a > ; > @ ,.<X",
"2.u - = - - $ - ; - ; - - - - - p $ = e p.p.$.X h 7.7.e.r.e.i.0.p.#Xs.f.e.e.6.e.0.q.*.$ - # %.%.w $ p - - ; - ; ; ; ; > , - Z Q.",
"} g - - - d > $ ; ; ; ; = p @ p *.g @ p 4.*.# w %.q.9.9.7.e.e.0.y.0.a.y.w.e.e.w.0.y.3.e $ # %.y.i e - ; ; - p p - - - > - - u 2.",
"d s - - = - p - ; ; ; p - - $ V y.A - $ f i & u &.e.e.9.9.9.q.q.y.%X=Xi.e.e.9.e.i.i.y.t $ w #.y.i e p ; > a p e - - - p - - - C ",
"d - - p - - = - ; > - ; - e g #.=.=.k # $ u # M p.i.e.9.9.e.y.s.=XbXbX$Xe.9.9.9.e.i.y.h $ # #.y.g $ p ; - - p - - p - p - p $ n ",
"- - : - N > @ @ p ; ; - p $ f =.&.i.&.7 e p Z #.y.q.e.9.r.8.a.=XmXBXbX$Xe.9.9.9.e.s.p.h e # #.y.g - p p e - p - e - p n - p = d ",
"d > $ p d p - p @ p p - p e B s.e.9.7.D # t B 3.y.e.e.8.8.a.6XBXCXAXBX3Xi.7.9.7.i.i.y.k e - V 3.g $ # t p.n $ @ $ - $ - - - s - ",
"d p - - - - $ p e w - - - e S i.9.7.7.&.h 7 r i.q.e.w.w.u.5X8XbXAXAXAX3Xi.9.6.9.e.y.y.D e p p N p e r =.3.#.$ $ p - p - s - - s ",
"d p $ - - $ @ N V w p ; - t *.q.9.9.7.7.q.j %.i.e.e.9.u.f.0XmXmXCXCXAX3Xa.e.9.e.i.y.q.D $ - - - e t =.y.p.3.i $ - - p - - > - s ",
"d & : p - p $ #.p.t p p e f y.q.9.7.6.7.e.i.e.i.e.e.8.a.9XbXbXmXAXAXBX1Xu.e.i.w.e.q.q.D $ - e $ w *.s.d.s.y.M $ e - $ p p - - e ",
"$.& @ - $ e t %.i.S t $ # A i.7.e.9.6.7.7.7.0.w.e.e.w.&XNXBXNXBXAXVXBX$Xu.f.&X0.8.9.e.&.e $ w i #X#X#X@X$X*X$.w - - e p a - $ f ",
"L.l & - - $ t 7.i.q.S w k s.y.e.7.9.6.6.7.7.u.s.w.e.t.5XbXBXmXNXAXVXbX$Xu.&X&Xu.8.8.8.7.t X B @X1X2X2X2X1X%X$.e : ; - - p - $ N ",
"<XZ & = = $ t 7.r.q.q.F q.i.e.e.9.9.7.9.9.e.f.f.w.8.t.NXBXmXBXBXAXBX8Xt.u.5X5Xi.8.8.w.e.%.D q.&X*X*X*X*X*X@X*.e - ; $ e p - u $.",
"<X2.O > = $ h e.q.e.e.i.q.q.r.e.e.e.9.7.7.8.f.&Xi.i.-XNXBXAXmXBXAXBX8Xu.a.6X5Xu.w.9.w.e.q.i.q.i.d.y.y.a.i.y.*.e - - - p $ $ y L.",
"W.Q.1 : > $ h =.7.e.e.9.9.0.e.e.i.e.e.e.q.0.9X=Xw.t.9XbXmXAXAXAXAXBX6Xu.$X9X=X0.u.e.e.e.e.e.e.w.q.i.e.i.0.i.=.e @ ; p s d @ ] <X",
"+.I c < $ s w &.q.e.9.0.0.9.e.e.q.w.e.9.0.g.8X&Xt.t.NXBXAXmXAXAXSXBX5Xu.$X8X&Xw.i.u.i.i.e.e.9.8.e.7.9.e.q.y.#.e - - - a s o 4.,X",
"Q.W.E.} u u X S q.q.9.q.e.9.9.i.u.f.8.w.w.f.0X4Xt.-XVXVXmXBXAXAXSXAX5Xu.$XbX&X0.i.g.i.q.e.e.9.9.6.6.7.9.9.q.A $ p - - d $ ' <XtX",
"tX,XfX{.{ # $ V q.q.q.e.q.q.9.8.f.5Xu.u.u.&X0Xa.-X-XAXvXAXAXAXAXSXVX6Xt.$XbXf.u.a.a.i.q.e.e.9.6.7.6.9.9.9.q.V $ - - d } l L.pX}.",
"dXdXdXfX{.o d : %.y.y.i.w.w.8.8.5XNX9Xt.t.g.g.w.-XmXAXAXmXAXAXCXSXCX2Xt.-Xg.g.t.7XbXa.0.i.9.9.6.8.9.e.e.q.&.g - - : s ' L.<X>XqX",
"xXxXcXaX,X2.< 2 B y.y.i.i.0.8.w.9XBXVX8X-Xt.r.u.9XAXAXCXCXCXCXCXCXnXnX3X4Xt.&X8XmXbX$Xw.e.e.9.8.8.w.i.e.q.V = ; ; z o ] fXdXdXlX",
"zXzXlXdXiXfXP.1 y *.y.w.e.8.8.w.9XVXVXBXNX-Xt.t.MXAXCXAXAXCXAXAXZXZXSXmX7XNXNXNXCXmX&Xu.i.9.6.8.e.e.i.q.*.e @ = : 1 v ,XdXdXdXlX",
"hXhXgXgXhXpXiXL.o i 3.e.9.9.9.w.5XBXmXBXVXVX0X9XBXCXmXAXAXCXCXCXZXZXSXAXAXAXBXAXAXmX&Xf.u.9.9.6.e.q.y.y.V $ : * 2 ` <XtXtXpXpXpX",
"XXXXXXXXXXXX+X|.1.0 8 3.q.r.9.u.$XNXBXBXAXBXBXBXAXAXCXAXAXAXAXSXZXSXSXSXSXAXAXAXAXmX=X0.e.6.9.8.r.q.s.B u : : * ` L.I.U.m.G.G.F.",
"XXXXXXXXXX`././.<X1.{ j =.f.e.0.a.=XBXAXAXAXAXCXAXAXAXAXAXAXAXSXSXZXSXZXAXSXAXAXCXmX7Xa.r.9.e.e.e.y.%.w u z < ' ...XU.B.Z.G.H.H.",
"_./.)._.~.!.!.G.U.Y.R.+.q =.q.i.i.s.7XmXCXAXCXAXmXAXAXAXAXAXAXAXAXSXAXAXZXAXSXCXmXBXbX&Xr.6.9.e.q.k a $ % b { E..X/.H.B.b.^ v.v.",
"F.!.G.G.F.!.!./.Z.B.Y.W.:.I 3.s.s.s.@X7XmXBXBXAXAXAXAXAXAXAXAXAXCXAXAXCXAXAXCXAXmXAXmX5X9.9.q.7.i # $ # ' <.R.H.^.V.B.N.m.N.N.v.",
"_._._._.~./.~./.Y.Y.R.Y.D.D.:.5.E.p.a.t.2XbXBXBXCXAXCXAXSXCXAXZXCXCXCXCXCXZXAXmXBXbX8X$X7.F B y O c ]  .E.W./.U.C.C.).).^.^.).^.",
"XXXXXXXXXXXXOXXX}.[.}.].].(.Y.(.#XW.#X4X:X3XMXCXSXSXSXCXSXSXSXAXCXZXCXCXSXCXVXHXSX1X3.D j 7 O _ <..X|.|.}.'.^.C.C.).oXoXoX'.'.oX",
"OXjXjXjXjXhXjXhXhXhXhXhXhXhXlXlXdXdXzXzXzXuXrXrXvXnXSXSXZXZXZXSXAXAXCXCXAXBXmX<X5.I 8 8 0 ,.<XpXhXhXhXyXiXyXyXeXyXyXgXgXkXlXkXhX",
"FXFXGXGXFXHXGXFXGXzXzXzXzXzXzXzXlXzXGXFXFXFXlXlXwXvXvXaXcXcXnXcXnXnXnXnXaX:X@.+.>.:.,.L.Q.tXzXGXjXgXgXgXyXyXeXeXXXqXqXwXuXuXgXuX",
"HXHXFXJXHXFXHXHXGXGXGXGXHXGXGXzXkXkXjXjXjXhXhXiXsXrXrX;X;XqX;X;X;X;X;X;XrXrX;XrXoXXX}.}.(.+XhXzXJXJXJXkXkXlXdXiXuXyXyXuXzXzXxXxX",
"HXHXHXHXHXHXHXHXGXGXGXGXzXGXJXzXJXkXzXgXhXhXjXhXyXyXeXrXeXeXrXyXeXpXeXrXqXqXqXqXwXXXXXOX`.`.qXcXcXkXvXvXuXiXiXiXuXqXqXuXuXuXuXuX",
"xXxXHXxXJXkXxXzXlXlXlXlXzXlXzXhXlXhXgXhXhXhXhXhXiXiXiXeX+XeX}.eXqX;XqXqX:X'.:X:XqXqXOXOXOX~.`.dXrXrXwX;X;XrXeXyXyXoXqXyXqXqXqXeX",
"kXkXkXkXvXvXwXwXuXgXuXuXiXgXjXgXgXjXuXuXpXiXhXhXhXlXhXiXiXhXiXhXsXsXsXsXdXsXsXvXkXkXjXhXhXhXlXfXaXaXaXfXiXdXiXhXlXiXgXlXzXlXzXlX"
};
