/* XPM */
static char *bca585a705aa48eab22b0c7e4fbbc173FBfrpmI8c2naBQhJ[] = {
/* columns rows colors chars-per-pixel */
"64 64 256 2 ",
"   c #273236",
".  c #312F31",
"X  c #1C2838",
"o  c #5C3614",
"O  c #623A1C",
"+  c #4A3A30",
"@  c #603D21",
"#  c #086E39",
"$  c #067537",
"%  c #177A3B",
"&  c #10712B",
"*  c #3A5437",
"=  c #754B1B",
"-  c #504E34",
";  c #6C4629",
":  c #784C26",
">  c #7C5426",
",  c #654A35",
"<  c #6F5731",
"1  c #4E683A",
"2  c #78643F",
"3  c #393343",
"4  c #123A6D",
"5  c #0B4A5B",
"6  c #164A58",
"7  c #1B5556",
"8  c #115151",
"9  c #244C58",
"0  c #235658",
"q  c #345855",
"w  c #2A504D",
"e  c #187A44",
"r  c #0A7045",
"t  c #306F4D",
"y  c #0B4867",
"u  c #184A67",
"i  c #1A5366",
"p  c #064E6A",
"a  c #255465",
"s  c #2E5367",
"d  c #4B524A",
"f  c #516E50",
"g  c #6D6E49",
"h  c #4A686E",
"j  c #657D69",
"k  c #715441",
"l  c #89591C",
"z  c #8D4F1A",
"x  c #8E611F",
"c  c #8C5C24",
"v  c #8B552A",
"b  c #8D5B2A",
"n  c #855726",
"m  c #925C2D",
"M  c #955A28",
"N  c #8A5834",
"B  c #925D32",
"V  c #965C38",
"C  c #874E2E",
"Z  c #8C6429",
"A  c #95632C",
"S  c #986627",
"D  c #886536",
"F  c #986634",
"G  c #977835",
"H  c #A6772D",
"J  c #B87B28",
"K  c #A56B35",
"L  c #A97636",
"P  c #B57D39",
"I  c #A3692B",
"U  c #AA6626",
"Y  c #C37F34",
"T  c #9A7543",
"R  c #896A4F",
"E  c #AD7644",
"W  c #8E7360",
"Q  c #1B8A2D",
"!  c #6D8A38",
"~  c #449036",
"^  c #0C8D4B",
"/  c #07B755",
"(  c #08AB50",
")  c #11B85C",
"_  c #4F8A4C",
"`  c #718E4F",
"'  c #55AB4C",
"]  c #70B95D",
"[  c #02C35A",
"{  c #8B9732",
"}  c #BC842D",
"|  c #BB8A29",
" . c #BA8736",
".. c #BC9537",
"X. c #A98D2F",
"o. c #9BA334",
"O. c #B4AF27",
"+. c #AD9C15",
"@. c #D09218",
"#. c #C9BB1B",
"$. c #D5B71A",
"%. c #D1AE14",
"&. c #E4B715",
"*. c #C2852C",
"=. c #C58A2C",
"-. c #CA9A27",
";. c #D59A28",
":. c #C48C34",
">. c #C98D34",
",. c #C58D3A",
"<. c #CA8D3A",
"1. c #C48532",
"2. c #C69136",
"3. c #CA9236",
"4. c #C6923B",
"5. c #CB933B",
"6. c #CD9A3A",
"7. c #D39C3D",
"8. c #DC9E3C",
"9. c #D59936",
"0. c #D98D37",
"q. c #E39B33",
"w. c #C5A928",
"e. c #D6B727",
"r. c #DBA23D",
"t. c #D7A538",
"y. c #CDAE31",
"u. c #E4A93B",
"i. c #E9B33C",
"p. c #EDAE31",
"a. c #E1971C",
"s. c #D6C51B",
"d. c #FBDA0A",
"f. c #E6C717",
"g. c #FCD618",
"h. c #EFCF0F",
"j. c #D9CA29",
"k. c #F9CB25",
"l. c #F4D12A",
"z. c #FBE426",
"x. c #FEF736",
"c. c #F5EC2D",
"v. c #FFE500",
"b. c #8B9547",
"n. c #B78C49",
"m. c #B1A34B",
"M. c #A39172",
"N. c #A9AA63",
"B. c #91A165",
"V. c #CC9441",
"C. c #CC9A44",
"Z. c #C89749",
"A. c #D39C43",
"S. c #D49D49",
"D. c #D79A44",
"F. c #C89A56",
"G. c #CA9247",
"H. c #D5A145",
"J. c #DBA344",
"K. c #DDAA45",
"L. c #D5A34B",
"P. c #DAA44B",
"I. c #DDAA4C",
"U. c #D3AC49",
"Y. c #DEA652",
"T. c #DDAB52",
"R. c #D8AA58",
"E. c #DBB353",
"W. c #D1AF4B",
"Q. c #E2A643",
"!. c #E3AB44",
"~. c #EAAC43",
"^. c #E3AC4B",
"/. c #E9AD4A",
"(. c #E7A54A",
"). c #F3AA47",
"_. c #EAB344",
"`. c #E4B24C",
"'. c #EAB34D",
"]. c #EBBA4D",
"[. c #E6B646",
"{. c #F4B74A",
"}. c #E2AD53",
"|. c #E8AB56",
" X c #E5B253",
".X c #EBB553",
"XX c #EDBA54",
"oX c #E4B45B",
"OX c #EAB55B",
"+X c #E5BB5C",
"@X c #ECBB5C",
"#X c #E4BA54",
"$X c #F2B354",
"%X c #F1BC55",
"&X c #F2B45B",
"*X c #F2BC5B",
"=X c #FBBC59",
"-X c #F1AF58",
";X c #D1B36C",
":X c #EBB662",
">X c #ECBD63",
",X c #ECBD69",
"<X c #E4BA63",
"1X c #F2BD63",
"2X c #F6BB67",
"3X c #E7B975",
"4X c #D49559",
"5X c #FAC749",
"6X c #EBC457",
"7X c #F3C25C",
"8X c #FCC35D",
"9X c #F5C456",
"0X c #F2CC4E",
"qX c #FDF14C",
"wX c #DAC56C",
"eX c #EDC264",
"rX c #EEC36A",
"tX c #EBC96B",
"yX c #F3C464",
"uX c #FBC462",
"iX c #FBCA65",
"pX c #F3C46B",
"aX c #FBC66B",
"sX c #F5CA6C",
"dX c #FACC6C",
"fX c #F5CA65",
"gX c #FCD16D",
"hX c #FBD368",
"jX c #E9C375",
"kX c #F5C572",
"lX c #F6CB72",
"zX c #FACD74",
"xX c #FCCD7A",
"cX c #F8C675",
"vX c #FCD273",
"bX c #FDD37B",
"nX c #F7D477",
"mX c #EBD671",
"MX c #FFE279",
"NX c #988F8C",
"BX c #B9B5AE",
"VX c #CEBE91",
"CX c #CABBAA",
"ZX c #BCC2B7",
"AX c #DBC590",
"SX c #FED483",
"DX c #FEDA83",
"FX c #F9D487",
"GX c #EBCC8C",
"HX c #C8C3A7",
"JX c #C2C2B4",
"KX c #C5C5B8",
"LX c #D5C6A8",
"PX c #F6FEFC",
"IX c #EBE8E6",
"UX c #E0E1D6",
/* pixels */
"<.:.>.<.5.,.,.2.:.} } :.=.} *.:.:.:.:.,.:.,.,.V.V.V.5.,.,. . . .C.F.6.5.3.4.7...2...C.6.F.6.F.V.5.5.5.6.4.C.C.Z.L.Z.4.4.4...4...",
":.:.>.>.:.>.:.5.:.} =.:.:.:.=.3.2.2.:.<.<.5.6.A.A.C.A.5.5.6.6.C.n.U.T n.Z.n.;.6.D.7.4.7.C.t.U.A.L.C.C.L.H.C.S.L.S.C.V.V.4.4.,.V.",
">.3.3.3.<.5.5.9.7.5.5.5.5.3.:.:.2.3.3.5.5.3.:.=.:.2.:.2.2.:.4.C.R T < w D -  .n.<. .>.<.:.:.| | ,.,.2.2.,.,.4.,. . .} }  .}  . .",
"*.*.*.=.>.5.5.3.:.>.:.>.3.3.>.3.3.>.3.>.>.>.:.2.=.:.:.:.:.} | 2., . .   .   - + 2 ;  .n.4.4.Z.Z.V.4.5.V.2.2.4.2.2.,.4.,.,.} :.:.",
">.=.:.:.<.5.<.<.:.:.3.>.>.5.5.5.A.H.P.P.P.P.H.D.H.A.A.S.}.(.P.(.R . 3 @ + + 3   . 3 , - m.A.| S.J H J J | | =.} :.:.,.,.,.:. .:.",
"0.>.:.2.V.C.C.7.A.P.H.A.A.A.A.J.A.L.}.}.Y.I.A.5.:.2.,.A.L.P.P.I.D   , K F N c ; +     X R (.J.A.J J } } } :.5.5.,.<.5.V.5.5.<.:.",
":.} :.2.C.S.S.P.H.P.P.P.P.P.I.^.I.I.I.I.T.T.I.L.H.P.I.T.Y.P.P.^.g   D z M F z N c < - . < D.D.A.P.P.P.P.H.H.P.H.L.A.A.A.V.V.2.,.",
"A.6.C.P.Y.S.L.P.P.P.H.P.P.P.P.I.H.L.H.H.U.L.L.H.H.P.L.L.L.A.H.P.k + M S b . + d z V K v G ;.Z.L.7.7.A.A.A.A.A.A.7.5.<.:. .} } } ",
"S.C.S.S.H.I.}.}.}.}.I.T.T.}.oXoX}.}.OXOX X X}.I.|.}.R.T.!.Y.Z.K.- , B A O NXIXIXM.z C n X.P.4XA.P.A.A.V.5.3.5.6.V.,.:.:. .:. .1.",
"|.S.D.C.C.A.D.H.7.A.J.D.H.H.D.A.D.J.D.<.<.G.S.0.7.7.A.A.6.P n Z * ; K b NXPXPXPXPXR W T 4.J.9.I.A.A.A.H.P.L.H.A.S.S.S.S.V.V.A.S.",
"<.1.1.1.1.*.*.*.=.=.<.<.:.1.*.*.Y J J J J Y Y Y Y } :.*.} F ; ; , N M c CXPXIX;XUXBX3XY.I.R.U.H.P.H.C.H.P.I.L.L.S.D.H.D.A.5.A.S.",
"D.D.7.0.D.8.3.0.<.1.:.<.G.<.<.,.>.>.1.:.>.>.>.>.<.*.1.*.:.H > o < n M v CXPXIXO CXUXL.Z.n.^.E.R.I.I.U.C.P.Y.Y.Y.D.A.A.A.A.A.A.5.",
"(.Q.8.8.r.9.3.9.C.S.S.L.P.P.|.|.|.oXoXY.Y.|.}.T.D.A.D.S.P.S.F.> > A A B M.UXPXIXCXBX3XF F.jX:X).T.T.I.I.T.T.T.R.A.7.7.7.A.7.5.3.",
"'./.!.Q.Q.Q.t.8.8.^..X'..X@XyXyXiXyX:XoX+X+XeXyXfX1X@X*X1X1X<Xc b N c b n M.BXNX: M.ZX;X_.|.(.y.I.I.Y.I.}.T.T.I.J.H.J.7.7.6.6.3.",
"_.(./.'./././.(./..X'..XXX@XR.S.n.L F F A A F E  .F.<X>XOX XT.F Z c F n z v m l z z R  .K.W.t.E.K.K.I.^.^.^..X^.`..X.X^.!.K.!.Q.",
"8.8.r.8.8.u.Q.Q.J.J.Q.P.7.L S b l c Z b B B A b m v S  .T.7XU.b b M m G.Z.P V Z D B M V.|.Q.T.u.`.`.].].].%X%X].XXXXXX.X.X`.'.`.",
"8.u.r.r.u.u.Q.Q.r.[.t.L A n Z b V Z Z v v n < m B c M c A G.E.F n V v u.{.[.9.V A b H P.u.!.K.r.I.t.F.....L P H H K P Q.r.q.u.H.",
"Q.u.r.Q.u.Q.r.u.i.G.F N b b F b M b F E P  . .P L v v M V q f q.Z c A A E L.[.A b l Z..XK.!.XX`.'._.c v n b N C ; > v G 2.9.r.6.",
"u.Q.r./.(.~._.[.G.M b A c Z b K  .H.i.-X0X{.&XOX[.n., z , 5 ` +.+ M > x b S K S b  . X/..X(.'.!.i.I.F V N S | %.-.U S l S 4.9.7.",
"p.(./.~./.Q.'.5.c Z l c b L P..X].OX(.(.t.J.I.!.E.A = - i u { | O F 2.m N B M M A R.`.r.^.r.r.K.}. .N L w.$.$.j.g.g.;.J N K t.J.",
"t.D.r.;.9.u.D.S c M A F F.@X[.^.!.J.(.~.u.].XX&X|.z s 0 w 5 { X.m ; P E.Y b C Z P.*X_.*X.XXX XL.L N X.c.z.d.d.e.O.h.l.;.H v C./.",
"8.J.9.t.9.'.G.v l R N n.fXXXXX*X/.XX#X#XOX%X2X5Xf.1 5 0 7 5 { | n m O T 6X:Xm.}.iX%XuXaXoXZ.H v N Z j.qXz.g.g.z.f.#.d.f.%.S E XX",
"8X8X*X*X$X1XI b S A N S :XyX.X%X5X*X X6XfX*X9Xh.t a 0 7 u 5 t &.K n S +.* X.2.n.n. . .H S c v A b H x.c.z.g.d.g.d.e.h.h.&.S F t.",
"9X].yX1X8XoXc D b M M c I.9X9X&XuX$X=X0X&X*Xh.f 6 i 5 0 f 0 5 g $.&.$.f - o o ; ; : > c Z B m x v w.c.c.l.f.k.f.j.O.O.e.| -.C P ",
"].XX X[._.G.v l Z A N  .6X X.X!.!.^.'.$X.Xg.! y a 7 X.s.O.s.` y 0 f 7 d S > Z m Z M c N v n F E F.l.x.j.O.#.#.e.f.f.O.d.e.@.m L ",
"`.oX|..X!.G.v A A C.c E [.].{.9X7XyXfX2X5XO.7 0 5 #.o.` o.{ h.f 5 y s 3XR.G.E I K F L  .n.S. X7XeX0XqXx.z.g.d.d.g.g.w.$.} a.V.J.",
"*X*X1XuX_.H.l b F `.J v oX7X*XfX1XdXpX%Xl.q u 7 f j.` f.X.f.g.s.i 8 N.8X2X8XiXyX,X1X1XyXaX7XXX X@X6XqXx.z.k.g.h.f.p.+.@.=.u.$X[.",
"'.'.'.`._._. .m B K. XG.I.9X@X.X=X%X@Xk.! y 0 y ` o.#.1 p f g.g.{ g i.D.9.:X6X,X6X7X7X7XyX>X,X2X%X6X0Xz.f.f.$.w.;.3.J @.;.$XOX].",
"_.i.(./._._.V.C b F.XXiX*X%X].&X$X Xk.W.i 7 0 6 1 s.$.f 4 t d.g.k.7.;.;.7.}.6X%X1XyXuX@X@X%X@X*X+X1X2X^.=.| @.@.@.@.| ;.i.=X%X].",
"9.9.8.8.r.q.D.M C m C.K.K.r./.Q.Q.t.k.q 6 9 7 7 q s.o.$.O.h.f.f.8.;.9.9.S.J.{.]..X.XXXXX%X%X9XXX*X9X1X*Xi.p.;.;.@.-.u.1XXX$XXX%X",
"/./.~.~.(.).~.Y.} G.].[.XX]._.%X.X5X{ u 0 0 a w u ! f.` { g f @X@X].*X%X).XX$X1X7X%XXXXXXX*X7X%X%XXXXXXX%X&XXX].@X.X*XrX XXXXXOX",
";.Q.u.p.p.i.p.i._.{._.OXuX].pX1X2Xj.a 8 7 a 6 7 i 5 _ g y j oX7XE.=X:X^.T.'.E..X.XOX&X>X@X*X*X*X{.>X*X%X@X*X*XXX9X*X#X XXXeX&X6X",
"7.P.$X(./.i.i.$X[.:X6XuXpXvXeX8XwXQ r a 0 7 0 i 8 w y h ;X9XpX2XpX>X:X+X>X@X@X>X1X1X@X1X>XyXyXpX2X2XuXuXuX>X1X2X1X1X>XOX@X@X*XOX",
"5X5X X{.i.K.|.|.}.i.(.t.r.6.;.A.) ( ^ ^ 7 9 6 w a q N.*XyXyXXX>X*X*X*X%X&X$X.X.X@XXXXX%X%XOX@X%X*X}.P.}.XX@X@X>X@X:X>X>X>X>X>X@X",
"&.d.d.d.d.g.g.g.k.).H.=.=.;.3.' / ) ( ^ ^ s a 9 6 t E.uX8X@XeXyX*X7X*X*X*X@X*X8X1X*X@X*X*XOXOX&X+XE.^. X.XXX@XXX+X+X>X>X>X+X@X@X",
"0 q f ! o.O.$.f.j.,X&X@X&X.X] / ( / / ( Q r 9 w e Q $ _ pXaXcXyXsXaXpX>X1XyXyXpXpXpXpXpXpXkXpXlXaXyXyXyX7X@X%X*X*X1X1X7X1X*X@X1X",
"a y i 5 u u 0 0 ` =X@X8X7X] / ( / ( ^ & # r # e % % ^ # _ jXhXtXrXaXaXaXaXpX1X@X>X>X>X>XeXeXrXpXyX1X*X*X%XXXXX'.%XXX$X.XXX.X.X.X",
"m.q p 7 0 w 7 y M.5X$X).m./ / / / ^ _ N.] ` ~ # r r & t r _ =X&X.XXX`./..X'.'./..XXXXXXX.X.X.X X.X.X.X.X.X.X[././.`.'.'././.!.!.",
"i.E.f 5 7 w w q K.u.).u.m./ ( / ^ & W.*X=Xi.(.W.! $ e $ e # B.).!.!.Q.r.r.Q.!.!.J.!.K.K.K.Q.r.r.H.K.^.^.Q.Q.J.D.r.r.r.r.J.r.7.J.",
".XOXg i 8 , M z n.~.U.<.D ( / ^ $ m.$X$XE. XeX@XyX` $ % $ - X.eXOX@XOX`. X'. X'.I.I.I.I.`. X X X.X'. X^.'. X}.'.I.P.K.^.J.J.I.^.",
").<X` 9 h d D M > Z F : o ( ( & ' 1X<X,XpXyXrX6X>X<XQ r = b G 1XrX>X+XOXoXOX:X>XpX1XOX1XyXaXyX>X,X,X,X,X:XE.oX<X:X:XOXOX X}.:X<X",
"OX6X#XR.zXE.H v m b V M z t # ' l.xXzXfXrXjXSX:X2XgXN.- > Z K yXyX1XeX>XyX1XpXpXpX,X2XpXkXpXpXlXlXlXzXzXlXpXsXlXkXpXpXyX>XOXoX:X",
"OX8X7XaXOXfXpXK N v z n S ` ' d.! h jXfXvXvX3XvXkX,XE O v > X.bXrX>X>X>X,X>XkX,X<X:X,X,X>X<XrXkXzXzXxXnXzXzXlXlXlXrXrX+X+XOXoX X",
"sXvXrXzXbXsXsXSX3Xm.n.R.jXhX$.d u p h B.N.;X<X;Xn.n z n c b 3XxXxXxXzXlXzXkXkXkXxXzXzXbXxXxXzXnXxXzXlXlXzXtXrXtXyX>X+XoX+X+XOX X",
"%X$XuX=X*X8X%X1X=XiXyXzXc.+.9 i 0 w 6 p 9 z C = : > b D l R.bXFXnXzXzXzXlXkXpXpXpXpXsXlXdXzXlXsXvXvXvXvXzXzXsXsXsXpXyXyXyXyXfXyX",
"p.p.t.t.q.;.p.a.;.0.;.d.o.5 7 7 a 8 a 8 q z c M n v B L oXhXmXbXzXzXlXzXlXlXlXkXsXdXsXhXsXdXsXgXdXzXgXvXgXdXvXgXvXvXvXzXzXvXvXgX",
"8X8X8X5X5X%X{.%XfXl.d.o.6 u s 8 8 a 6 9 g  .G L  .Z.|.fX7XkXtX7XsXfXpXdXsXlXsXsXrXyXrXeXeX7X7X7X7X7XyXyXfXiXiXiXhXsXzXzXvXvXdXsX",
"fXfXiXuXaXzXiXiXl.v.X.8 8 8 8 h j 8 5 5 ;XiX2XaXzX6X8XyXfXuXpXdXdXdXsXsXlXiXsXiXgXdXpXrXeX7X@XXXXX%X6X%X7XyXsXfXyXfXdXzXzXzXdXyX",
"2XaXaXdXaXaX9Xl.d.o.y p f M.wXDXmXg NXN.hXvXxXmXlXsXsXlXvXbXbXSXxXnXzXvXnXvXnXbXlXnXnXnXnXvXmXsXsXsXsXsXdXsXyXyXyXyXyXsXlXzXzXdX",
"xXgXiXzXxXxXbXhXO.h B.6XDXDXDXvXvXvXDXMXbXbXDXnXDXSXbXDXDXDXFXFXFXDXDXSXbXbXbXnXbXDXbXSXbXSXbXbXbXbXbXbXbXbXvXzXvXvXzXpXaXpXpXpX",
"bXgXzXvXbXbXFXDXGXbXMXnXSXdXhXDXSXbXiXxXFXnXDXFXSXbXSXDXFXSXSXFXSXSXbXbXSXSXDXSXnXxXvXbXbXbXbXbXzXnXbXbXbXbXbXnXdXdXdXlXdXzXvXvX",
"bXzXlXzXzXdXvXbXDXdX,XnXnXFXhXvXGXnXbXSXbXnXnXbXzXnXbXbXbXxXzXxXxXxXxXvXzXzXlXsXvXzXzXzXzXzXdXsXlXzXvXvXzXlXkXpXyXaXpX1X1X>X7X*X",
"yXaXyX@X@X6X@X+X X3X,X%X<X6X*X1X7X%XuX*XXXyXuXyXrXrXrX>X@X@X@X@XOX+X+X@X#X X X+X.X X`.I.^.`.`.E.T. XoX X}.T.I.^.I.I.P.P.P.I.^. X",
"K.`.#X'. XXX%XOX9X=XoX+X XQ..X^.$X~.r.r.|.(.OX+XXX X X}.}..XOX*X+X.X X'..X X`.^.K.^.E.^.I.^.I.K.^. X X.X}.^./.~.^.^.^.P.J.J.J.J.",
"!. X'.].@X@X%X:X XE./.&X|.i.'.'.K.'.K.H.`.i.'. XE.}.I.I.I.}.}.|.}.P.P.^..X.X.X X.XXXXXXX.X X X^. X.X}.^.!.J.r.r.r.r.J.r.r.r.7.9.",
"@XoX XXX:XoX^. X}.K.P.}.^.U.T.|.E.^.!.^.E..XOX>X>X>X,XoXoX}.}.^.Y.T.}.}.I.P.P.T.I.^.I.I.I.I.}..XoXoX}.^.I.J.r.r.r.r.J.r.J.J.Q.K.",
"oX.X$XOXOXOX.X.X.X.X.X.X X$XXX{._.]./.[.^.'..X.X&X|.OXoX.X^.(.`.].OX:XOX`. XOX-X XOXOX*XOX+X+X+X X X`. X.X.X'.~.K.!.!.`.K.r.r.r.",
"XX@X>X<X+X@XOX<X,X3XjXVXVXVXHXCXCXHXCXHXHXHXHXHXHXHXVXAX;X;X<X<X'.@X:X+X#X#XXX>XXX@XrX>X@X@X<XeX+X+X@X@X>X1X+X+X X XI.H.t.U.I. X",
"@XrX1X2XuXkXGXVXJXJXKXZXJXJXJXJXZXZXZXZXJXJXJXZXZXJXKXKXKXKXZXKXLXjXtXaXcXaXuX7X'. XxXzXlXnXsXsXsXsXyXpXlXzXnXlXlXsXpXpX>XpXsXsX",
"zXxXxXcXzXSXLXKXZXJXZXZXZXZXZXZXJXJXZXZXJXJXJXCXZXZXZXZXZXZXCXZXLXAXpXiX2X2X@X#X'. XxXFXnXjXlXlXlXrX+X+XrXnXlXjX<X<XtXvXzXnXbXzX",
"bXSXSXbXbXDXDXFXGXGXGXLXLXLXKXKXJXJXHXHXHXJXHXHXHXLXLXAXAXjXjXjX%X1XpXpXaXeX@X].%X*XpXDXSXnXnXnXbXdXyXfXvXDXSXFXeX+XeXpXpXlXbXxX",
"bXbXbXSXFXFXDXSXDXDXDXDXDXDXbXSXSXSXDXFXSXSXxXzXiXaXaXeX7X8X7X7X9X1XyXyXyXrXyX*X*X*XoXbXSXnXnXlXdXdXfXeXpXlXlXzXnXfXrXpXsXlXbXSX",
"SXvXvXbXSXFXFXFXFXDXSXbXbXSXbXbXzXxXxXxXzXlXzXlXpXsXpXrXpX,X,X1XrX,XyX*X>X>X1X>X*X1X+XrXlXrXeXeXeXrX7X6X>X>X7XeX+X+X@X7XyXpXpXtX",
"aXtXtXsXzXlXnXnXbXbXsXtXlXlXlXzXnXsXsXsXsXsXsXsXdXdXgXvXvXgXzXgXdXiXiXvXnXgXdXnXzXvXbXsXvXgXvXvXnXvXnXlXzXbXvXvXvXvXsXyXpXpXjXtX"
};
