/* XPM */
static char *a3JhdG9zKyUyODElMjk_[] = {
/* columns rows colors chars-per-pixel */
"64 64 246 2 ",
"   c #130A0D",
".  c #170D18",
"X  c #1A121A",
"o  c #09060D",
"O  c #230D1A",
"+  c #250D15",
"@  c #340D18",
"#  c #271719",
"$  c #371819",
"%  c #2D0F0A",
"&  c #2A211D",
"*  c #37241A",
"=  c #37321F",
"-  c #1B1322",
";  c #1F1927",
":  c #1D0D28",
">  c #241524",
",  c #281926",
"<  c #371924",
"1  c #341C33",
"2  c #2B2227",
"3  c #34242B",
"4  c #3A2B2B",
"5  c #382825",
"6  c #38332D",
"7  c #3B2A3C",
"8  c #3A2B34",
"9  c #3C3538",
"0  c #431917",
"q  c #45251B",
"w  c #59371E",
"e  c #46182C",
"r  c #442728",
"t  c #552C2C",
"y  c #483529",
"u  c #58362B",
"i  c #452B37",
"p  c #552B38",
"a  c #453C3B",
"s  c #473537",
"d  c #533B3B",
"f  c #583637",
"g  c #64332D",
"h  c #663739",
"j  c #6C3236",
"k  c #47433C",
"l  c #59433A",
"z  c #664639",
"x  c #79463C",
"c  c #3E3247",
"v  c #3D2D45",
"b  c #4D3C44",
"n  c #483747",
"m  c #583745",
"M  c #4A3954",
"N  c #51334A",
"B  c #643744",
"V  c #6C3947",
"C  c #4C4345",
"Z  c #524344",
"A  c #53434B",
"S  c #5A444C",
"D  c #554B4B",
"F  c #594946",
"G  c #5C524B",
"H  c #5D5B4B",
"J  c #5C5744",
"K  c #554951",
"L  c #5A4B52",
"P  c #5C4B5A",
"I  c #584458",
"U  c #5D5354",
"Y  c #5E5C53",
"T  c #4F4356",
"R  c #674948",
"E  c #764948",
"W  c #635D4D",
"Q  c #6A5C4C",
"!  c #675649",
"~  c #78594A",
"^  c #674957",
"/  c #754B55",
"(  c #635455",
")  c #645D52",
"_  c #6A5D54",
"`  c #655D5A",
"'  c #695D5A",
"]  c #675459",
"[  c #735C55",
"{  c #725D5B",
"}  c #795758",
"|  c #5C604E",
" . c #5F6251",
".. c #65614E",
"X. c #6A624E",
"o. c #67654B",
"O. c #666252",
"+. c #6A6454",
"@. c #6C6A55",
"#. c #65635A",
"$. c #6C655A",
"%. c #6E695A",
"&. c #656A56",
"*. c #726355",
"=. c #726A56",
"-. c #72655C",
";. c #726C5C",
":. c #796C5C",
">. c #7A6358",
",. c #74715D",
"<. c #79715F",
"1. c #6F6C58",
"2. c #5B4862",
"3. c #5F5361",
"4. c #674D66",
"5. c #6A5766",
"6. c #735463",
"7. c #765A66",
"8. c #6C5B74",
"9. c #765B74",
"0. c #724B60",
"q. c #6D6461",
"w. c #6E6A62",
"e. c #6A6765",
"r. c #726663",
"t. c #7A6463",
"y. c #736C62",
"u. c #7A6B63",
"i. c #756C6A",
"p. c #796A6B",
"a. c #757162",
"s. c #7B726B",
"d. c #787166",
"f. c #7C647A",
"g. c #7C6B7C",
"h. c #796774",
"j. c #687160",
"k. c #843E3B",
"l. c #8C4C3C",
"z. c #A2433F",
"x. c #8F3F4C",
"c. c #86484C",
"v. c #944648",
"b. c #86594D",
"n. c #954C55",
"m. c #865958",
"M. c #985555",
"N. c #824D53",
"B. c #A45757",
"V. c #A14B4B",
"C. c #896559",
"Z. c #936656",
"A. c #936D53",
"S. c #A27354",
"D. c #B46E5B",
"F. c #875D63",
"G. c #945C68",
"H. c #866867",
"J. c #936869",
"K. c #88746D",
"L. c #987668",
"P. c #82667B",
"I. c #836B7C",
"U. c #896A75",
"Y. c #877579",
"T. c #977676",
"R. c #966E7A",
"E. c #A7686B",
"W. c #A77968",
"Q. c #A97778",
"!. c #B5696D",
"~. c #A05E68",
"^. c #C0796D",
"/. c #99847B",
"(. c #8A827B",
"). c #A88679",
"_. c #B48C7C",
"`. c #B88A77",
"'. c #B8927B",
"]. c #B5896B",
"[. c #C18D78",
"{. c #C4967A",
"}. c #CD8973",
"|. c #7A6982",
" X c #7D6682",
".X c #836B82",
"XX c #886C84",
"oX c #897786",
"OX c #977A87",
"+X c #927B93",
"@X c #AE7C8B",
"#X c #C67F8F",
"$X c #968887",
"%X c #9A8695",
"&X c #9B938D",
"*X c #A78987",
"=X c #A79589",
"-X c #BA9584",
";X c #A78796",
":X c #A89399",
">X c #B89899",
",X c #B58592",
"<X c #9C85A3",
"1X c #A78DA3",
"2X c #A795A7",
"3X c #B597A8",
"4X c #AD96B3",
"5X c #B799B4",
"6X c #B38CA1",
"7X c #B6A7AA",
"8X c #B9A3B5",
"9X c #AEA0A0",
"0X c #B7A49E",
"qX c #C48A8A",
"wX c #C79687",
"eX c #C39795",
"rX c #D58B89",
"tX c #C3A18D",
"yX c #D1A288",
"uX c #C797A9",
"iX c #C698B5",
"pX c #D79AAC",
"aX c #C6A8A9",
"sX c #C6A8B8",
"dX c #C9B7B7",
"fX c #D6B9B8",
"gX c #CDABAE",
"hX c #ECB0B2",
"jX c #D2C1BB",
"kX c #E8CCBE",
"lX c #F6CCB7",
"zX c #C9BAC4",
"xX c #D8BBC4",
"cX c #CEAAC5",
"vX c #E4BAC4",
"bX c #D7C4C8",
"nX c #D6C5D3",
"mX c #E9C9C7",
"MX c #F5D8CA",
"NX c #F7DBD6",
"BX c #EECDCE",
"VX c #FAE3D9",
"CX c #DCCDE1",
"ZX c #F2DBE2",
"AX c #FBE5E9",
"SX c #FFF1EA",
/* pixels */
";.%.%.$.;.O.%.;.+.;.a.+.=.;.=.+.@.=.=...%.,.;.+.;.%.%...%.;.%.+.*.:.y.H >.>.@.X.*.=.u.U j.j.-.+.:.+.$.$.;.%.%.O.+.;.;.+.+.=.;...",
"%.%.%.) +.X.+.W +.+.=.W +.=.;.;.@.,.;...+.+.+.W +.;.;.W +.;.y.) -.$.@.+.+.:.;.=.=.=.$.w.&.&.;._ W ) +.) +.;.:...+.;.;...+.=.=...",
";.;.a.+.+.+.;.+.%.+.+...+.+.=.=.;.;.,.+.+.+.;.+.;.;.;.+.%.y.y.O.%.a.,.W ) -.;.;.;.%.,.W &.,.,.X.%.%.;.+.%.;.;.+.+.;.;.O.@.,.,...",
"$.) O.) O.W O.W +.+.+.W +.=.;.:.=.=.=...+...+.W W W +.W O.O.O.H  . .&...' p.y.;.p.:.<.o.H @.W W +.) O.W +.W +.W O.+.+.W ..+.X.W ",
"%.+.+.W +.+.+.W W +.+.W +.:.;.;.;.;.;.O.+.+.+.W +.+.+.W +.+.+.O.&.| %.{ ^ ] ^ ] I R r l =.+._ _ +.+.+.O.+.W +.+.+.+.+...+.+.+...",
";.;.%.O.+.,.;.O.%.;.;.O.=.;.:.%.%.%.;.W +.;.;.O.+.;.;...+.;.;...&.Y _ Q Y.R.R.OX@XR.t t l s.u.Q $.;.;.O.+.+.+.W +.;.;.W +.%.+.W ",
"%.,.;.+.%.,.;.+.+.;.;.+.%.;.;.%.;.:.;.+.;.;.;.+.;.;.a.+.;.;.;.O.@.+.R OXmXmXbXaXpX!.B.c.r l s.&.+.;.;...+.+.;.+.;.;.;.+.+.;.;...",
"+.+.+.W Q +.+.W W +.+.W ....O...O.W ..W O.O.+.W W +.+.W +.+.+.W +.! ^ BXMXNXNXvX~.x.x.qXR.5 C Y +.+.) W +.W W ..O.+.+.W +.) X.W ",
"%.+.+.W +.%.+.O.+.+.+.W +.+.+.W +.%.+.W +.%.+.W +.;.=.+.+.+.+._ { ^ *XZXBXVXmXQ.N.n.@XiXsX7., $.$.+.+.W +.+.O...+.+.+.W O.+.%.W ",
":.;.;.W +.+.;.W +.;.;.W %.;.;.O.+.;.;.W +.;.;.W ..+.$.W +.%.;.y.{ ^ 3XfXVXNXmXl.M.qXcXiXcX%X4 #.+.;.a.O.$.;.,.:.;.;.;...+.;.;.W ",
";.;.;.+.+.+.+.+.=.;.;.W %.;.:.O.+.;.;.O.%.;.;.X.+.;.$...+.;.%.;.{ aXjX0XjXgXS.z.k.!.iXiX1Xb 2 j.$.;.,.W +.%.=.$.;.:.%.+.+.;.;.X.",
"+...+...+.+.+.+.O.+.+.W +.O.O...+.O.+.W W ..+.W +.+.X.H +.;.:.$.] SXSXfXH.b.l.D.!.#XiXiX8X8X(.k $.+.+.W +.=.;.%.%.%.%.W +.+.+.W ",
"+.+.X.W +.+.+.W +.+.%.+.+.+.+.+.$.) +.O.+.@.+.W +.+.+.W +.=.,.;.D C q.bXf R A.u g V uXcXcX5X7XX %...+.W %.;.;.;.;.;.;.+.+.+.+.O.",
":.,.:.X.;.;.;...+.%.;.) ) ..O.) +.O.+.) +.:.;.W +.;.;.+.%.=.,.%.#.  + R.fX>Xf ~ % E 6XXX3X7.bXy %.,.=...+.;.;.;.;.%.;.O.O.) O.) ",
"%.:.;...=.;.;.+.=.;.;.+.%.$.%.+.+.+.%.+.$.;.y.+.+.%.;.+.%.=.,.@.O.# p ;XZXmXL.Z.j !.@Xp U.;XH._ +.;.,...+.;.;.;.;.;.%.+.$.+.$.+.",
"+.+.X...+.) O.) O.+.O.H O.O.) O.$.) O.+.+.O.+.W O.+.+.W X.X.+.o.+.-.;XJ.NXmXH.@Xn.x.x.B B m 5 >.+.O.+...+.+.....+.W O.H +.O.+.W ",
"=.+.;.+.+.+.$.$._ $.$.) O.O.@.O.#.#.$.$.+.W X.+.$.$.$.) -.{ 5 $ y u.N.m.).).E c.k.x.p B m B m.t q.s.q.$.O.O.%.W *...&.&.$.+.$.$.",
"+.X.+.W Q ) _ ) ;.y.%.+.%.a.%.O.#.) +.W O.W X.X._ d.>.{ q l Q C.$ } m.h h u E E x.V j B p J.fXj R , k $.y.%.%.o.+.W  .O.) W ) ) ",
":.=.;.+.%.+.$.$.+.;.y.O.+.%.,.+.-.+.-.+.;.@.@.) =.>.y y ~ L.A.-Xq } t *XfXfXQ.t n.B B p m aXhXk.Z.H.s y a p.y.+.-.+.+.%.%.+.$.$.",
"%...W W +.....W ..+.+.W O.+.+.G ) ..+.W W W _ =.y f ! *.C.W.A.'.g h } K._.).J.E B m m R eXNXhXl.Q.NX0X=X} s -.) +.W _ W ..W +.W ",
"%.$.+.W +.@.o.....@.+.H _ $.-.#.&.O.&.O.$.q.' ! u L.A._.Z.b.Q.l.g j Z.Z.b.~ A.H.B N i >XMXlX}.D.rXNXNXmXqXE s $.+.+.=.Q +.+.$.H ",
";.y.;...@.=.,...@.;.,.+.$.i.i.Y O.) ) &.w.y.u.*.= ).A.C.Z.`.b.Q.b.j n.E M.z A.>.e e ,XNXlX}.^.rXMXMXAXxXqXE.t s ;.=.:.Q =.;.;. .",
";.:.,.X.@.,.,...@.%.%.' r.q.U b Z C D c 6 3 ` r.& *.-X'.`.l.E.{.[.b.g j m.h C.t N @XpXrX}.}.rXBXNXBXaXeX^.rXc.5 :.=.;.+.;.y.%.&.",
"$.) O.W ......| ) $.q.` K A 5.h.f.8.8.T 9 X Y ) ! 5 l z q % x `.{.`.m.h B f % e 6XuXV.z.V.B.uXvXgXF.7X@XB.rXM.q >.X.O.) ` O.O.H ",
"+.+.%.W +.$.+.) $.q.5.D 3.g.I M T T T 1 ` +.+.W *.' $ Z m + < R `.{._.m.H.7.t.,XeXn.v.V.v.~.sXOXi } jXfXQ.n.v.g y $.#.#.&.&.$.W ",
";.:.+.O.;.-.y.y.h.U A r.g.|.P M M c ; M q.y.y.+.-.t.3 %X4X^ 1 @XE A.-X-X:X6X;X^ N.v.v.B.#XuX;X, + K.MXAXvXQ.v.g y #.O.) &.%.:.Q ",
";.;.a.$.W q.p.U b 5.+X2X2X2X4XoX|.T , 5.i.y.%.O.y.r.< 2X5X1X0.5X6XV B 0.1XV 5.OXp V j j V V n   < T.VXNXBXiX@Xg 6 e.w.$.@.=.-.[ ",
"+.+.' ) r.U Z ] h.h.5.T h.<XnXCX8X2X%Xg.4 & ) @.) 4 2 %XsX5X9.3XsX3X+XV V 9.9.P.B F.G.m.F.i . i ] ).BXNXnX3XsXF.s #.) W O.X.+.W ",
"$.%.$.Z b ] I.g..X.Xf.I n n M g.2X2XC & ! :.* % $ d m ^ 6X3X6X6.bXVXMX&X1 n K m g h V V N O i h.U.R.Y.:XBX5XsXOX2 C -.) +.W +.X.",
"-.$.U ( p.h..XP.f..Xf.f.7 # 9 b K 3 9XY.fX/./.).).J.R f r p *X/ mXMXNXBXbX2X3X;XN.n.V @ O , I OXdXdX;XP.OX3XsX%X5 6 s.) $.W X.W ",
"y.q.D ( %X%Xf.P.XXf.XXb O U i.` e.3 dXK.fXgXkXL.)._._._._.Q.E z tXlXkXMXNXNXBXqXM.c./ i > 9 Y.7XbX2XI.6.m F.fXAXs.9 s.Y %.&.%...",
"$.#.q.A I.8X+Xf..Xf..X7 Z q.' ) $.4 7XdXjXgXmXy % $ ~ -X-X-X'.'.tX-X].mXMXmX>XF.c.j @ i .X7XVXsXP f.P.XX0./ xXAX$X2 i.`  .| ....",
"y.` q.U U %X4X%X|.h.g.6 D i.$.) -.-.6 O.H.H.J.$ + + + # d ~ C.Q.'.'.].{.wXL.H./ $ @ i <X8XZXnX:X] I XXP.5.7.OXL y a $.' $.@...W ",
"r.r.s.' L 5.$XnX2Xg.Y.U D r.q.Y _ ;.;.= y l f d 3 , , + # $ $ 0 l b.A.W.{.Q.y # , M 7 8.CX%Xs.I.8.I 5.n n 7 # # Z G $.) +.;.@...",
";.;.;.$.q.L ] %XnXzX2X2XA 8 6 3 # ' a.O.@.o.:.+.$.y.p.5 % k.n.k.0 @ 0 0 h p + > n n M M 2.8.c c n c c 7 , C i.Y #.+.;.X.X.<.,.X.",
"@.X.W W y.` D ( $XzXnXbXzX:X$Xh.A U #.O.&...| W +.$.! r N.n.v.V.u f t f e @ , 3.M M M M c v X X - , 2 9 Y e.#.O.$.O.......X...W ",
"@.o.o.&.+._ $.r.D b A K T K A n q.#.$.#.%. .+.q.$.' < ! Q.B.B.D.l.b.x J.G.t i <X5.<X2.2.M O r d # r :.! t.' _ +.$.) +.#.$.) +.+.",
"@.z o.o.X.W $.( $.r.i.U r.e.e.q.) G $.) #.) #.( 5.S A i $ E.E.k.`.].A.{.qXt i oX8.4X8.+X1 8 L.tX).b.z R ~ R [ +.) ) $.) $.) +.O.",
"%.+.1.&.$.+.;.+.$.d.$.q.$.y.a.+.%.O.;.$.$.' ' S m h.g.I n < @ g '.{.S.{.`.u   , P +X4.5XM 1 -.).'.wXwXW.z q r >.' r.$.$.#.O.%.O.",
"@.O.O.| $.) ) _ +.+.+.W O.+.O.W | +.! _ -.' S h.I..X|.|.n a < f {.[.].{.`.u + # 1 : c <X X. + $ E ].W.C.L.l * [ _ _ ) _ #.O.+.W ",
"w.) #.O.$.$.+.W @.+.@.W X.@.+...&.@.+.) t.d 7.Y.P.P.XX|.M M N h ].].S.[.`.f + , P I g.7 8 2 8 i f h z ! ~ k k ..+._ @...+.O.+.+.",
"#.O.#.O.@.%.,...@.=.=.X.@.=.,.,.@.=.:.' ] F t.U.I.XXXX XM v N f {.}.S.{.qXp + > T +X2X4X2X|.e.n i H.Q & % l =.,.;.%.%.O.+...+.W ",
"%.O.@.O.%.@.@.X.%.;.;...+.+.%.=.=.=.=.+.R R } } 6.F.7.M v > O l {.].S.}.`.t > : 2.5X8X4X2Xh.Y.D 5 s.$.$.o.&.w.%.,.%.,.O.+.+.*.Q ",
"%...O...O...+...X.+.+.H +.;.;.=.=.=.:.{ d /.b.E E E ^ < - - X t ].].b.'.>Xf > : 2.4X4X8X1XI.XX7.k O.$.O.O.j.y.%.%.&.%.O.+.) +._ ",
"@.....H X.+.+...+.+.$.W $.;.;.%.;.:.r.' f m.).[.'.).F.m A ; 2 5 l l z /.L.q . - P 4X5X5X4X|.9.OXs.* ;.W +.u.y.;.a.y.y.+.%.O.$.) ",
"@.,.,...@.;.;.+.%.;.y.O.$.;.;.=.;.u.y._ l ~ M.Z.Z.h f i 7 2 5.q._ =.*.R l 5 6 6 b OX;X6X;X9.^ H.K.5 -.-.+.;.$.y.y.%.w.O.$.) +.H ",
"@.,.a.O.+.y.;.$.$.y.;.+.=.;.=.,.%.@.$.$.t.R b.b.b.f p # > 3 D #.=.:.=.+.:.H.i.Y l =XT.J.T.C.b.tXK.4 2 ! r.u.=.=.%.=.;.X.%.+.e.#.",
"+.+.+.W +.O.O.) +.+.+.W W X...W o.o.&.H $.>.l f t r , b N i 4 J W o.X.Q _ _ $.J y ~ '._.-X).'.).7.8 2 s ! W X.W o.W +.H +.Y &. .",
";.$.%.+.$.+.$.W +.+.+.O.+.;.%.O.O.@.&.| | @.$._ 5 $ F m i } p.# -.-.+.W -._ =.Q o.q ~ L.'.C.b.J.5.v P P 5 a...W %.X.+.+.+.$.#.Y ",
"+.+.$.) +.;.,.X.+.;.;.W +.+.+.W $.=.,.O.@.a.$.' F m R.$X6.*X7.5 F Y s.U +.<.-.+.z * u m.L.b.C.R n n 5.A a +.;.+._ W +.) +.%.a. .",
"$.%.;.O.+.;.;.+.%.;.;.+.$.%.;.+.*.:.r.) $.i.-.-.-.R K.*X:X0.N n # 2 i.#.%.y.;.+.,.-.G F d r m p N 6.7.' J 5 Y.! -.$.$.$.@.%.,. .",
"%.+.+.W +.+.+.W O.+.+.W +._ +.) W >._ ) ' ' $._ *.>.R { R ^ I N c & Y Y #.O.O.| O.W ) y.( i 3 i 7.Y.U.u.d * ) _ $.) #.) O.+.O.H ",
"$.+.O.O.+.O.+...+.+.+.+.+.O.+.+.$.) $.@.O.;.,.+.! A S b S I.oXI 6 2 e.Y $.&.&.| O.,.&.H %.#.9 s D S 7.] P T 8 #.e. .#.&.%.+.X.o.",
";.;.y.O.%.;.,.+.+.W O.O.+.) ) ) #.) #.W X.@.l z $ $ < m 7.7.] I.K 2 h.e.#.w.w.O.&.@.@.&. .o.$.) 4 6 7 2.|..XL 2 w.#. .O.O...Q Q ",
"%.;.y.+.+.%.;.W %.O.O.+.%.+.$.$.$.-.>.X.=.x y z R E f f p p m 0.5.# C G %.a.a.O...a.%.O.j.(.(.a.s.L 8 :X1X+XXXa ) ` #.#.%.X.X.~ ",
"$.+.+.) +.+.+.W +.+.+.W +.+.O.W +.W W @...z >.C.C.m.E p p B B p i + X X G D G O.%.&.%.$.&X/.&X$Xy.F 7.OXP.R.T.U.Z G #.) +.X.o.o.",
";.) $.+.+.=.+.W +.+.+.W +.O.+.+.@.| +.` ( OX;XOX%X@XU.} / 6.0.6.5.> > - X . O C C c C &X&X&X=X$Xy r C.z b.b.E } R d r.! #.O.%.H ",
"+.H O.) +.;.a.;.;.;.;.+.+.W O.O.&.| $.q.` g.oXXXXXP.7.5.5.6.S S b X X ; - ; - . . . 2  .#. .) F + 0 ~ `.yXwXwXC.R d _ $.%.a.w.&.",
"y.+.%.+.+.+.%.%.%.;.;.+.+.+.$.+.%. .$.+.D D F A L L S A A F a a b k   X . . ; - ; - . - . . X   5 } _.-X].`.wX_.E < y -.$.w.$. .",
"+.W +.W +.;.;.;.;.;.%...+.O.+.O.O.H +.W +.+.$.$.' w.e.#.#.y.,.,.a.w.C 6 9 9 o - . . - . . . . o 5 Y.=X-XtXtXwX*X>.r 5 $.&.&.#.Y ",
"y.+.$.+.%.;.;.;.;.%.;.W O.O.$.H +.@.+.W $.$.q.) q.#. .#.%.,.@.,.,.%.a.%.j.#.a C k 9 C 9 9 C k a D s.s.(./.(./.K.:.Q F ) ) #.+.Y ",
"$.H +.W +.;.;.;.;.;.;.+.$.y.;.+.+.,.,.Q $.:.y.+.#.Y  . .+.;.@.%.@.%.%.+. .Y e. .e.#.j.#.a.a.w.#.a.O.i.) #.d.$.W *.u.:.+.$.y.;.W ",
"y.+.$.+.+.;.;.:.%.;.;.W %.y.y.O.#.,.;.+.-.-.;.+.@.&.%.&.+.;.:.:.,.:.;.Q ;.;.#.&.%.O.O.O.$.w.y.+._ :.u.+.$.w.%.+.$.-.y.-.$.;.a...",
"$.W +.) W O...W W W ..H ) +.+.H O.#.) W _ _ ..W ..H ..H X.Q _ ! W +.W ! X.W ..H ....O...) &.+.! X.X.W W O.O.O.H +.+.) W W +...W "
};
