/* XPM */
static char *ae7e08c9104f439db055a156007f2ce7sOjd1d48BMV1lUoW[] = {
/* columns rows colors chars-per-pixel */
"64 64 248 2 ",
"   c #050201",
".  c #0C0201",
"X  c #040A03",
"o  c #0D0A02",
"O  c #03040A",
"+  c #080A0B",
"@  c #130302",
"#  c #1B0403",
"$  c #130B04",
"%  c #1D0B05",
"&  c #150C0B",
"*  c #1B0C0B",
"=  c #19060B",
"-  c #15110B",
";  c #1B130D",
":  c #1B170A",
">  c #160D11",
",  c #091715",
"<  c #161312",
"1  c #1C1312",
"2  c #1B1717",
"3  c #0A120B",
"4  c #230C0D",
"5  c #24040A",
"6  c #25120B",
"7  c #260E12",
"8  c #380C16",
"9  c #241414",
"0  c #2A1414",
"q  c #231A14",
"w  c #2A1B15",
"e  c #2B141A",
"r  c #251C1A",
"t  c #2A1C1C",
"y  c #25151B",
"u  c #33151B",
"i  c #321C1D",
"p  c #3A1B1D",
"a  c #381418",
"s  c #2B231C",
"d  c #272319",
"f  c #32231C",
"g  c #32291C",
"h  c #39311E",
"j  c #191B23",
"k  c #041D22",
"l  c #281D23",
"z  c #341D22",
"x  c #3C1D22",
"c  c #341625",
"v  c #072926",
"b  c #1A2629",
"n  c #152F36",
"m  c #2D2323",
"M  c #2D2923",
"N  c #262628",
"B  c #342423",
"V  c #3C2425",
"C  c #332B24",
"Z  c #352D2A",
"A  c #3B2D2B",
"S  c #3A2827",
"D  c #3B342C",
"F  c #373227",
"G  c #282C33",
"H  c #3B2A31",
"J  c #2A3837",
"K  c #3C3532",
"L  c #373937",
"P  c #203526",
"I  c #112519",
"U  c #421A1D",
"Y  c #440B11",
"T  c #42201F",
"R  c #471E25",
"E  c #581929",
"W  c #442C2E",
"Q  c #462529",
"!  c #53262D",
"~  c #44332B",
"^  c #4B2C32",
"/  c #462D34",
"(  c #592D37",
")  c #433534",
"_  c #4C3434",
"`  c #433B33",
"'  c #4C3C35",
"]  c #4C343A",
"[  c #443C3A",
"{  c #4B3C3B",
"}  c #42363A",
"|  c #533A3B",
" . c #563438",
".. c #65363B",
"X. c #762D3C",
"o. c #364439",
"O. c #4C4335",
"+. c #4B443B",
"@. c #48473C",
"#. c #55483B",
"$. c #343C46",
"%. c #493A44",
"&. c #583C43",
"*. c #643A44",
"=. c #773B48",
"-. c #294545",
";. c #374347",
":. c #385555",
">. c #394E51",
",. c #3C6468",
"<. c #2A5257",
"1. c #4B4442",
"2. c #494A46",
"3. c #5A4344",
"4. c #534B43",
"5. c #544C4B",
"6. c #584848",
"7. c #565145",
"8. c #595546",
"9. c #5C554B",
"0. c #5A574B",
"q. c #434C53",
"w. c #4D4B55",
"e. c #564A54",
"r. c #46595A",
"t. c #5C5353",
"y. c #575755",
"u. c #45534F",
"i. c #68484A",
"p. c #635D4D",
"a. c #6A5D4D",
"s. c #66544B",
"d. c #694D52",
"f. c #764D54",
"g. c #645E52",
"h. c #6A5D54",
"j. c #695958",
"k. c #7B5B5D",
"l. c #75575A",
"z. c #764B4A",
"x. c #586258",
"c. c #66614E",
"v. c #68614F",
"b. c #666152",
"n. c #6A6454",
"m. c #6E6956",
"M. c #65635B",
"N. c #6C6559",
"B. c #6E695A",
"V. c #666956",
"C. c #726555",
"Z. c #716957",
"A. c #72645C",
"S. c #726C5B",
"D. c #7A6B5D",
"F. c #74725E",
"G. c #495C65",
"H. c #585662",
"J. c #665D66",
"K. c #765D65",
"L. c #4A6567",
"P. c #56686A",
"I. c #596D74",
"U. c #587578",
"Y. c #4C6E76",
"T. c #6E6B63",
"R. c #696866",
"E. c #736D62",
"W. c #7A6C68",
"Q. c #776A67",
"!. c #767163",
"~. c #797265",
"^. c #7C756A",
"/. c #77716B",
"(. c #687777",
"). c #7A7577",
"_. c #6F6E6E",
"`. c #865B59",
"'. c #884B5A",
"]. c #84685C",
"[. c #865D64",
"{. c #886669",
"}. c #84736A",
"|. c #996A72",
" X c #867877",
".X c #907273",
"XX c #64817F",
"oX c #78857C",
"OX c #94867C",
"+X c #8B807A",
"@X c #5B7E85",
"#X c #657C85",
"$X c #7E7A87",
"%X c #857D87",
"&X c #A97A82",
"*X c #568384",
"=X c #688688",
"-X c #768889",
";X c #74918C",
":X c #698A95",
">X c #778B95",
",X c #6F999D",
"<X c #7AAAAE",
"1X c #7AC1C3",
"2X c #878689",
"3X c #968789",
"4X c #888B93",
"5X c #85959A",
"6X c #989696",
"7X c #88938B",
"8X c #AB8B94",
"9X c #AD9291",
"0X c #8FA391",
"qX c #B0A19A",
"wX c #999EA4",
"eX c #869AA1",
"rX c #B49BA2",
"tX c #8AA2A5",
"yX c #95A7AB",
"uX c #98ADB6",
"iX c #98B4BA",
"pX c #88ABB3",
"aX c #A7B6BC",
"sX c #B5ADAF",
"dX c #CBB3B3",
"fX c #C4909E",
"gX c #A7C0BD",
"hX c #D2C5BC",
"jX c #ACB9C2",
"kX c #9DBAC0",
"lX c #D7B8C6",
"zX c #F4BAC9",
"xX c #98C7C5",
"cX c #89CDCC",
"vX c #B3CED6",
"bX c #B3CBCE",
"nX c #BDD5E0",
"mX c #B4E1D3",
"MX c #C6C6CB",
"NX c #C3D9DC",
"BX c #DCD4D4",
"VX c #D8CECC",
"CX c #ECD5D7",
"ZX c #D5EAEE",
"AX c #F9E7E6",
"SX c #FCF7F8",
"DX c #F5E7EF",
"FX c #DADFE1",
/* pixels */
"S.m.m.m.m.v.Z.m.S.B.S.n.S.S.n.n.C.m.m.n.m.S.S.m.C.S.C.c.N.N.Q.R.x.T./.E.A.h.E.h.A.S.n.n.V.B.S.h.N.n.N.B.N.S.S.b.n.S.S.n.n.S.Z.c.",
"m.B.B.c.c.c.v.c.c.n.n.p.S.S.S.S.S.F.S.v.V.m.n.p.C.C.D.n.N.E.M.j.x.sXDXCXCX}.h.{.C.S.S.n.V.!.S.n.g.p.g.n.N.S.S.n.n.S.n.n.n.S.Z.c.",
"Z.S.F.v.n.m.B.n.m.n.m.p.n.Z.S.S.Z.Z.Z.v.m.V.m.n.n.S.Z.v.B.E.N.).6XwXBXSXSXhX{.dXN.n.D.n.V.V.S.N.S.n.n.n.n.S.m.n.n.S.S.n.m.S.S.c.",
"V.c.c.c.c.p.v.p.n.n.n.p.n.Z.S.D.Z.F.Z.c.n.b.n.c.v.n.a.p.B.8.y.%Xy.w.).MXSXCX'.fX+XC D.a.V.V.b.p.n.n.b.b.c.n.n.p.b.n.b.p.c.m.v.c.",
"S.m.n.b.n.n.n.n.b.v.n.c.n.S.S.D.S.S.S.c.n.n.n.p.a.S.n.g.R.1.N y.e.w.4XMXFXSXzX|.s.D }.s.x.V.m.c.n.n.n.v.n.V.n.n.n.m.n.n.n.m.m.p.",
"S.S.B.c.n.S.S.p.S.S.S.v.S.S.S.Z.S.Z.Z.v.B.S.F.n.n.S.B.M.T.0.  L J.H.$X4X3XDXzX'.V Z ~.n.V.F.m.n.n.S.S.n.v.v.p.c.n.B.B.n.b.n.n.g.",
"m.S.S.v.n.S.S.n.n.m.Z.V.Z.Z.Z.S.Z.Z.B.n.V.B.B.V.N.E.B.n.T.y.r r.$.$.O O l DXlX=.@ +.!.h.V.m.S.b.m.S.S.v.n.m.m.m.S.S.S.n.N.B.B.n.",
"n.n.n.c.n.n.n.v.n.n.V.c.v.v.v.c.p.c.n.g.V.N.n.n.n.E.N.t._.@.2.).y %Xw.6X%.e.f.R 4 A N.b.n.n.B.9.g.n.v.p.v.v.c.c.p.n.n.g.g.n.n.p.",
"S.n.n.p.B.n.n.n.n.n.S.p.n.B.n.p.n.m.n.g.E.7.C D ` 4.0.8.2.5.+ j > e.6XwXsXR.rX6.' C Q.g.n.E.B.j.n.m.v.p.v.Z.v.c.n.n.m.p.n.N.N.g.",
"S.S.S.n.n.n.S.c.n.S.S.n.n.S.S.n.N.N.N.n.y.N.[ - Z 9 s D d r .   j j e.%XBXdXFX).. * @.!.B p.Q.n.n.S.S.n.m.m.F.m.S.S.S.n.V.S.B.n.",
"Z.S.S.p.n.n.B.p.n.S.S.b.B.!.S.g.n.E.K [ : 2 $ $ s D 9 Z 2     & & >  Xe.} K o.Z   1 s [ q - j.N.V.S.S.n.c.m.F.m.S.Z.S.c.N.A.T.g.",
"n.n.n.p.n.n.n.c.n.n.g.n.N.g.n.n.S.7.O.$ M F K ` C A A s 1 *   1 r 1 & z + K Z M s o M m . C t g.N.g.n.p.c.Z.S.S.Z.Z.S.c.N.n.B.g.",
"Z.n.v.v.n.n.n.p.n.n.N.g.n.n.E.9.7.Z ; 1 * * o y 6 s % @ w A * > r N 2 < 2 2X_.@ r +.K } 9 Z * 1.n.S.n.g.n.F.Z.S.F.Z.S.v.b.c.n.p.",
"S.S.Z.v.Z.S.S.v.N.^.S.g.n.9.K s r M r K 1 K 5.& ) = @ B W $ m B } y > b N 1 e = > l o B K D q r 5.E.S.N.m.m.S.S.m.Z.S.v.b.b.n.g.",
"C.S.S.v.n.S.S.n.b.B.B.E.B.8.F F $ . l m > 6XQ.. $ @ ] W K._ * 9 z L > O m m e x @ ) 3Xm m K r r d #.S.n.m.n.F.F.m.m.S.n.n.n.N.n.",
"m.n.C.v.n.n.n.b.N.N.n.7.` ~.9.- ; K K l K AX).T.8XQ.#.i #.W.4 K.&.y L < > 9 ^ R K.rX3X9XA 9 t.$ $ s ~.9.c.m.c.v.c.v.c.p.b.b.n.p.",
"n.Z.N.n.g.n.n.n.n.n.n.p.` d * ; [ A B z A SXBXdXSX+X5  .Q.V Q k.{._ B f 6 a ( ].|.8XdX%Xc H 8Xl F g S.0.m.n.v.c.v.V.n.n.n.n.n.n.",
"m.n.n.n.g.b.p.b.m.v.S.B.7.$ B K r B { i = { [ A 1.t W {.Q e p p Q k.| z.].`.`.z.z.&X|.&Xe.G %.y n.9.S.n.m.S.S.n.v.c.p.c.b.p.p.g.",
"S.n.n.n.n.n.n.n.n.F.m.p.n.1.1 . l { 9 * u 0 y * 4 x {.z.u Q p Q a T C. ...`.z.|.f..X[.zXK.).&.N N.E.n.b.m.n.C.V.m.v.n.m.S.n.n.N.",
"m.n.n.n.n.n.n.p.c.n.b.b.A.T.m ; ) B & # 3.^ W ] ^  .{.8 Q {.i.d.].! T z.T .X`.C.AXCX&XlXH.e.sX$Xm N.B.p.n.m.m.p.v.c.c.c.p.g.p.g.",
"N.n.n.g.g.N.n.p.n.n.n.#.0.Z M [ r 9 9 Q f.*.i.&.*.l.Q a ( i.l._ f.z.V i @ rXdX}.AX9XrX{.c %.rX&Xr !.n.g.B.N.n.c.v.n.n.c.n.n.n.n.",
"S.E.B.N.B.E.S.n.n.S.S.d   M [ s * B 9 ^ Y 8 x z 0 Q # p R U ! ! Q Q 0 = ; | l.i.f.s.%.e.c c K.%Xs ~.g.B.N.n.m.m.m.S.S.n.n.S.S.b.",
"S.S.B.n.N.S.B.n.B.S.S.9.M M 1 . $ A q k.&X`.a ^ | w @ 5 U ( =.=.=.=...@ + + = # @ @ H %Xe e %.K.* 4.E.N.n.Q.!.c.m.S.S.n.n.E.S.n.",
"n.n.n.g.n.n.n.g.b.n.n.M.n.M F 2 t ) q fXfX[.i.@ @ $ . @ 5 E ( E E ( 8 e.J.G & W ^ &.%XZ %.%X( ! { C E.9.n.n.c.c.v.v.n.p.b.n.g.g.",
"S.m.b.p.N.n.N.h.N.N.N.4.+. X0.r D w @ 4 # x .XS * @ { ] i. .=.&.x &.e._.$X&.K.&.'.'.=.> wXlX^ &.j.. 5.g.n.n.N.p.m.v.m.c.v.n.N.p.",
"m.Z.F.n.p.E.S.~.S.S.^.h.K C - r K * 3.{ s.] ] }.g.X B V ! x W V t.t.).lXjX%X$X8XfXE c > H K.%./ K q D T.N.S.S.m.c.c.c.c.m.S.E.n.",
"S.m.n.n.N.B.O.q d d g h.T.A > K 1 . B B B V  .| s X * @ V u 0 9 t 6.e._.BXjXH.DXrX( %.H c H / 1 & $ Z E.N.E.N.b.V.m.m.c.N.B.B.n.",
"n.m.n.c.B.` #.#.s.N.% s s 1 . $     . t s x u ] A + * * i  .[ [ ) m e.j w.G.$.H.] | ] @ = c H 5.3XBXQ.D T.g.n.p.c.c.c.p.n.n.M.g.",
"V.V.v.p.^.g 4.9X#.' A.VXsX4.> &   o t.3.j.i.&.^ C + + s.z u i s 2 X b j eX>XeXZXR.. Q 7 . z * ) VXqX5.D A.n.n.b.v.V.n.c.n.n.B.n.",
"m.m.V.c.~.D F }.% $ qXOXW.4.W.5.[ m * q 4 9  .]   ; & * i.&.1.R.y.J kXvXnXG.I.nX5X& j.x . B.}.B t. XK L T.E.S.N.m.S.S.b.g.g.g.g.",
"c.V.Z.n.S.4.w w f f w @ 0 ` 9.dXAX3X= 4 9 * z r . y 1 @ 8 5 H m I oXP.#X:X,.#XeX2Xm i.# X X g.h.C N.2 g E.S.S.v.m.S.S.n.B.N.N.N.",
"v.v.m.c.n.h.E.A.S.A.h.g . @ j. Xl.| * & } A 3.6.f . . = f.c 6.-XXXU.q.Y.,.@XI.tX(.  Q.f o.3 ; j.3.).4.  +.E.b.v.c.v.n.g.n.g.g.g.",
"m.n.n.p.n.N.N.b.n.h.E.F & $   . 6 f ) 2 [ ) #.z.#.#.O.#.( *.o x.x.;XSXjXZXkX>X-X(.).' Q Z d y 6.~ h.h.F ' ~.N.p.n.b.M.b.V.n.N.g.",
"S.S.B.b.N.B.B.y.n.E.Z $ . . A w @ 6 r +   @ ..#.].D.h qXi 0 2.R.x.(.>.-X:XI.G ;.>.).#  .9 2   y +Xa.a.g O.~.C.N.n.b.b.b.N.B.A.n.",
"S.m.B.n.N.N.B.n.S.D   . @ y y l f i &   C  Xs.qX].g o o.T.o.d L o.5XG r.>XtXk I._.} E X.x . %.W.h ' OX~ ' E.S.n.M.n.V.b.B.S.S.n.",
"m.v.n.g.n.n.V.b.n.O.8.[ $ M H l i 0 e r 1 h.hXVXdXh h oXmX0XL O.o G b L.yX;.>Xr.%.c E =.! = 3X_.~ a.}.f O.S.g.c.V.n.N.b.N.n.N.g.",
"m.c.n.c.g.g.n.g.N.B.E.9.@ C m m e 7 u c 9 .  X6X0XhXI h 0X;XV.E.).N O q.H.j >.4X1 ( X.E E R B M.}.~ OXh O.F.n.n.b.b.n.g.n.g.N.g.",
"m.c.m.v.n.n.N.V.n.B.B.o r C r 1 9 e i 0 N J , b : d 3 3 3 P 0XbXwX4X_.b L wXj N w `.'.X.Y R . C +Xh $ @.m.v.m.p.M.g.n.n.n.g.N.h.",
"m.c.n.b.N.n.N.V.S.^.7.; C q r 2 & r t + o.XXXXxXo.  O.: O   J vXbXr.yXBXMXu.wXo.#.....Y ..U @ q w 6 O.F.v.n.p.S.n.b.N.n.n.n.n.n.",
"m.v.b.c.n.g.b.p.n.O.X q * $ .   2 s 1 q k -.<X,XU.y.4.: Z O O -.=X, (.yX-XP 7XB.~ # 6 # 9XR f B.Z.v.m.c.c.m.n.0.n.b.n.g.n.g.n.g.",
"m.c.n.v.n.B.V.g.n.F h g M K t @ N r 9 9 3 P.;Xv *X:X@XP.2.j -.v =XI.b < + r.K [ $ $ X . ~ q b.b.V.V.V.p.m.Z.c.p.n.n.n.c.n.g.n.g.",
"m.c.n.n.n.S.T.n.B.S.^.B.Q.n.m 9 y 0 0 y   u.-XI.iXn ,.#X(.yXkX@XL.=X5XI.n 5X+   ; m :   o ; M.V.M.V.S.c.v.C.F.F.S.B.S.n.N.n.n.n.",
"m.v.n.n.n.S.B.n.n.S.N.b.E.[ . Z t 9 e 7 K -X(.L.pXNXI.n H.G.$.Y.,X<XxXmX,Xq.L.$.R.2 2 X < - R.n.B.B.S.p.c.v.C.F.S.S.S.n.n.M.N.g.",
"n.v.n.c.b.m.V.0.p.n.n.p.E.{ $ Z w * 7 * K 2.b =XY.jXyX5XeXG.$.,X:X,X1XcX,Xb uX:XJ + < 2 r < g.j.n.V.n.c.m.S.Z.F.Z.m.Z.v.n.h.n.M.",
"m.n.n.c.n.Z.n.b.m.m.m.9.B.+.; C q q % = l + w.>X=XL.tXNX>XjXiX;X@X<X<X@X@XpXG.pXO + 2 l   & N.h.M.V.n.p.m.Z.F.S.Z.C.S.p.n.g.N.g.",
"S.S.S.n.n.!.B.n.n.m.Z.c.^.+.$ C d - @ B m j N G I ;XP.gXuX>XtXU.xXvX@X,.vXnX<.eXj j 2 1   g.~.m.N.B.B.b.m.C.C.Z.D.S.S.n.n.n.M.g.",
"m.Z.S.n.V.S.m.n.m.S.S.9.Q.{ - F : ; @ l B q 2   P.L.#XP.jXjX;XbX#X@X@XuXpXnXuXG.$X+ 2 $ o x.Z.v.B.V.S.n.C.S.S.D.Z.Z.S.n.n.n.M.M.",
"V.m.n.0.n.m.b.p.m.c.B.p.N.` $ B 9 9.y t B q o 2 j j $.wXq.$.gXiX#XjXnXnXeXvX$Xq.>XX - 2 - 0.V.c.b.b.n.p.v.n.v.v.v.v.n.p.b.n.n.b.",
"Z.N.n.n.n.m.n.g.n.Z.N.p.B.4.q o @.T.r t B r @ A t.1 R.$.=X,X-.:.uXyXtXtXeXk J #X5XK B A.t p.V.c.n.m.n.b.n.n.n.c.n.n.n.c.n.n.n.p.",
"n.S.N.g.n.S.S.n.n.n.S.n.M.Q.8.o 2.^.1 t t 1 9 . W i.%.L I.iX<X<X<.:.r.:.:.*XNX;X2X6X X] @ g.S.m.n.S.S.b.n.S.S.n.n.c.n.n.n.S.n.n.",
"N.S.N.b.n.S.S.n.S.S.S.N.M.N.S.4.#.^.: 2 r d & . 4  .3.5.(.>.=X@XxXgXXXmX<XXX>XR.B H W % F S.B.c.n.S.n.n.n.S.Z.n.n.n.n.n.n.S.S.n.",
"B.N.b.b.b.n.n.p.p.n.n.p.N.n.N.N.B.o.d d <   d t f ] z C   q.q.O -.o.r.XXv X b _./ ] | 7 9.S.v.c.n.n.n.b.n.n.n.n.n.n.v.b.n.n.p.p.",
"N.n.n.g.b.n.n.c.n.n.n.b.B.n.g.n.O.  X o X o V.' % Q ~ p O.2   l < j H.K j , O > e x u # 7.m.n.n.n.n.n.c.c.b.p.n.n.n.n.n.n.n.n.n.",
"S.S.B.n.N.S.S.n.n.0.n.b.n.p.g.T.#.7.7.#.@.y.!.F 6 _  .~ y . > y y c c 2 < < 1 } W 7 % @ 8.m.Z.p.n.S.S.n.h.n.n.b.v.p.n.n.c.n.n.p.",
"S.E.S.N.m.S.S.b.n.n.n.g.B.A.n.n.E.h.S.h.!.F.E.K % 0 T 0 * 4.$ 9 7 z l >   <   t W | ' ; @.F.V.g.n.F.S.n.b.n.n.c.n.n.n.n.n.n.n.n.",
"N.n.g.g.n.n.b.p.n.n.n.b.n.g.B.g.p.A.h.g.n.b.N.C 6 ~ ~ ~ w 4.@ 9 q 1 1 1.< - - . 4 4 4 # $ y.b.n.n.n.n.n.n.c.n.n.n.n.p.n.v.p.n.p.",
"N.g.g.n.n.B.n.n.n.n.n.b.n.n.n.n.M.g.h.A.g.E.+.% V ] ~ % 1 4.X : : 2.S.p.@ s 9.#  .f.i.f.A 4.E.n.n.n.S.n.c.n.n.b.n.n.n.g.n.n.n.p.",
"N.g.n.n.n.S.S.F.S.S.m.n.n.p.g.p.g.n.B.j.B.B.O.#.k.j.}.j.q 7.$ O.F.V.Z.v.D A.+.f k.k.k.k.l.0 @.7.N.g.n.p.n.n.b.n.n.S.S.n.n.S.S.b.",
"B.n.n.n.c.n.B.S.m.Z.Z.n.n.b.n.n.V.b.V.c.R.8.s ` . . V 4.w 9.@.F.S.Z.S.D.n.!.@.d ` @ 4 e 9 1 . o 9.S.n.n.S.g.b.n.n.S.B.n.N.E.S.n.",
"N.n.n.n.n.S.S.F.S.S.S.b.n.b.n.b.m.x.n.b.g.g @ - B i 4 . $ B.}.Z.m.F.C.a.n.p.7.o % F V S Z C d 1 : #.g.b.N.p.N.g.n.n.n.g.n.n.n.g.",
"N.g.b.n.n.S.S.Z.F.Z.m.c.n.n.n.0.m.x.v.c.8.o d D B V S r : !.N.~.Z.S.D.v.p.V.@.  $ % ; $ $ ; ; $ . F B.p.n.B.M.g.n.n.n.n.n.n.n.g.",
"B.n.n.n.n.S.S.m.Z.m.S.c.m.S.S.n.v.F.S.m.8.X o o $ $ * @ o !.N.Z.Z.S.n.n.p.V.0.@.[ { ` #.@.1.2.4.@.8.~.p.N.S.S.n.N.E.B.n.N.E.S.g.",
"B.n.n.g.m.S.F.F.Z.m.S.v.m.S.S.n.C.D.C.v.m.8.0.4.7.3.5.4.8.S.D.C.D.D.N.h.V.n.T.S.A.!.B.B.!.E.W.n.S.~.n.n.N.n.E.N.N.B.B.n.n.E.B.n.",
"N.g.n.g.c.c.c.c.c.v.c.c.c.c.v.p.a.v.a.a.c.S.V.M.M.R.R.M.V.c.p.C.v.v.h.p.b.x.b.b.N.s.g.b.y.M.h.g.g.N.g.g.b.n.b.g.g.n.g.g.g.n.g.g."
};
