/* XPM */
static char *_46f285f6344453487873ec4ccc37f35RRIcwDpA0HSLXucf[] = {
/* columns rows colors chars-per-pixel */
"64 64 256 2 ",
"   c #070606",
".  c #180A03",
"X  c #1B1404",
"o  c #181716",
"O  c #100D13",
"+  c #280401",
"@  c #3B0300",
"#  c #370801",
"$  c #251B02",
"%  c #271902",
"&  c #3B1703",
"*  c #371B14",
"=  c #261B17",
"-  c #2B2409",
";  c #352908",
":  c #332C17",
">  c #38321A",
",  c #302D15",
"<  c #231D24",
"1  c #272727",
"2  c #393525",
"3  c #333330",
"4  c #1D1622",
"5  c #470701",
"6  c #570802",
"7  c #581606",
"8  c #4E1A13",
"9  c #661805",
"0  c #751703",
"q  c #680F08",
"w  c #442906",
"e  c #53360A",
"r  c #582215",
"t  c #463719",
"y  c #583A13",
"u  c #4E2910",
"i  c #6A261A",
"p  c #762616",
"a  c #672C13",
"s  c #433A23",
"d  c #483925",
"f  c #573226",
"g  c #723629",
"h  c #7A1F20",
"j  c #584516",
"k  c #6B4A1A",
"l  c #49432A",
"z  c #554827",
"x  c #5C522C",
"c  c #494635",
"v  c #574B38",
"b  c #51503C",
"n  c #694737",
"m  c #665735",
"M  c #6D5628",
"N  c #766434",
"B  c #403F44",
"V  c #585646",
"C  c #4F4F4C",
"Z  c #655A47",
"A  c #715044",
"S  c #6B6555",
"D  c #746B57",
"F  c #7A725B",
"G  c #716945",
"H  c #635E62",
"J  c #7B7767",
"K  c #787876",
"L  c #696767",
"P  c #84180B",
"I  c #BD1D19",
"U  c #87250C",
"Y  c #912E17",
"T  c #BD261A",
"R  c #B43518",
"E  c #B11E28",
"W  c #873727",
"Q  c #993A25",
"!  c #8B332E",
"~  c #BC2822",
"^  c #B23528",
"/  c #CD1D1A",
"(  c #C91B19",
")  c #D61C1A",
"_  c #C5241C",
"`  c #CC241D",
"'  c #C92618",
"]  c #DB241C",
"[  c #D5241D",
"{  c #C7361B",
"}  c #C91E22",
"|  c #D81D21",
" . c #E51F24",
".. c #C82924",
"X. c #D52625",
"o. c #C5342A",
"O. c #C63629",
"+. c #C93633",
"@. c #D53432",
"#. c #E22224",
"$. c #E31C1D",
"%. c #914834",
"&. c #B94536",
"*. c #B04A32",
"=. c #99763A",
"-. c #876A33",
";. c #A17E3D",
":. c #C94636",
">. c #C33E44",
",. c #8C574C",
"<. c #B35042",
"1. c #987B46",
"2. c #8A7252",
"3. c #B36B55",
"4. c #89776A",
"5. c #D94945",
"6. c #DC544A",
"7. c #D0524F",
"8. c #EA5853",
"9. c #D06355",
"0. c #EC655B",
"q. c #DA736B",
"w. c #F1746D",
"e. c #AC3940",
"r. c #D69D39",
"t. c #CB9233",
"y. c #D9A43B",
"u. c #E2A93D",
"i. c #9A8454",
"p. c #A58648",
"a. c #B49253",
"s. c #918972",
"d. c #A6986A",
"f. c #AE8F72",
"g. c #BAA570",
"h. c #C69956",
"j. c #C79648",
"k. c #DCA443",
"l. c #DDAB4B",
"z. c #DBA946",
"x. c #DCB547",
"c. c #C6A25A",
"v. c #D9AA56",
"b. c #DCB657",
"n. c #E3AD4C",
"m. c #E4A843",
"M. c #E8B34C",
"N. c #E4AE52",
"B. c #E4B253",
"V. c #EBB553",
"C. c #EBB65B",
"Z. c #EDBB5C",
"A. c #E7B958",
"S. c #F1BC5B",
"D. c #F2BB4F",
"F. c #CD8D6F",
"G. c #F08578",
"H. c #D4AC66",
"J. c #DAB468",
"K. c #D1AC70",
"L. c #ECBD63",
"P. c #E7BB66",
"I. c #F2BD64",
"U. c #E5BD74",
"Y. c #EAC25C",
"T. c #F5C35C",
"R. c #ECC264",
"E. c #EDC66A",
"W. c #F3C363",
"Q. c #F4C66C",
"!. c #F5CA6D",
"~. c #FBCB6C",
"^. c #F7C867",
"/. c #EAC577",
"(. c #F5C671",
"). c #F5CC74",
"_. c #FBCC73",
"`. c #FBCD7A",
"'. c #F6CB79",
"]. c #FED275",
"[. c #FDD37B",
"{. c #F6D279",
"}. c #F9D16C",
"|. c #979285",
" X c #908E8B",
".X c #AB998A",
"XX c #9BA493",
"oX c #A7A59B",
"OX c #B5AA94",
"+X c #A9A8A9",
"@X c #B7B7B6",
"#X c #B2B2A9",
"$X c #AE9DAE",
"%X c #FB8B84",
"&X c #FE9789",
"*X c #FE9C98",
"=X c #EA928B",
"-X c #CAAE92",
";X c #F8A59A",
":X c #E4B983",
">X c #C9B5AD",
",X c #FDACA3",
"<X c #F9A8A7",
"1X c #FFB4AB",
"2X c #FBB4A9",
"3X c #FFBDB3",
"4X c #FEBAB7",
"5X c #E9A3A0",
"6X c #CF8986",
"7X c #BEC0BD",
"8X c #E9C784",
"9X c #FED583",
"0X c #F9D687",
"qX c #FBDA93",
"wX c #F7D996",
"eX c #F2D08F",
"rX c #FFE195",
"tX c #C8C7BA",
"yX c #D0C7B4",
"uX c #FFC3BC",
"iX c #FEC6B7",
"pX c #FFE3A3",
"aX c #C3BDC6",
"sX c #C8CAC8",
"dX c #D7D3C9",
"fX c #D8D9D3",
"gX c #D3CBC9",
"hX c #FFCAC3",
"jX c #FFC7C7",
"kX c #FED4C9",
"lX c #FFD9D3",
"zX c #E5D7CC",
"xX c #E8E8D8",
"cX c #FFE5DC",
"vX c #FFECDC",
"bX c #F8E8D6",
"nX c #F6F0DA",
"mX c #EAEAE7",
"MX c #FEEDE3",
"NX c #FFEDEB",
"BX c #F4ECE6",
"VX c #ECF3E8",
"CX c #FEF3E5",
"ZX c #F4F4EB",
"AX c #FEF4EB",
"SX c #F5FAED",
"DX c #FDFBED",
"FX c #F6F4E6",
"GX c #F4F5F4",
"HX c #FEF5F1",
"JX c #F6FAF3",
"KX c #FCFCF5",
"LX c #FDFDFA",
"PX c #F6FAFA",
"IX c #FFEEF0",
"UX c #E0E1E1",
/* pixels */
"t.9.t.t.j.j.j.h.h.F.a.a.a.a.1.1.1.G N N m v f t s s s s t s l s c l l 2 t 2 > : , , , , , 2 2 l l c b V V Z D 2.4.i.s.d.d.d.d.d.",
"j.j.c.a.p.=.-.-.k a y e y e u w t t z x v n Z Z Z Z Z Z D D F F 4.J J F D D D D S S S S Z V b c 2 2 1 - X $ + . . X . % % ; ; M ",
"4.m > - X % t l D 4.d.OXyXyXfXxXnXnXDXKXKXKXKXLXKXKXKXKXDXKXDXDXDXDXDXDXDXDXKXJXDXKXKXDXDXDXDXKXDXVXxXfXdXyX>X#XXX|.4.J Z c X l ",
"f $ D |.sXfXIXDXKXKXLXLXDXKXKXDXDXDXFXFXKXDXAXCXCXAXCXCXvXBXCXCXFXFXCXCXCXCXDXDXCXCXDXAXDXDXDXDXDXSXDXSXDXDXKXKXLXLXLXLXGXVX: Z ",
"m % BXKXLXLXDXDXSXJXZXnXSXAXDXDXNXAXHXHXDXCXDXCXDXDXCXCXCXCXBXCXMXFXDXAXDXCXAXHXDXDXCXCXAXHXHXCXFXSXSXSXSXFXJXSXCXHXJXPXLXfX- 2.",
"2.% xXLXLXLXDXCXCXCXCXMXcXbXlXlXkXjX4XuX1X2X2X2X;X;X;X;X;X;X;X;X=X;X;X;X,X,X,X2X3X3XiXiXuXkXlXlXcXcXcXMXMXCXAXZXCXAXLXGXLXtX$ 4.",
"2.- fXLXPXLXJXvXG.q.0.9.6.7.5.5.@.+...O.' ..' T ' ' ' _ _ _ _ ' ....' T _ ' ....o.o.o.o.+.:.:.8.:.6.8.8.0.w.w.G.iXMXAXHXKX.X% f.",
"f.; >XLXGXPXJXcX:.X.( ` ` X.[ X.) X.] ] ] [ #.] [ ) ) ] [ ] ] ] ] ] ] ] ) ] ] [ ] X.] [ [ ) ' X.#.] X./ ` / ( T F.AXAXKXKXs.w d.",
"K.8 OXLXKXKXLXNX9./ | | } } } } ....~ I ....o...o.~ o.o.+.O.O.+.:.O.O.O.o.o.o.o.O.o...~ ~ o...T ../ | | ( ) #.+.5XHXCXLXLXV j f.",
"-Xy .XLXJXJXPXIX0.(  .@.w.w.%X&X&X;X<X<X,X,X1X3XuX3X3X3XiXuXuXhXiXhXhXhXuXuXuXuXiX3X1X,X,X,X;X&X%X%X%Xw.8.| ) ..2XHXAXJXPXc M H.",
"h.a 4.LXJXKXPXAX%X} | 5.kXCXAXAXCXDXDXAXAXAXAXAXAXHXKXHXHXHXHXHXKXKXKXHXIXHXIXIXAXCXDXAXHXAXAXHXIXNXNXMX2X@.X...jXHXKXKXmX> -.H.",
"H.M S LXJXKXPXNX*X}  .+.kXDXSXSXSXJXJXJXJXJXKXLXLXLXPXLXLXLXLXLXLXLXLXLXLXLXLXPXPXLXLXJXLXJXPXLXGXIXAXCX1XO.) @.jXLXKXKXfX; =.h.",
"P.=.l LXLXJXKXAX<X..#...iXDXHXPXPXKXKXJXKXKXLXLXLXLXLXPXLXLXLXLXLXLXLXLXLXLXLXLXLXLXLXLXLXLXLXLXHXHXHXCX;X{ [ :.MXDXDXDXsX- ;.t.",
"C.a.s BXLXKXKXCXuX+.#.X.3XDXJXPXLXLXLXKXKXKXLXHXLXLXLXLXLXLXLXLXLXLXLXLXLXLXLXLXLXLXLXLXLXLXLXLXKXKXDXCX;X{ ' 6.cXDXSXDX#X$ a.j.",
"b.c.; fXLXLXHXNXlX>.$.' ;XCXCXLXLXHXLXHXLXHXLXLXLXLXLXLXLXLXLXLXLXLXLXLXLXLXLXLXLXLXLXLXPXLXKXKXKXJXDXCX%X` ..0.MXAXDXSXXX- v.B.",
"y.h.w tXLXLXJXCXcX7.) ' =XvXBXHXLXLXLXLXLXLXLXLXHXLXHXPXLXLXLXLXLXLXLXLXLXLXHXHXLXLXPXLXLXJXPXJXKXSXSXCXG._ ..w.MXJXSXDXJ ; J.M.",
"y.v.e .XLXKXKXAXNXq.) / G.FXHXLXLXLXLXLXLXPXLXLXLXLXPXLXKXLXLXHXKXKXKXLXKXLXLXPXKXKXLXKXKXLXLXJXLXKXKXvXw._ ~ %XHXJXJXLXV y v.r.",
"y.b.k s.KXKXJXHXNX6X( ) q.CXAXLXKXLXLXLXLXHXLXLXLXHXLXLXKXLXLXLXPXLXKXKXKXKXKXHXLXLXLXLXLXLXLXLXLXKXAXcX8...~ *XHXJXPXJXb M v.y.",
"y.L.M D LXJXHXHXAX=X' ) 9.vXAXKXLXKXLXHXLXKXLXKXLXLXPXLXLXKXLXKXKXKXLXKXLXKXKXLXPXLXLXLXLXLXLXKXKXKXHXcX6.X.~ 1XAXJXPXZX2 -.v.t.",
"u.I.-.A KXKXJXHXHX;X` [ 9.cXAXKXLXLXLXLXPXLXLXLXLXKXLXKXLXLXPXLXKXLXKXKXLXKXKXLXLXLXLXLXPXHXLXKXKXKXAXcX5.} >.4XDXZXLXxX; 1.A.y.",
"r.v.1.f KXJXJXHXHX1X..] 7.lXLXHXLXLXPXLXLXLXLXHXLXLXKXLXLXLXLXLXLXHXPXLXKXKXKXKXKXHXLXLXLXKXLXKXKXKXHXlX@.X.>.jXDXKXKXyX% a.P.m.",
"r.N.i.d BXKXKXHXAXuX@.[ 7.lXHXJXLXKXLXKXKXLXLXLXKXLXLXLXLXKXLXKXKXJXJXKXLXKXLXKXLXLXLXPXLXLXLXKXKXDXDXjX+.X.7.lXCXDXKX#X% c.C.N.",
"T.^.K.d xXLXLXHXAXjX@.) 5.kXAXLXHXLXLXLXLXLXLXPXPXLXLXHXJXLXLXLXLXJXJXHXLXKXKXLXKXLXLXLXJXLXLXKXDXDXDXhXX.} 9.lXCXSXDX.Xw F.N.m.",
"D.I.-X; gXLXLXKXHXkX:.X.^ jXNXHXPXLXLXKXLXKXLXLXLXLXLXLXLXLXLXLXLXJXLXLXLXJXKXKXLXLXKXLXLXLXLXKXKXDXDXiX@.| q.IXAXCXDX4.w H.r.r.",
"D.P.:Xw >XLXLXLXGXMX5.' O.iXCXHXKXKXKXLXKXLXKXKXKXKXLXKXKXLXKXJXKXKXLXKXKXLXJXLXLXKXKXKXLXKXKXKXKXKXDX1X@.| w.NXNXCXKXD w c.t.r.",
"m.N.:Xu OXLXLXLXPXMX6.[ O.1XHXKXKXLXKXKXKXLXKXLXLXKXLXKXKXLXKXLXKXLXKXKXLXHXLXKXKXKXLXKXLXKXLXKXKXDXCX;X..} =XIXNXGXKXm j b.k.y.",
"D.I.:Xe |.LXLXLXJXvX0.' ^ ,XAXKXLXKXLXKXKXKXLXKXLXKXHXPXKXKXLXKXKXKXLXLXKXLXKXKXKXLXKXLXKXHXPXKXKXAXAX;X} } =XNXNXJXZXl k U.x.n.",
"m.V.8Xy s.LXLXLXJXDX0.' ..;XHXHXHXKXLXKXLXKXKXLXKXKXLXKXLXKXKXKXLXKXKXKXKXKXKXLXKXLXKXLXKXLXKXLXHXAXCX=X` | =XAXNXKXVX> M /.A.M.",
"M.n.E.k J PXSXKXJXDXw.' { ;XHXLXLXKXKXLXLXLXLXLXLXLXLXKXLXKXPXLXLXLXLXLXJXLXLXKXLXLXLXLXKXLXLXLXJXAXAX=X..X.;XHXAXLXVX- -.'.S.V.",
"t.r.b.k D LXKXKXJXAXw.' _ &XAXLXKXLXKXKXLXLXLXHXJXJXHXHXJXGXHXJXKXKXKXLXLXKXLXJXPXHXLXHXLXLXHXZXHXAXFXG.X.X.,XHXAXLXUX$ p.Q.Z.V.",
"u.u.Y.k V LXKXDXSXCXG.' T &XFXKXKXKXLXLXKXHXLXLXLXKXLXLXLXLXLXJXHXLXGXGXLXLXLXLXLXHXLXLXJXHXHXGXJXJXCXG.X.X.2XDXAXLXdXX p.(.Z.V.",
"y.y.J.k v LXKXKXJXCXG.' ~ %XCXKXKXJXKXKXKXKXCXzX>X.X4.4.A ,.A A n n A A A A 2.4.|.-XzXMXKXKXKXJXZXAXNXq./ X.1XAXAXKXsXX p.!.V.S.",
"y.n.P.-.b LXJXLXKXCX&X{ O.&XCXKXDXVXLXLX>X,.g a p p U Y U Y Y Q ^ ^ %.Q ^ Y Y U p 0 7 i ,.-XFXKXFXDXvXq.' X.3XAXAXKXtXX c.Q.A.Z.",
"D.n.P.-.c LXKXLXDXCX&XR R G.CXSXDXAXgXf i p a %.*.^ P &.:.:.0 0 :.&.^ 0 R &.U Q :.&.*.%.g u y #XCXCXvXF.' X.iXDXDXLX@XX c.R.Z.Y.",
"T.V.E.1.d PXKXSXSXDX&X{ ..G.CXAXKXgX8 g *.:.9 5 %.6 @ g Q W r 5 9 i 8 + i W 9 # Q Q %.*.%.Q Y 9 >XHXMXq.' O.iXDXAXKX#X$ J.R.Z.S.",
"T.S.'.1.s LXLXVXVXCX*X{ X.w.CXFXHX4.# ! *.U 6 # # u g & 6 r f & & 8 + % @ 5 & u 5 W 9 q 6 q <.0 n CXcXq.[ O.iXDXAXLXoX- J.R.Z.S.",
"T.S.`.1.2 IXLXJXSXDX*X_ X.w.vXnXAXJ . 8 g q 5 w . z n 5 9 9 9 i & . 8 7 7 6 5 r @ g f # 9 9 W + n CXlXq./ @.4XHXCXLXoX- J.A.A.B.",
"D.n.I.=.s GXLXJXJXSX*X..) w.vXvXDXzX* + r g g 5 ; + w g U Y U 0 @ # 7 a 0 P U p i + + 8 W %.r + .XMXlX0.) @.jXLXAXKX|.- K.l.l.l.",
"V.N.Q.p.2 GXLXPXPXHX*X..( 0.jXkXhXkX6X5 # g 8 7 *.Y 5 W &.R *.0 6 p 5 %.{ { R :.! 5 + g ,.i @ ,.hXhXjX8.$.@.jXIXHXKX|.- c.z.z.z.",
"V.n.P.p.s JXLXLXJXHX*X} #.#.5.:.^ >.e.h # # 5 9 0 U 7 5 Y ^ 0 5 Q &.7 7 R R R Y 6 5 @ 5 5 6 6 ^ :.:.5.} $.X.jXIXDXLX|.; H.l.l.z.",
"N.N.I.a.d LXLXHXLXAX*X..| $.$./ X.X.E E 5 + 6 h 0 P 6 # @ 8 6 6 0 P 6 5 5 9 6 @ 6 P Y 0 5 6 q E } ) | |  .o.uXKXAXLX Xt J.B.B.V.",
"S.S.(.h.l HXLXLXHXHX*XE } / } ` _ o.>.^ 8 & # i 9.3.i f 8 + g %.Q Q Q ! 5 f * f 3.9.*.*.g @ ! >.E } } } ( E uXHXCXKXs.t 0XY.V.A.",
"Y.T.~.h.d ZXLXHXGXLXlX6X=X=X,X,X1XiXuXjX4.f f.. -XMX2.* * + & ,.%.Q Q %.f . . >XCXlXzXbXZ : >XhX4X<X5X=X=Xq.lXKXDXKX4.z /.Z.M.M.",
"^.~.].c.z BXJXGXPXPXHXAXAXCXCXCXDXDXDXKX>X* zXS X xXF   * d + + 7 7 r 8 + = . oXDXxXDXXX  S KXKXLXIXIXNXMXGXAXCXDXKXJ z /.A.A.Y.",
"D.Y.^.v.z BXSXFXGXJXJXKXFXFXCXDXCXDXDXDXNX: +XHXC 3 1 J UXzXgXv 2 >XoXX S UXK o tXZX+Xo O XXJXVXIXHXHXHXVXVXSXSXFXDXS x 9XT.Y.T.",
"y.x.M.a.x DXKXHXKXJXKXJXDXSXnXFXxXxXdXtX>X3 C @XK   3 +X+X$X$X Xo C 3 1 oX#X#XC o +X3 B 1 sXSXSXHXHXLXLXJXJXJXKXDXKXL N rX].~.}.",
"Y.T.T.J.w |.|.s.J F Z b c l > , , ; - $ $ X o   O O O   O . 4 4 1     o O     O o   O 4   , 2 c x m D J s.s.XXXX@XdXV m 9X~.^.T.",
"T.T.}.E.M x x x x M 2.F i.i.i.i.d.d.g.g.OX|.o 1 $XaXaX= L gXaX$XO K H O @X@X+X@X3 1 4   G J F 2.-.N m z x j > ; ; t % i.9X~.^.^.",
"}.}.E.{.0XeX0XwXqXqXqXqXqXqXqXqXwXwXrX0XwXwX, 7XPXPXPXfX< +XmX1 K PXPXH B PXPXL 3 mX+X$ -XwX0X0X0XrX0XrXqXeX/./.:XU.J.8X`._._._.",
"}.}.{.}.{.].[.[.9X[.[.{.9X`.`.{.0X{.{.{./.wXx V JXVXmXPX@X1 4  XLXPXGXPXC B H 3 fXPXJXl /.].].[.[.{.{.{.9X].[.[.{.{.'.Q.(.Q.!.(.",
"[.].].).[.[.[.[.[.[.].[.[.[.`.{.0X9X{.].{.rXG   B mXGXGXsX1   +XLXLXVXVXPX3   +XPXPXs.- eX{.`.`.[.].].].`.].`.].[._._.~._._._._.",
"].].}.Q.~.~.]._.].~._.~.`.].].].[.9X].].E.rXm |.H 1 UXsXO  XsXO  XLXGXGXH B  Xo +XsX  z 0X}._.`.~.~.!.}._.^.^.L.Q.R.~.L.I.I.Z.L.",
"W.W.W.W.L.W.I.L.Z.C.L.Z.I.L.L.L.P.R.W.R.Y.rXN J LXL 3 1  XGXLXfX4 K GXC 3 UXPX@X3 o b k J.u.M.M.B.B.B.A.l.N.N.B.N.l.n.k.k.l.N.N.",
"n.n.V.V.V.C.S.S.C.S.Z.C.N.V.N.B.P.C.z.y.n.{.N F LX#XO O @XLXLXLXmX3 O C PXGXmXLXC 2 ; N E.x.x.x.z.B.V.A.B.n.n.n.n.n.k.k.k.k.k.k.",
"n.n.V.V.S.S.S.C.C.V.N.V.M.N.N.N.l.l.z.z.m.E.N c +XO +X@XO  XPXLXsXB < 3 sXLXJXS j wXj -.E.x.x.x.M.M.V.M.k.k.y.r.k.j.r.k.m.k.k.r.",
"M.V.V.V.n.V.N.N.n.n.m.m.n.N.n.N.B.n.M.m.B.'.i.X X aXLXLXsX< K +Xo K PX Xo XXoX; d.J.-.-.b.x.x.x.A.V.M.n.z.k.k.k.k.k.k.k.k.k.m.k.",
"N.N.N.V.B.A.C.Z.V.C.V.V.D.V.V.V.V.V.M.M.M.P.1.- , dXPXVXPXmXo    XPXPXLXaX1   d.8XU.=.=.I.V.Y.A.b.A.A.b.b.B.B.B.m.m.n.n.m.k.k.k.",
"I.I.I.L.C.C.Z.Z.S.S.Z.C.S.S.C.C.I.C.V.V.L.'.N -.f.- tXJXJXb v s.:  XHXLXLXl z j =.0X1.=.'.A.R.R.A.A.A.R.Z.L.L.L.V.N.n.m.k.k.n.N.",
"I.(.(.(.(.(.}.).Q.Q._.~.(.(.~._._._.~.~.Q.qX-.=.pXi.; OXc x wXwX-Xe n xXV x wXa.e k a f.0X(._.Q.(.!.Q.Q.).~.(.~._.I.(.I.I.Q.I.I.",
"`.9X`.`.`.9X[.9X[.9X9X9X[.[.`.`.].].].].].9Xp.c.0X0Xp.% G wX/.R.`.8X-.& j 8Xb.Y.U.p.a K.qX'.`.`.Q.R.P.A.Q.!.!.!.L.I.(._._.`.`.9X",
"9X9X`.9X9X9X9X[.9X9X0X9X9X9X9X9X`.9X].[.[.`.eX9X].!.E.R./.P.R.R.A.(.'.v.E.E.Y.A.Y.E.eXqX0X0X{.{.[.).!.Q.].].].].!.A.R.E.(._._.[.",
"`.9X9X`.9X9X9XrX9X9X9X9X9X9X9X9X9X9X9X{.{.`.'.`.{.}.W.W.T.W.W.W.W.I.^.}.}.T.T.Y.Y.b.C./.0X{.{.!.!.!.Q.R.!.!.!.!.).E.R.}.~._.].[.",
"{.].].].{.[.[.[.[.9X[.[.[.[.9X{.`.9X0X{.'.'.`.(.~.}.^.T.D.T.Z.I.(.I.A.Y.A.S.I.I.!.Y.P.E.).E.R.Y.R.R.R.L.R.R.R.R.Y.Y.Y.b.Y.^.W.^.",
"E.!.Q.E.}.}.{.}.].{.).).).)._.`.{.{./.0X/.'._._.~.~.}.}.}.~._._._.~.}.}.}._._.`.].}.).[.{.{.}.^.~.!.]._.).].].].}.}.}.Y.}.Y.^.R."
};
