/* XPM */
static char *beed239fc1e745f2c45ed93169a512bcrdJP0yXys1SickNU[] = {
/* columns rows colors chars-per-pixel */
"64 64 256 2 ",
"   c #0A0600",
".  c #160600",
"X  c #141408",
"o  c #291808",
"O  c #2E1205",
"+  c #3A2507",
"@  c #362512",
"#  c #2B291E",
"$  c #5D0500",
"%  c #5E1814",
"&  c #6A0902",
"*  c #780906",
"=  c #691808",
"-  c #741201",
";  c #791508",
":  c #7B1313",
">  c #761915",
",  c #6D1714",
"<  c #51310E",
"1  c #632E00",
"2  c #693704",
"3  c #6A2618",
"4  c #753913",
"5  c #762C10",
"6  c #4F362C",
"7  c #7B2A26",
"8  c #773526",
"9  c #6E352E",
"0  c #7A1825",
"q  c #774917",
"w  c #775219",
"e  c #6F4913",
"r  c #56432E",
"t  c #674A24",
"y  c #734A28",
"u  c #795525",
"i  c #694B3A",
"p  c #784739",
"a  c #785735",
"s  c #66562E",
"d  c #514117",
"f  c #795A42",
"g  c #6D554C",
"h  c #7D6B47",
"j  c #7A6B57",
"k  c #6C615B",
"l  c #850B0A",
"z  c #82130B",
"x  c #871816",
"c  c #951516",
"v  c #931011",
"b  c #A51819",
"n  c #A0120B",
"m  c #832802",
"M  c #84271B",
"N  c #943117",
"B  c #9B1C26",
"V  c #862524",
"C  c #8C3A36",
"Z  c #8D372C",
"A  c #B1252D",
"S  c #AF2C1C",
"D  c #865618",
"F  c #864D13",
"G  c #966A1C",
"H  c #844925",
"J  c #875A25",
"K  c #834737",
"L  c #885B35",
"P  c #97572E",
"I  c #AD5029",
"U  c #966939",
"Y  c #9A763A",
"T  c #8C662C",
"R  c #B87C25",
"E  c #A37938",
"W  c #AE6D35",
"Q  c #A75A1F",
"!  c #C46738",
"~  c #C45D27",
"^  c #895746",
"/  c #93534F",
"(  c #A55250",
")  c #8B6B48",
"_  c #976A47",
"`  c #977549",
"'  c #8A6552",
"]  c #9A7658",
"[  c #8F7051",
"{  c #A67848",
"}  c #A57A59",
"|  c #AC6F52",
" . c #967669",
".. c #B1736F",
"X. c #C56B73",
"o. c #B78E1C",
"O. c #BC852C",
"+. c #B98529",
"@. c #BC8631",
"#. c #BF8A32",
"$. c #B38838",
"%. c #B58B39",
"&. c #C0801F",
"*. c #C1852D",
"=. c #C28A2E",
"-. c #C98928",
";. c #C69529",
":. c #C28631",
">. c #C38C34",
",. c #CA8D34",
"<. c #C58E39",
"1. c #CA8E3A",
"2. c #C69135",
"3. c #CB9335",
"4. c #C6923B",
"5. c #CB943B",
"6. c #CC993C",
"7. c #CE9935",
"8. c #D39A34",
"9. c #D99D36",
"0. c #D0963A",
"q. c #D49C3B",
"w. c #DA9E3B",
"e. c #D39434",
"r. c #D0992E",
"t. c #D6A13C",
"y. c #DBA23D",
"u. c #DFA83D",
"i. c #E2A53E",
"p. c #E3AC3F",
"a. c #948256",
"s. c #AA8447",
"d. c #B78948",
"f. c #BB934A",
"g. c #A88555",
"h. c #B58858",
"j. c #B89355",
"k. c #9B856A",
"l. c #99887B",
"z. c #A78968",
"x. c #B88B67",
"c. c #B59375",
"v. c #B08D71",
"b. c #B5A677",
"n. c #CE9A41",
"m. c #C79948",
"M. c #D19E46",
"N. c #D49C43",
"B. c #D89E44",
"V. c #D49E4A",
"C. c #D79B47",
"Z. c #C79958",
"A. c #CF9252",
"S. c #E99856",
"D. c #D5A244",
"F. c #DBA443",
"G. c #DEA945",
"H. c #D5A249",
"J. c #DBA44B",
"K. c #DDAA4C",
"L. c #D5AD49",
"P. c #DBA651",
"I. c #DDAB51",
"U. c #D6A758",
"Y. c #DDB359",
"T. c #CFA653",
"R. c #E1A341",
"E. c #E3AB45",
"W. c #E3AD4B",
"Q. c #E9AE4B",
"!. c #E8AC47",
"~. c #E5B14C",
"^. c #EAB34D",
"/. c #E6B549",
"(. c #E2AD53",
"). c #E7AB56",
"_. c #E5B353",
"`. c #EBB554",
"'. c #EDB955",
"]. c #E5B45A",
"[. c #EBB65B",
"{. c #E5BB5C",
"}. c #ECBB5C",
"|. c #E7B853",
" X c #F0B553",
".X c #F2BB55",
"XX c #F3BD5B",
"oX c #F8B95B",
"OX c #F2B74F",
"+X c #C39967",
"@X c #CE946B",
"#X c #E99D71",
"$X c #C8A567",
"%X c #D8AA68",
"&X c #DCB368",
"*X c #C6A977",
"=X c #D9B376",
"-X c #D0AC79",
";X c #E5AD65",
":X c #E6B462",
">X c #EAB461",
",X c #ECBC63",
"<X c #EBBD6B",
"1X c #E5B769",
"2X c #F2BD63",
"3X c #F5BA65",
"4X c #E7BB76",
"5X c #F6BC78",
"6X c #F2AA6F",
"7X c #F4C15D",
"8X c #FAC25D",
"9X c #FBC157",
"0X c #ECC05D",
"qX c #EDC263",
"wX c #EDC46A",
"eX c #EAC56E",
"rX c #F3C364",
"tX c #FBC564",
"yX c #F3C964",
"uX c #FBCA65",
"iX c #F3C56B",
"pX c #FAC66A",
"aX c #F4CA6C",
"sX c #FBCC6C",
"dX c #FDD06F",
"fX c #F4D06C",
"gX c #EBC373",
"hX c #ECC977",
"jX c #F4C572",
"kX c #F5CB73",
"lX c #FBCC73",
"zX c #FCC67B",
"xX c #FACE7A",
"cX c #F6C779",
"vX c #FDD275",
"bX c #FED37C",
"nX c #FFDA7E",
"mX c #F3D17F",
"MX c #B88E8A",
"NX c #ADA29F",
"BX c #C9918C",
"VX c #D0B18A",
"CX c #F9BA87",
"ZX c #E8B886",
"AX c #C9B6AB",
"SX c #EAABB5",
"DX c #ECC887",
"FX c #F8CC85",
"GX c #FED583",
"HX c #FFD885",
"JX c #FCD68B",
"KX c #FAD492",
"LX c #F5CE9B",
"PX c #F9CFAB",
"IX c #EDD492",
"UX c #CEC9CB",
/* pixels */
"=.,.=.=.,.,.,.,.5.,.>.#.2.O.+.O.O.O.2.2.=.>.,.>.2.4.5.n.4.>.@.@.m.m.1.1.n.n.1.1.6.n.n.6.6.6.6.m.6.m.n.M.5.5.5.4.#.#.#.4.#.#.#.#.",
"0.3.5.e.3.3.4.5.3.5.3.2.4.>.O.2.2.2.2.2.4.3.2.5.6.n.N.n.6.6.5.V.V.C.C.A.A.0.C.C.n.D.n.M.M.M.M.D.D.H.H.H.m.n.5.4.6.m.4.4.m.6.4.m.",
",.3.3.3.,.3.,.3.5.3.5.6.M.5.5.6.5.2.2.2.2.3.4.2.>.2.,.4.>.>.,.5.1.1.1.m.>.>.! 2.#.#.#.#.#.#.#.#.4.#.#.4.@.+.@.@.%.@.@.@.#.#.#.+.",
"*.O.*.*.*.=.O.*.O.,.2.4.6.>.#.2.4.2.,.,.2.2.2.2.#.>.>.2.2.O.>.,.:.:.@.R >.=.>.=.4.#.4.#.6.4.n.6.4.4.#.#.m.4.4.#.#.#.#.>.#.#.#.#.",
"R *.=.*.,.,.=.=.,.5.3.3.,.,.>.,.3.7.M.N.J.H.H.J.H.N.V.V.H.J.(.V.4.L.H.H.5.6.H.M.n.n.n.n.%.R R +.@.#.#.#.4.4.#.<.:.>.1.<.#.#.#.@.",
"+.;.0.0.0.3.3.1.5.,.5.N.V.N.N.M.N.N.D.H.J.J.W.(.n.5.<.5.V.J.V.U.Y.f.d.T.P.D.T.M.M.D.D.M.6.+.+.+.#.4.m.#.5.5.n.n.<.:.:.,.<.5.n.>.",
"*.,.0.0.n.0.1.1.+.,.C.N.J.V.J.J.J.J.J.J.J.W.K.K.(.H.H.K.(.I.H.U.` a a u m.L.6.2.n.n.n.n.M.H.I.J.J.U.P.H.M.n.5.4.1.1.1.:.R 3.n.C.",
"e.q.F.B.C.B.q.n.J.H.C.C.W.J.J.J.P.J.J.P.H.J.H.J.J.D.J.J.N.D.J.m.t j l.z.f.m.H.6.6.M.n.n.H.M.H.D.M.M.n.6.m.2.#.#.@.R :.:.:.=.=.! ",
"J.B.J.F.R.J.C.C.B.N.C.).).).(.(.).).).).).).).).Y.~._.|.I.L.W.m.< a.k.k.s.%XI.).K.J.H.J.D.V.N.4.5.5.5.4.<.>.:.O.:.:.@.>.,.>.>.O.",
"B.B.B.B.C.J.S.W.C.0.C.J.J.V.C.C.P.C.V.C.C.n.3.7.6.6.6.5.6.6.M.f.w a.h [ T Z.P.V.H.J.J.J.P.H.M.H.V.V.N.V.V.V.N.6.V.H.N.5.5.>.#.,.",
"1.,.3.1.>.,.,.1.*.:.:.>.O.O.<.1.=.-.=.! R R R ! +.+.O.>.#.#.2.f.U z.c.c.| A.;XV.P.J.P.P.H.M.n.D.).I.J.J.H.N.6.M.N.V.N.5.3.+.+.#.",
"0.e.5.0.w.N.n.0.0.q.q.3.5.5.,.,.3.3.3.,.:.,.,.,.3.,.>.>.2.<.! m.` a c.[ _ A.P.P.P.L.P.L.I.(.L.n.P.I.J.H.N.H.H.D.0.7.7.6.3.2.=.#.",
"8.F.w.7.W.W.R.W.B.B.q.3.5.0.N.w.J.W.).`.[.W.W.(.).(.C.N.M.T.P.#XU a ] u { 6X;XI.(.(.[.>X].I.L.J.(.J.J.J.N.q.N.N.3.2.3.#.3.3.;.#.",
"y.R.F.F.!.W.W.W.E.W.E.F.w.F.`.XX.XXX3XXXoXXXoX2X3X3X2X>XgXhX@X@X_ u a L _ @X4XY.].).I.(.P.L.K.K.W.K.K.K.J.N.q.6.t.q.7.7.7.7.2.;.",
"~.!.!.Q.^.Q.`.Q.Q. X X^.Q.Q.).`.`.Q.`.`.(.).'..X_.~.(.>X4XZX../ J t e y ^ _ @X-X&X(.P.J.W.K.I.I._._.Q.W.].`.~.~.L.G.G.u.t.t.t.t.",
"i.9.9.y.y.w.w.w.9.R.y.y.y.F.y.w.F.R.i.y.w.i.R.t.t.6.H.&XVXBX../ a a y y p ' z.+XZ.U.I.(.W._.~.W.`.|.'.[.'.|.'.|.^./.~.E.G.L.t.q.",
"y.i.i.r.9.i.9.9.i.i.i.i.p.E.R.!.E.E.R.!.~.~.Q.~.L.T.&X-XVX ./ / f a s 9 O O ' *X_ U ;XW.Y.~.~.K.W.F.y.t.F.y.t.t.G.t.q.8.t.8.8.7.",
"i.i.i.y.i.i.p.i.i.i.p.!.!.!.E.!.E.E.Q.^.^.^.^._./.&X%X*Xz.z.../ [ p f ' p 6 ^ c.) u @X).W.W.~.~.!.W.G.F.y.t.t.w.F.t.t.7.7.7.q.t.",
"i.i.i.y.i.i.i.i.E.!.E.E.!.!.!.E.E.!.^.^.^.^.^.^./.{.Z.z.v.c.BX9 / ^ g ..p / _ ) ) e d.2XW./.W.W.G.G.G.F.t.t.q.q.q.8.8.q.3.r.7.8.",
"Q.^.!.!.!.!.!.!.!.!.^.!.E.!.!.!.~.^.^.^.~.~.~.~.u.|.s.` z.a...7 , / ' 9 7 ( L w T q J T.Y.I._.Q.E.W.E.!.W.E.G.F.G.G.G.E.G.G.F.t.",
"F.E.F.y.i.w.w.t.w.8.w.W.W.E.E.E.`.^.^.`.Q.Q.~.~.'.rXs.T [ a K > & ; > = C ( P { J D D Z.,X_.`.'.`.^.^.!.~.W.!.^.W.G.~.^.^.^.W.E.",
"W.F.y.0.w.w.t.q.F.D.D.E.~.^.`.`.`.'.`. X'.`.`.`.uXwXU a a 6 3 5 7 ; * : > V U CXd.F J Y <X}.`. X'.'.`.^.E.^.^.`.~.!.^.`.^.`._.^.",
"XXrXrXrXuXtXuXtXXXXXXX7XXXXX9XXXXXXX2XXX.X.X.XXXyXU.`  .' < p K K C Z V B & W zXqXD w u 1X2X'.`.'.'.`.`.W.~.^.~.W.G.G.W.E.W.~.~.",
"XXXXXXXXXX}.XXXX7X8XrX7X.XXXXXXXXXXXXXXX.X.X'.'.fXf.a.z.p % p a p 9 8 Z Z * W 2X<XT.2 u A.,X[.`.`.^.`.^.`.W.F.W.w.8.7.8.6.w.D.y.",
"~.~./.^.^.^.'.^.'.^.R.E.p.^.^./. X^.~.!.~.^.`.`.:Xj.) z.8 Z p 9 9 g K C M - A.).3X1Xe u d.>XP.).W.J.J.F.D.t.q.0.3.3.3.3.0.e.e.7.",
"E.~.~.~.E.~./.~..X^.u.u.p.p.^.!.`..X.X7X8X8XXXrXcXd.g.} 1 ; = 3 9 9 C / M - S.3X3X;XL q d.,X].`.]._.'._.K.J.J.F.F.K.F.F.F.B.B.J.",
".XXXXXXXoXXXoXoX.XOXp.E.OXOX.X X'.oX7X8XtX8XXX,XgX+X{ _ - * = 3 9 % , V x & W 3X[.zXU w $.<X2X[.`.'._.`.'._.~._.`.`.^.^.E.E.E.E.",
"`..X.X.X X X XoXOX^./././.OX9X XXX.X.X`..X`.!.I.=Xx.g.Z & * 5 3 , , : * * & Q zX3XjX{ e E pXrX,XXX2XXX}.XXXXXX}.'.^.^.^.~.^.~.~.",
"Q.Q.R.R.!.!.!.R.Q.Q.!.OXOXOXOX.X'..X'.`.^.^.^.Y.*Xz.+XH * & 7 , V * l c x & ! zX3XiXj.4 $.qXrXyXXXXX}.'.'.'.'.'.'.'.'.^.~.~.~./.",
"9.w.9.9.e.9.9.9.9.y.y.i.p.p./.E.G.u.G.G.F.F.F.T.+Xv...4 ; * , 7 V l l l v l ! 5X3X<XZ.e %.0X0X7XXXXX.X'.'.OX.X'.'.'.'._.~.^._.~.",
"OXQ.Q.!.i.9.R.Q.!.E.E./.p.p.^./.^.OX'.'..X.X.X1Xg.z.| 5 x x x & * * l v n n ~ 6X3X2XU.w %.rX0X'.OX0X7X7X'.0X'.'.'.0X'.'.].|.|.|.",
"!.R.w.e.e.9.w.9.E.W.!./.p./.OXOX.X0X.X9X9X.XXX5Xa.z...I * : & x l l v n b n S 6X2XqX%Xw %.yX|.'.'.'.'.7X'.'.'.'.}.[.].].|.|.'.].",
"R.e.-.e.R R R.Q.Q.^./.|.^.OX0X9XuX8X8X8X9XtXlX1Xx. .A.5 $ & : x * v b b A S ~ 5X3X3X4Xq m.sXqXrXrX2XrXrX}.}.}.XX2X2X2X2X2X3XtXrX",
"R.w.w.i.i.R.OX X^./.E.E.|.E.u.y.7.t.t.y.!. X3X;X} | #Xm $ > : * z b b b v N S.oX>X<X-Xu f.,XJ.].,XXXXX,X2XrXrX2XXX2X}.).(.H.N.0.",
"e.y.Q.^.OXoXXX.X.X.X^.^.^./.y.7.;.r.w.y.9.E.>X$X_ +XCXN - ; - x c b A B ( | 6XoX3XcX+XH f.<XP.).}.[.[.}.[.}.'.}.[..X`.Q.W.W.W.J.",
"Q.`.'.OXoX8XtXXX7X.X7X7X9X9X.X7X/.|.oXoXoXrXcX&X{ ZXCXm z & z B B A B V SXPX5XoX3XzXs.q d.FX<X2X}.XX}.}.2X2X2X7X3X2X3X2X3XtXtX3X",
"'.`.'..XoXXX9X7X8X9X7X0X'.9X7X.X.X8XtXoXoXpXGXf.{ LX#Xz * * x > ( X.X./ BXBXFX[.2XgXE Y f.cX0X7XrX'.0X}.|.}.}.|.`.[.[.`.3X.X[.[.",
"!.G.W. XQ.Q.Q.Q.R.E./.^.'.0XOX/.^..XtXtXpXpXDXg.d.ZX6Xm * l : 0 X.MX../ ..BXU._.iX<XZ.j.E eX|.0X~._.K.~.~.'.|.~.^.Q.~.W.E.F.F.F.",
"R.w.R.Q. XOXOX`.OX^.'.^.E.E.E.y.9.9.R.).].1X=Xg.g.+X6Xm l x 0 /  .AXNXl.VXLXV.K.I.P.U.$.G Y.L.p.G.L.G.t.q.F.t.t.F.F.y.F.y.t.w.8.",
"e.e.e.e.).Q.Q.Q.^.~.~.E.E.G.G.t.R.w.w.!.].1X$Xg.h.+XFXN : x C BX .k i  .[ ZX].).L.I.eXG $.yX'./.W.W._.G.L.G.W.L.K.W.W.W.G.F.F.D.",
"W.(.`.Q.).W.`.Q.|.'.}.}.7X7XrXtXoXoX}.0X,XhXx.{ DX;XCXI & * > ( 6 X X # u 4XcXwX>X<XjXU.1X,XwX<X].[.>X,X<X{.|._.`.`.W.W.D.F.K.W.",
"3XpXsXpXrX`.[.XX}.XXrX}.rXrXrXpXpXjXsXaXhXFX` +X5X5XFXW = 7 Z 9 # #   g DXcX5X1XiXkXkXkXkXkXkXzXcXzXkXkXpXqX,X{.].'._.(.(.(.`.'.",
"rXpXpXpX2X_.[.rX}.0X}.rXyXrXyXpXjXjXwXaXhXhXY %XFX<XFXj.U _ ^ z.# X    .DX,XwX{.,XwXiX<XvXxXvXbXxXlXjXpXrX<X,X].|._._.`._.J.K.}.",
"7XtXpXtX}.2XuXsXsXsXdXfXdXvXvXvXbXbXvXvXnXnX&XfXxXxXJX$Xt f o l.6 X   b.FXyXaXvXvXvXlXaXaXvXvXdXjXpXaXiXqX}.].]._.].].`.].'.,X2X",
"OXOX|./.^.'.'..X0XOX9X9X.X9X8X9X9X9X/.0Xp./././.7XfXHXY .     6 # . o hXhXfXaXsXsXvXvXvXvXvXvXvXsXsXsXsXsXpXyXpXrXrXrXrX}.7XrXqX",
"/.^./.p.^.R.E.E.R.i.y.y.y.r.r.t.r.r.r.;.;.o.o.o.|.uXyXj.X   # j @   d DXhXfXaXaXyXaXaXdXdXfXfXfXdXsXfXvXvXsXlXlXvXdXdXdXsXaXuXaX",
"0X'.0X9X8XuX8X8XtX8X8X9X9XXX9XuX9X8X7X0X|.Y.L.L.rXrX2XmXt . d h s < Y hXeXfXhXaXyXyXwXyXyXqXqX0XuXuXuXsXdXvXvXvXaXaXaXyXsXaXyXyX",
"0X0X7X8XfX8XyXuXtXtXuXuXuXsXdXdXvXvXnXfXmXhXT.T.wXpXpXhX=Xd s s s u $XhXfXfXhXfXyXyXqX0X0X0X0X0XyXyXuXyXpXlXlXlXsXsXaXsXaXyX<X{.",
"9XyXyXyXsXrXyXsXsXaXlXlXpXlXvXlXvXvXxXFX%X+X| E W 5XzXjXIXg.s s t J FXmXFXvXfXvXvXvXvXvXaXkXaXkXaXaXaXyXiXyXkXlXlXlXlXlXiXiXiXwX",
"dXaXaXlXaXvXvXaXlXkXvXbXbXbXbXvXxXGXGX1Xs.| _ U w d.JXJXIXj.d f t VXKXGXGXbXbXnXGXGXGXGXGXbXGXGXnXvXvXlXlXlXiXwXaXkXjXjXlXxXlXlX",
"vXvXvXbXbXnXnXbXlXlXbXbXHXvXvXbXvXGXJXd.J L P U F J FXFXJX$X+ g r ] DXGXbXbXvXvXvXbXxXxXvXbXbXvXnXvXvXsXaXsXsXdXsXlXlXlXsXzXjXlX",
"lXvXvXvXbXlXvXvXlXlXlXxXlXjXlXkXlXzXGXG q H J L H H DXJXfXDX< O @ + s.HXvXfXlXvXlXlXlXlXlXlXjXlXsXpXpXrX7XrXrXrX,X2X2X2X[.[.[.[.",
",X7X2XXXyXrXXXrX2X2X2X<X[.>X,X2X2X<XjXG 2 4 4 4 e H hX4XeX*Xo   o < Y qX].|.Y.Y.(.I.(.I.(.].[.[.~.~.K.K.W.W.K.L._.W.W.(.(.J.J.F.",
"`._.~.W.W.W.W.`._.'.].[.}.}.XX{._.].[.R 1 q 4 H 1 T eX1X=Xu O + < e &XY.(.(.I.).(.(.(.(.(.(._.`.W.W.K.G.E.L.J.G.F.J.J.N.J.B.B.N.",
"|.`._.W.W.W.(._.[.[..XXX[.`._.`.(.).).U.D 2 2 1 e Z.Y.U.$X+ i 6 L U.[.].[.>X[.[.[.].`.`.)._.(.~.G.F.F.y.F.t.y.t.D.w.w.0.w.q.0.8.",
"XX2XXX}.'.|._.|.'.`.).`._.(.W.K.W.(.W.[.%XQ F D m.,XqX4X[   o @ +X>X).Q.P.P.P.J.(.W.(.W.'.`.(.K.G.G.G.y.G.y.G.t.F.J.B.D.q.w.w.0.",
"0X'.'.|.'.|.I._.`.`.]._.}.}.[.`.`.].`.[.[.;X>X>X<X,X,X$Xa.NXk a.4X{.].`.].].'.].}.}.{.{.].Y.].K.|._.~.W.W.~.G.D.t.K.W.W.`.(.`.(.",
"rXrXrX2XrXrX7XXX[.[.[.[.[.}.}.2X}.2X,X[.XX[.[.}.,X].4Xx.k UXAXVX1X{.}.|.'.{.0XXX{.}.}.0XqX0X{.}.}.XX,X}.|.K.D.J.Q.[.2XXX].oX}..X",
"XX'.XX}.}.rX2XrXiXwXjXiXiXjXjXlXxXlXxXxXxXxXxXxXbXcXPXa.r k k.IXhXpXtXuXyXrX[.~.sXlXlXaXaXkXaXaXaXvXkXaXaXiXwXwXpXiX<X,X2XiXpXpX",
"pXlXlXlXpXsXlXlXxXxXxXxXHXGXGXbXxXxXbXxXxXxXbXbXcXJXVX< l.UXh *XhXaXsXsX}.{.|.I.sXlXvXvXkXyX,X{.iXlXaX,XwXkXvXvXbXpX,X[.[.>X2X<X",
"bXGXHXHXHXnXbXbXGXGXGXHXGXHXHXHXGXGXGXFXFXGXGXbXjXxX4XY z.k.*X$XgXrXrXrX0X}.}.|.vXbXvXvXvXvXaXfXxXnXbXwXY.eXfXfXvXvXlXlXjXiXwXpX",
"GXGXbXHXGXHXGXGXGXHXHXHXHXHXHXHXGXGXGXGXGXGXGXGXbXjXkXIX*Xa T 4XjXrXrXtXrXrX0X0X,XvXbXsXaXaXaXwXfXkXaXfXwXwXwXfXbXbXvXfXqXqX,XwX",
"bXvXvXvXxXvXlXxXxXxXGXGXbXGXGXGXGXxXxXGXxXxXbXxXlXlXiXeXFXJXeXqX<XrXrX7XrXrX}.}._.pXaXqXiXwXwXqX0XqXwXyXyX0XqXwXyXyXfXyXqX0XqXqX",
"{.{.{.{.wXyXaXaXkXkXkXxXxXxXxXcXcXkXkXkXkXkXlXzXlXuXaXfXfXkXyXsXsXsXsXsXsXdXuXsXlXvXvXvXvXvXvXfXdXdXvXvXdXaXyXyXyXyXyXyXfXqXqXyX"
};
