/* XPM */
static char *_13eaf062b794c6e958701b0858d428fQFHpLuhfbowLbicf[] = {
/* columns rows colors chars-per-pixel */
"64 64 123 2 ",
"   c #A76E19",
".  c #B0751C",
"X  c #B97F18",
"o  c #AF7920",
"O  c #B47C23",
"+  c #BC7F26",
"@  c #B57E28",
"#  c #BA7F28",
"$  c #B5811D",
"%  c #BF851E",
"&  c #B78023",
"*  c #BB8424",
"=  c #BC842D",
"-  c #BE892F",
";  c #BC8630",
":  c #BE8831",
">  c #C38D27",
",  c #C88921",
"<  c #C1862D",
"1  c #C28A2D",
"2  c #C98E2D",
"3  c #CC9027",
"4  c #C7902C",
"5  c #CC922D",
"6  c #D0962A",
"7  c #D29A2E",
"8  c #C28631",
"9  c #C48C34",
"0  c #C98E35",
"q  c #C58D38",
"w  c #C98E3B",
"e  c #C69135",
"r  c #CC9333",
"t  c #CF9835",
"y  c #C7913A",
"u  c #CB943C",
"i  c #CF9A3D",
"p  c #D19635",
"a  c #D39C35",
"s  c #DA9E35",
"d  c #D2953C",
"f  c #D49D3B",
"g  c #DA9E3C",
"h  c #DBA135",
"j  c #D6A13C",
"k  c #DBA33C",
"l  c #DDA93E",
"z  c #E1A63D",
"x  c #E4AA3E",
"c  c #CD9740",
"v  c #CF9A41",
"b  c #D49741",
"n  c #D39D43",
"m  c #DA9E44",
"M  c #D59F49",
"N  c #D6A144",
"B  c #DBA443",
"V  c #D5A845",
"C  c #DDA945",
"Z  c #D6A34A",
"A  c #DBA44B",
"S  c #DEAB4C",
"D  c #DCA751",
"F  c #DEAB52",
"G  c #DEB150",
"H  c #DFB85A",
"J  c #E1A644",
"K  c #E3AB45",
"L  c #E8AE45",
"P  c #E0A34A",
"I  c #E3AD4A",
"U  c #E9AF4A",
"Y  c #E6B145",
"T  c #E9B244",
"R  c #E5B14D",
"E  c #EAB34D",
"W  c #EEB94D",
"Q  c #F3B64E",
"!  c #F2B94E",
"~  c #E3AE52",
"^  c #E4AE58",
"/  c #E5B354",
"(  c #EAB553",
")  c #EEB954",
"_  c #E6B359",
"`  c #EBB65A",
"'  c #E6BA5C",
"]  c #ECBA5B",
"[  c #F0B753",
"{  c #F2BC55",
"}  c #F8BE55",
"|  c #F1B759",
" . c #F2BD5B",
".. c #EDBE62",
"X. c #F3BE61",
"o. c #F8BE60",
"O. c #EDC15E",
"+. c #F6C355",
"@. c #F4C15D",
"#. c #FBC35C",
"$. c #F9C95A",
"%. c #EEC363",
"&. c #EDC568",
"*. c #F4C363",
"=. c #F9C464",
"-. c #F4C966",
";. c #FCCA65",
":. c #F4C56A",
">. c #FAC469",
",. c #F4CA6C",
"<. c #FACB6C",
"1. c #FED067",
"2. c #FCD16E",
"3. c #F6CC71",
"4. c #FBCD73",
"5. c #FCCC7A",
"6. c #F7D070",
"7. c #FDD274",
"8. c #FFD876",
"9. c #FFD37B",
"0. c #FFD97B",
"q. c #FFD583",
"w. c #FFD982",
/* pixels */
"9 9 2 9 0 0 0 0 8 0 9 0 9 0 0 u 9 = 9 8 9 : e 9 e e i v y e - : u u e e i i i u M i c u y u v n c c c q : c : : c : : ; ; ; ; @ ",
"0 0 0 0 w w w w d w d w w u y 0 0 9 0 9 e e e e u i v N N u u i N j v i v v v v N M M n M M Z Z M c c c c v c c c c q c ; : : : ",
"0 0 0 0 0 8 w 8 0 0 w 0 u y y u d y d u e e e e e e e e e 9 9 u e e - - : : e 9 ; : : : 9 y 9 : : ; = @ : : : : ; ; ; @ @ ; ; ; ",
". . . . # # # < < < 8 0 9 0 y 0 u e u u 9 e e u e e 4 - 1 1 9 y : - - * e e 9 9 e y i c y y q 9 c q q : : y : : : : : ; ; ; @ @ ",
"+ + + + + < < 8 9 9 8 = 8 u y 0 q 0 q 9 u M Z A A N n i n A D A n n n n N M M n v Z : o = : : : : q : : q : : q c : : # ; @ ; ; ",
"m d 0 8 8 0 w d d d 0 0 u b M b b b M M B A D A ~ Z i 9 v Z I Z A A Z A Z Z M M v V i o ; : : y c c c v c : : : : : c : @ ; ; # ",
"d d 0 1 8 0 0 d w d 0 q = w Z A D ~ D I A A A A S S A Z A F I Z N Z N A v i u u u M D D D D F F Z M c y y : y : c c c c q q c : ",
"d d d d d b b m m M m b A ~ ~ m P A A A A A A A A N N B f N N n n d i n v v v i u v Z M v v v v c q : : = ; : : @ @ : : ; ; # # ",
"P P P m m m m m m m m m n B A ~ ~ P F I ^ ( ^ ^ _ / _ ^ ~ F ~ F A Z A ~ ^ S F N Z N N V v y y u u e : = 9 < = 9 c : 9 9 * 1 < > ",
"d m m P P m P m P P A m d n m A m M Z M Z M b c q y u v v v v v N i e : c D Z Z Z Z Z Z Z N V Z N N v i M A n u : # < = O & * * ",
"p 2 8 8 0 p p 0 0 8 0 1 1 < * * 8 0 9 q 8 < # O @ # ; 8 9 8 8 9 9 ; O   : F Z Z Z D D Z Z Z D V v v n i d m n r q ; = = & & * * ",
", 8 2 2 0 0 0 p m g m g f d d d w w w w q q 8 w c 0 w w q q q q q q 9 = q D D Z F F G F v Z S D v N N N u u u u q 8 9 9 4 1 * $ ",
"0 p 3 p 3 p g m f J I E B f t r d M Z D ^ _ ^ _ Z ^ D M M M M M Z D F ^ ^ ^ F F ..^ _ S D F G S N n f i e r u e e 9 1 * 2 4 4 2 ",
"g g g g g g J J g J I I K C B j ~ ~ ( ` X.X...*.X.:.X...X.X.] X._ _ ] ] ` ` _ _ ^ D Z V S S S S V N N f d f f f t t r r r r 6 5 ",
"U Q U U U U Q E U U E E E E E R E ( ( ( ) ( ( ( ( R I I / R E / ~ I I S I I / R C V V S R G R R R R I I C C C B B N B B f a f s ",
"s g g g g g s s g z k j h h k k J k J k B k N k B f f f E E ( E ( E R I A Y R R C S Y Y ( ( / W ( / / R I I L R B j k k k k k k ",
"s s s s s z h h s z z h z z z J J L J J J P U E I I U U R R / I Y K S S S I I S K S C S Y I K C l V k j B f a r f p a a a h f a ",
"h h s s g x x h z x z z z z L L U U L L U E U ( U ( ( R E R R U S C Y Y Y S Y Y I Y R G U I I K j j j j k k a p p 7 j k z k k l ",
"z z z z s z z z k z z z J L U L J I U U ( ( ( U / U U E U I I K S Y Y S S S Y G R K Y R R I K A l j j j s a p p 5 5 a k f h h j ",
"Q L U L L Q L L L L E R U L L U J L U E U U I K K U I I I I I K S S C K S Y I I G C S S U I K A C S C k B k k B l k k x k h k k ",
"E J J I L J J J a a k h j h k Y C K E W U K K U ( ( [ ) ) [ ) [ Y R R ( ( ( W / / R W R ( E U E R R U E ( I L W E L J J K K x C ",
"k k J U L P z g a j k j j j C K R / ) )  .) ) ] } {  .[ ) ( ) ( +.) ) ) ) ) +.) +.) ) ) [ [ ) ) R R ( ) ( U E ) E E Y x x J K x ",
") {  .#.| } } o.;.;.;.;.) @.@. .{ { ) O.+.@. .+. .[ ) { }  .}  .@. .O.) ) ) ) O.) ) ) ) ) ( ) ) R R ( W K J C L L U E K x K x J ",
"( ) ) )  .=.} o.) } @.@.{ @.@.] +.) +.) ( { { (  .}  . . .|  . . . .( R W / / ( ( ( ( ) ) ( ) ) ) ( K A f r p f g k K L J J K J ",
"R Y S Y K I I Y ( ( ( / R Y S Y R W ( W I L R ) ) ( ( ( ) ( ( | ) { ` I ( ( ( ( ( ( / ( P K A I B j i u r r r 5 p p p p g d a p ",
"R K S Y C C S I I R Y Y / Y l l R R / R #.@.@.#. .#.=.o. . . . . . . .( ] | ] ` ] ` ` ` ` ` ` ( S S C C C C C V f g g g d p r r ",
" .) )  .}  . . .o.o.]  .} W Y Y W ) +.) #.$.$.+.@. . .@.@.@.@.@.) )  .*. . .o. .X.]  . ./ ( ( ( ( ( ( R / R R R K J J J J J J g ",
" .{  . . . . . .` ` ) E E Y Y T W W +.W W { [ E Y Y Y L Y I Y K k f B Y =.*.=.=.X.@.X.@. . .*. .@.O.) ) ( E Y R I U U U L L L J ",
"{  .}  .W E L K U K J L K Y T W { { } [ [ [ [ [ R K K C k C B f 5 r N K ]  . .*. .]  .{  .{ { ) ) ) ) ) O./ W R R U I U J L J J ",
"k J C B k s s f a 7 7 7 h k l z K L K z x k k k k k f g k k g f t f f B ) ( ` (  . . . .] { ] ) ) { ) ) ) ) E E E E E R I P K K ",
"W ( ( E { ) U U k z x L K x T T T E W E ) { { [ )  . . . .@. .] ] ] ` `  .] ]  . . . .{  . .]  .] ] ) ] ( ( / ( ( / ( ( R / ~ U ",
") { ) [ ) I B a 5 5 p s x x x T Y W [ #.@.} @. .]  .#.=.=.=.o. . .( I S ( ( ( (  .]  . . .]  . . . .) ] ] ] ( / ` ( ` ` ` ( ` / ",
"{  .{ { K j t 4 p X s z L E U L W } ;.;.=.=.;.;.=.=.=.-.*.*.*.*. .] ] ` X. .X. . . .o.*.>.X. .X.X.X.X.X.] ] X.*.o...X.] o. .X.` ",
"( R C l B j j a g g U U I U I U R C k k a j L (  . .@.@.] X.X. .X.X.] ] `  .` ` ` ` _ / I ` ] ..] X. ...*..._ ~ Z M b b M Z A m ",
"4 > * $ 4 a k I [ [ o.} [ ( | ( K f 4 4 a j k C ) ) ] ) =.@.o.*.*.X.] ] X. .X. .]  .] ( S ` ] | ] ] ] ] ] ` S A I P A B B M b u ",
"K L K K I Y ( E | }  . .o.o.o.o. .X.) ( E (  . .-.;.@.=.-.>.;.;.=.*.*.*.o.*.>.o.>.*.>.>.>.X. .X.o...X.*.] X.*.*.>.>.=.o.o.o.o.=.",
"R E E R R R E ( o.| | o.o.o.o.|  . . . .;.@.=.;.=.;.-.;.<.;.<.<.<.-.=.$.]  . . .] @.X.@. .| ) ( ] ) ` ] ) ` ] )  .` ( / ~ ~ ~ ( ",
"Y I L R R R R L } ( ~ U I U ( |  .[ [  .=.#.=.;.=.#.=.=.-.-.=.=.@.] ( ( ~ / ( ) W / / ( ( ( I I I U U I U U U R B B k j f k f f ",
"Y K K K K S k f Q [ ( U  .[ / U K B B f B I / ( / / / E R R R / C C V V S S I I C B C B K P B k N k k B m k k k f f i a t a a f ",
"C C K S k a t 2 a J E U K K I U I C N j j S E / ( ( ] ( O.] ] ] ' / ( / R R S N / R / / ( ( / ~ K A K A C A K A C C B N C A B B ",
"/ ) X.^ P ^ ^ ( I K I ) E ( ) )  . .@.=.] X.%.X.X...........X...%...] _ ........:.:.........' _ ..] _ / ( G S S A S F _ F _ _ ..",
"o.<.o.o.o.>.>.>.-.] ( )  .@.*.*.>.-.<.4.<.<.<.,.3.3.3...X.X.:.:.:.:...:.:.....:.:.3.4.5.4.4.3.:.:.:...' O./ I S F ..&.3.:.:.....",
"X.o.o.X.o.o.>.<.*.) / / %.@.*.-.,.-.<.<.,.4.,.,.:.:.:.*.5.>.3.>.:.:.....&.....&.&.&.,.3.7.7.6.,.3.....' ' ' R S v D %.,.........",
"X.o.4.o.o.o.>.;.@.O.$.;.-.<.<.2.2.7.7.8.7.7.7.9.8.8.7.4.5.5.5.4.4.5.4.5.4.5.4.3.4.4.3.3.3.4.3.,.....' G _ _ / G ......%.........",
"W ) ( W ] [ [ W W T W +.! ! } +.} #.#.#.Q Q Q [ S &.-.,.<.7.7.7.5.4.3.<.:.3.4.4.4.7.8.6.2.6.6.8.5.3.:.&.:.-.=.-.%.&.-.' _ ..%.&.",
"+.W ) ) { [ ! W W T x x z h s 7 6 7 s s 5 3 , % $ G <.*.,.<.<.4.<.<.<.<.:.:.3.4.-.<.-.6.2.6.6.6.4.5.4.4.7.<.2.6.=.=.*.O...' *.-.",
") +.) +.) { } ) ! +.$.$.$.+.! { {  .=. .X. .) / V O.-.O.*.*.-.,.<.:.<.:.4.>.3.:.-.*.%.%.-.-.6.-.3.4.7.8.6.6.1.6.-.%.%.O.-.O.( O.",
"O.O.@.@.+.@.@.@.1.1.1.$.$.1.1.2.<.7.9.7.7.8.9.7.2.%.O.-.%.%.-.,.,.<.,.<.3.<.:.:.O.O.O.O.O.O.-.-.,.4.6.9.,.-.,.,.-.O.' %.G S _ -.",
";.;.-.@.@.=.@.-.>.-.-.<.>.-.<.<.4.4.7.4.4.5.4.4.4.3.4.,.6.7.7.5.5.5.7.7.7.5.7.9.4.3.4.4.6.<.,.<.:.:.,.3.<.<.<.3.,.>.:.*.....:.:.",
">.;.<.<.2.2.2.2.<.<.3.<.,.5.9.8.9.9.7.9.9.7.5.9.8.9.9.0.q.0.q.0.8.0.9.9.8.0.9.0.0.0.0.8.0.7.4.4.7.4.,.:.<.>.<.>.4.4.<.>.<.<.<.4.",
";.<.<.2.8.2.7.8.8.9.0.8.4.5.0.q.5.9.9.9.9.9.9.9.0.q.q.0.9.9.9.9.9.9.0.9.5.9.9.5.9.9.9.9.9.5.5.4.>.4.4.4.4.4.<.5.<.>.>.*.=.>.>.*.",
"7.2.<.;.2.2.2.7.5.7.5.5.4.4.4.5.<.4.4.4.5.7.5.9.5.9.9.5.9.5.9.5.9.5.5.5.3.5.4.3.4.5.4.4.4.4.<.<.>.*.>.*.:.o.o.*. .` ` _ / ~ ~ A ",
"@.@.O.@.%.@.O.) *.=.-.] =. .] ] ` ] X.]  ...%.%.*.:.%.%...*.%.' ` ] ' ] _ / / / ~ / ^ / ( ~ I S A S I A / U I P A P P A ~ I A A ",
"( / ( ' ' ( / / S C I / ( ( ] ]  .] ( _ / / S S S ( ' _ / / _ ] _ / / / / / R S K S S I ( / I A I A A C B B N f B N B N m N N g ",
"( ( ( ( ( ( / / R S U / ` ]  . .` / F I ( / F A F _ _ Z F S F _ Z S _ _ ( ( ( ` ~ ~ ~ R ~ I A B B B B m m f f f t r r a a u a f ",
"%.O.%.%.*.O.@.] ] ] ] ( ` ( / ^ A I ~ I ~ ^ ~ F ] ] ] ../ ` / ~ / / F S A A A I / ~ / ~ / U A B B B Z B B N g f f f f f r t f g ",
"@.@.@.=.@. .] ( ( ] ( ( ` / ` ( ( ^ ( ^ ( ` ( _ _ _ _ .._ / ~ ^ / / ( / ` ` ( | ] ( ] _ _ / ( K C I I N V C I R E ( R C S C C I ",
"*.*.*.@.-.@.-.%.O.O.O.@.] ` ..` ] ..X...` ` ` ` ...._ _ ' ] / ( / ( ` ` ( ] X.X.%.O.' ] _ ] ..' / S A V ( ( / _ ] O.O.' O.' ' O.",
"%.-.*.%./ ] ] ' *.*.*.&.&.*.:.:.:.,.:.3.5.5.7.5.5.5.4.4.7.7.5.4.,.<.=.<.:.`  .5.5.3.3.,.&.,.4.3.6.-.-.,.,.,.&.' %.&.-.%.-.&.%.%.",
"-.&.&...:.:.:.3.4.,.3.<.5.9.9.9.9.9.9.q.9.5.9.9.5.5.9.q.3.:.:.:.:.<.:.-.] /  .7.3.3.,.&...&.3.:.%.,.6.3.6.,.&.H ' &.,.&.&.&.,.&.",
"5.9.5.9.5.9.9.q.w.w.q.q.q.w.q.q.q.q.q.q.q.q.q.q.5.5.3.5.:.:.X.X.X...*.X. .`  .5.w.5.6.9.&.6.0.w.&.&.&.6.6.6.6.,.&.&.-.6.6.-.6.&.",
"9.9.9.q.q.9.9.9.w.q.0.q.q.q.q.q.q.q.q.q.q.q.q.9.5.5.5.4.:.*.:...*.=.=.=.] ] ] >.0.6.6.6.&.6.&.6.&.&.&.6.0.8.6.6.O.O.%.%.&.&.&.&.",
"0.0.0.0.0.8.6.5.5.3.5.7.0.9.q.0.9.9.9.5.5.5.5.9.3.5.:.4.,.-.%.%.O...%...' ] ' %.,.,.&.&.&.&.O.O.-.O.O.&.-.-.-.O.O.O.O.-.O.O.O.O.",
",.,.,.,.-.&.' H %.%.&.&.4.4.4.4.4.4.5.5.4.5.5.5.4.3.5.:.7.7.<.2.<.2.4.2.7.7.7.7.6.8.6.0.6.8.2.8.8.-.O.-.$.-.-.%.O.O.-.-.@.-.@.@."
};
