/* XPM */
static char *e28d0d845c274131ea7557ac2c6829f6YOAFsmYaLxxPU3Oh[] = {
/* columns rows colors chars-per-pixel */
"64 64 251 2 ",
"   c #1D121A",
".  c #0C1D35",
"X  c #0E1F3A",
"o  c #051C36",
"O  c #121D33",
"+  c #1C1E37",
"@  c #111C2D",
"#  c #261E2A",
"$  c #0D223B",
"%  c #0E2132",
"&  c #13253E",
"*  c #1B243C",
"=  c #142B3E",
"-  c #1C293C",
";  c #172535",
":  c #1C333C",
">  c #232434",
",  c #2B2533",
"<  c #22253D",
"1  c #23293C",
"2  c #282A38",
"3  c #332B39",
"4  c #2B343B",
"5  c #2E2E34",
"6  c #4D423E",
"7  c #0F1B47",
"8  c #0D2744",
"9  c #142740",
"0  c #192641",
"q  c #162A43",
"w  c #1A2C45",
"e  c #162A4B",
"r  c #1C2F48",
"t  c #172748",
"y  c #173145",
"u  c #1C3344",
"i  c #1D314A",
"p  c #16384C",
"a  c #1D2D51",
"s  c #073458",
"d  c #1D3450",
"f  c #193957",
"g  c #232C45",
"h  c #2B2C42",
"j  c #232E4B",
"k  c #292C49",
"l  c #332F43",
"z  c #223145",
"x  c #2C3545",
"c  c #23344D",
"v  c #2A344D",
"b  c #233A4E",
"n  c #2B394D",
"m  c #343444",
"M  c #32354B",
"N  c #3B354B",
"B  c #35394D",
"V  c #3B3B4D",
"C  c #3C3344",
"Z  c #282A54",
"A  c #253651",
"S  c #2B3651",
"D  c #253A53",
"F  c #2A3B55",
"G  c #2D3E59",
"H  c #263959",
"J  c #333C54",
"K  c #3B3D53",
"L  c #323E59",
"P  c #353757",
"I  c #342B58",
"U  c #1F3860",
"Y  c #463B4B",
"T  c #413E56",
"R  c #473F53",
"E  c #593F40",
"W  c #2D415B",
"Q  c #294455",
"!  c #3C4256",
"~  c #33435D",
"^  c #3B445C",
"/  c #3A485E",
"(  c #354756",
")  c #3F4249",
"_  c #1D4165",
"`  c #364660",
"'  c #3B4561",
"]  c #344961",
"[  c #3B4A64",
"{  c #364B65",
"}  c #42424E",
"|  c #434355",
" . c #4C4254",
".. c #44445A",
"X. c #4A455B",
"o. c #444B5D",
"O. c #4C4B5D",
"+. c #4C4950",
"@. c #534459",
"#. c #534C5C",
"$. c #5B4C5B",
"%. c #574356",
"&. c #585459",
"*. c #4A4D4B",
"=. c #624C5C",
"-. c #68535A",
";. c #73564B",
":. c #736258",
">. c #6A6150",
",. c #444C64",
"<. c #4B4D64",
"1. c #444D6A",
"2. c #4B4C6A",
"3. c #484465",
"4. c #524562",
"5. c #534C63",
"6. c #5B4D64",
"7. c #554D6A",
"8. c #5D4F69",
"9. c #514769",
"0. c #4B5165",
"q. c #44526B",
"w. c #4C536B",
"e. c #4D596C",
"r. c #475264",
"t. c #545366",
"y. c #5C5364",
"u. c #53536A",
"i. c #5C546B",
"p. c #545A6C",
"a. c #5D5A6C",
"s. c #5D5B64",
"d. c #4E5372",
"f. c #545A72",
"g. c #5A5B72",
"h. c #585874",
"j. c #644E63",
"k. c #635363",
"l. c #6D5563",
"z. c #655964",
"x. c #63546B",
"c. c #635C6C",
"v. c #6C5C6C",
"b. c #6D566A",
"n. c #735D6C",
"m. c #785C67",
"M. c #635D72",
"N. c #6C5D72",
"B. c #635471",
"V. c #745C76",
"C. c #57606E",
"Z. c #5B6277",
"A. c #64616D",
"S. c #6C646C",
"D. c #6C6869",
"F. c #7C636C",
"G. c #786767",
"H. c #646275",
"J. c #6B6273",
"K. c #67667C",
"L. c #736473",
"P. c #7C6473",
"I. c #746A75",
"U. c #7B657A",
"Y. c #74697B",
"T. c #7C6B7B",
"R. c #7D6A74",
"E. c #7D717C",
"W. c #797378",
"Q. c #7C756F",
"!. c #8B5854",
"~. c #89665D",
"^. c #94655C",
"/. c #875B74",
"(. c #855B65",
"). c #836266",
"_. c #83646D",
"`. c #83696C",
"'. c #8A6C6D",
"]. c #8B6468",
"[. c #986A67",
"{. c #8A726F",
"}. c #9A746B",
"|. c #836473",
" X c #846B73",
".X c #8B6B73",
"XX c #85647B",
"oX c #826A7C",
"OX c #8B6D7B",
"+X c #8C6578",
"@X c #946E74",
"#X c #946C78",
"$X c #84737D",
"%X c #8B7279",
"&X c #897579",
"*X c #92737B",
"=X c #997777",
"-X c #A3736D",
";X c #A3776B",
":X c #A96E71",
">X c #AA7572",
",X c #A77978",
"<X c #B37A77",
"1X c #AE7566",
"2X c #C17D5A",
"3X c #BB8D5A",
"4X c #98847D",
"5X c #A8886B",
"6X c #BC8A6C",
"7X c #B7866A",
"8X c #AA8475",
"9X c #BA8A75",
"0X c #BB9675",
"qX c #BB946B",
"wX c #C3865C",
"eX c #D58858",
"rX c #CB8C65",
"tX c #C6886B",
"yX c #D28C64",
"uX c #D68E6E",
"iX c #C49365",
"pX c #CB9568",
"aX c #DC946B",
"sX c #D49368",
"dX c #C78B75",
"fX c #C39374",
"gX c #C89577",
"hX c #D49474",
"jX c #D58F75",
"kX c #E19364",
"lX c #E39E75",
"zX c #E5A17E",
"xX c #E8994E",
"cX c #7D6D82",
"vX c #786480",
"bX c #7D7184",
"nX c #6A7288",
"mX c #836D82",
"MX c #8C6C84",
"NX c #886684",
"BX c #8A7482",
"VX c #887687",
"CX c #957786",
"ZX c #8A708C",
"AX c #A27B80",
"SX c #8A838A",
"DX c #A78384",
"FX c #B98882",
"GX c #B59886",
"HX c #C88C81",
"JX c #C49992",
/* pixels */
"5XsX9XJX%.A ^.6XrXhXtX2XhXrX2XzXgXqX7X7X7XiXgXqXfX).4 -.8X3XgXGXtXfXgX0X6X<X7X9X5X0XqXiXiX0X8X=.E }.9XdXgXtXgXtXHXtX7X7XtXgXHX<X",
"3XxXpXiX:.4 3XpXfX6XtXgXgXdXdXhXaXyXyXaXaXaXaXyXkX7XE }.uXeXuXtXyXsXsXrXrXyXuXuXaXlXaXkXkXuX<X!.;.qXdXtXiXpXsXpXhXtXiXiXiXpXsX2X",
"7XeX8X;XR.z 0X9X>X^.}.,X[.}.>X^.-X[.;X>X,X>X>X[.1XDX%.=X,X1X>X@X=X=X}.[.}.=X}.;X-X>X;X>X>X<XAX:.l.AX,X[.-X-X>X:X}.}.=X=X}.7XfXiX",
"8XtX#X].U.r DX{.%X_.%X%X).+X%X(.mXU.cXbXT.T.mXoX'.SX..SXmXF.MXvXmXbXT.T.E.E.E.E./.oXU.T.NXMXCXS.l.ZXNX/.MXNXXXMXoXXXMXNX/.#X9X7X",
"HXjX{.[.`.V }.:.vXbXmXY.Y.mXZXZX XF. X X`..X*XOX~.4X*..X).).@XOX.XOX*X%X{.'.'.}.=X*X XOX+X'.{.:.-.Q.G.W.SXD.G.E.|.XXMX+X/.:XdXgX",
"&.-.Q *.( p *.Q ......K T T ..5.( B ) ! | X.O.| ) &.2 | ) | ..X.C Y @.@. .Y Y  .6.#.! O. .Y *.x 4 Y Y O.o.b ! | ' ] [ [ | &.D.G.",
": 4 s p Q s z s v O * v g < k + e 8 7 e e A G Z f U j A f U 8 $ t r c a r a r a a e p Q v v G d k I I Z 7 8 P Z _ f _ p 8 q z ; ",
"].^.bX].=X|.!.V.e.g ( K.w.f.K.^ K.&.O.#.#.N.U.U.M.N.R.v.Y.K.T Y S.J.c.c.B.c.i.i.i.y.t.D.G.v.T.J.I.E.Y.t.x / nX-.b.l.:.G.).'.'.(.",
">X8X@X-.j.x.k.%.H.2 O.C.$.c.5.6.6.8.8.y.i.x.8.8.7.R i.O.5.H.| o.T.z.$.$.@.5.6.6.i.8.6.8.8.x.8.6.k.$.I.Y.m A.X.5.p.3.h.u. .F.DX~.",
"`.`.D.O.0.p.e.0.C.1 O.a.5.c.6.8.6.5.6.9.5.4.5.4.i.X.i.O.0.g.....k.#.#.s.a.i.p.9.7.7.5.6.i.6.7.5.+.R s.c.3 H.<.i.6.#.u.t.R v.=X~.",
".XOXn.6.6.6.4.5.C.x r.p.o.u.5.t.<.<.O.2.<.t.u.u.h.<.g.<.w.g.^ ,.a.5.5.t.9.5.u.2.7.t.5.u.u.u.u.7.g.t.H.g.M g.,.d.#.#.t.5.O.S.&X{.",
"oXoXV.x.B.6.4.7.e.b ,.w.o.0.,.0.0.,.,.2.,.2.w.w.f.2.f.,.,.w.K K p.0.,.,.' 1.1.,.,.,.,.w.w.w.w.w.,...1.2.S w.,.u.r.0.0.r.<.i.A.S.",
"; : : : p p p p z % w v z n M n S v g g g g g g v v M g g v 0 + g w v J A A c r g z g v v v v j G A S j & k g A v r r r w g g h ",
"; 4 4 4 x z = = i * - r w w 0 O 0 0 0 9 0 w 0 w w w g w g j j 0 0 g z g & * w = q 0 r 0 0 t w w 0 0 X 0 X & * g i X 0 v v h M l ",
"MXDXCX|.n.x.9.3.[ [ ~ ^ ^ ~ F q G G G ` ` ' [ [ W ] ` ` ` [ 1.' 1.,.' F g b ~ ~ ~ ~ ' ` ~ ~ ` ' ~ [ [ d.Z.nXnXnXf.J | H.N.L.mXU.",
"G.&X{.-.$.5.^ G L L S G ~ ~ F & W L L L L G F A H G H G G G L F J S ~ F c n ( W F G G L G S S G F L F F ^ ( B B K.V +.L.m.(.=X.X",
"(.#Xl.Y 9.d.' v A G G A F L F w G F H b D A D D i D i D D D A b F A v ` z L F F F D H D D D D D D D d D d D d b p.m ..c.#.k..Xm.",
".X%Xb.X.u.h.,.L b F A c A G A w ~ W D D D W Q W W W D F G Q F H A A A ~ r L F A D D D D D D D D D A b d A D b b H.! O.i.$.b.*X'.",
"$XmXJ.<.,.[ F j F L F F G ~ L A G D D D b H H A H D D D H H D b F F F ` A L G F D D D W W W D W W W F Q F D Q W t.N | i.6.n.CX+X",
"L.H.p.,.' ~ A c w r w t w r r q i r w w w i r u i y w w w u w q w 9 w r 9 r r q 9 q w w u w w q w r r w q q q 0 <.! w.K.M.T.BXF.",
", , 1 g & & & & w w w w 9 w w 9 w q 9 q w r w w q 9 9 q e w q q 9 $ q q 9 9 y = = 9 q q q 9 9 9 9 9 0 q & & q w @ @ * g * 2 ,   ",
"k.y.c.w.J A F F G ~ L G G F F A i i i r i i i i y w w w i i i i A w A c d i D i b b A A D i i i A A F G G G ~ ] p.e.e.u.u.A.z.&.",
"*XBXVXH.J v G n G L G G F c z i i w i i i i i i i i i i i i i w y $ i 9 i = i 9 w w w i i i i i A F W J G G ~ ' M.M.M.a.J.mXCX&X",
"]._.R.#.< g ~ G F F F F c w & & 9 9 q q w w q 9 w w 9 q 9 w q q q $ i 9 i $ d 8 q q q w i i A i F G ~ G F F S ~ @.$.@.@.=.m.'.).",
"].*XP.@.N * ' ~ A ~ F A D b 9 8 9 9 q y w w 9 9 q i i r q q q w q q q q q q q q y w q q w w i i v 1.F J v ~ ~ A K 7.x.%.=.|.#X.X",
"{.CXE.0.( - F i F G F A D d y w w w w w w y w q w y i i w w w w q w w q q w w q w w q q q q w i b [ z Q G W W W ,.h.M.s.v.T.BXOX",
"&.C.C.( W q d = g w 0 w y w q q q 9 8 9 9 9 9 q q q w w q q q q q q q q 9 9 q 8 9 9 9 9 8 9 9 9 8 w $ D i i i D ~ / w.0.t.c.a.&.",
"# 5 m - u ; : % w & & w q q q $ w q 9 9 8 9 q q q q q q q q 9 q q q q q w q w q w q q q q w i i q q $ i % w w g ; + ; * 1 4 , , ",
"n.z.J.<.u.w.2...A w c G F H Q i i i i w w i i i w w i i r i r r i i i i i i i i i i i i i D D D ~ ~ L J + P P S u.5.2.u.a.c.b.l.",
"CX XOX6.8.7.4.X.~ g F [ W W W d i i y i w r i i y w w w i r y w w w w w w w w w w y r i i i D i J J ,.L h 2.d.9.M.g.i.i.J.oX*X,X",
",X.XOX%.6.i.7.7.` w A ` F D Q q 9 q q q w q q q q q q q w w w q 9 9 8 9 q q 9 9 $ 9 9 q w w 9 w & & A L g ,.2.2.O.<.<.O.6.m.@X>X",
"=X).R.+.@.t.5.u.[ r A ` A D G w 9 q q w w q 9 9 w q q e w i w q w w w w q y q w q q q q 9 9 9 & u o F [ r ^ J ~ ..2.w.O.$.G.}.;X",
"=X%Xn.8.x.u.<.O.L A F G A S F A q y q q y y y q q q q q q w w w y y q q q y q y y w 9 u r r u r q p D Q F F L [ n ~ ,.5.k.|.*XAX",
"R.T.v.6.3.L v c r 0 w r w w r q q 8 = 8 9 q 9 $ q q q q q q q q e w q q 8 q q 9 w 9 8 q q 9 8 9 9 q r r w w r j ] ' 1.h.i.N.F.|.",
"# 3 2 g 0 9 $ 8 9 X 9 w 0 9 9 . q = 9 q w w y q q q q q q q w e y w q q q q q y w 9 9 w w 9 9 w 9 t 9 9 0 0 0 0 8 o 0 S M 2 3 3 ",
"-.J.c.u.d.q.] W ~ G G ~ F F F w i u w p i i i i w w w w r y w i i y y w y w i y i i i i i r i D ~ L L L ~ ' ' ^ [ n L h.h.a.A.z.",
"&XBXI.z.i.u.^ B ` ~ ] ` G G F 9 i y y w i i d i r w w w w w y i w r r p p y r i i i i i i i A W ' L L ` ' [ [ ' a.V +.K.J.L.&X&X",
"`.`.-.%.#.i...V A c A A b A c . w q q 8 = y y = q q 9 e q w w w q e q y w w w e q 9 9 w y w i F J S v A A F b d A.Y  .l.=.l.&X.X",
" XOXv.@.9.2...B F F G F F ~ ~ 0 y q 9 $ $ 8 q 8 q 9 q 9 q q q w q q q y y w q q 8 & 9 q q 9 r A L L G G S H D d C.Y X.x.%.l.|.m.",
"P.T.N.4.9.d.1.' F F G H A ~ G t i y q q q q q q q w q q q q w w q q w w i i y y w q w w q q i A ~ ~ G W G D D D p.! 7.K.8.V.ZX|.",
"cXcXc.i.5.4.,.n r c c r j A c r w q q q q q q q w w q q q q w w q q q u w q w q $ y i y & 9 r c i D i w i i q b ,.! ,.g.a.u.M.K.",
"C N V O.! n F ; 9 9 9 & & w q 0 q 9 9 q q 9 9 9 e q 9 8 q q w r q 8 9 q q w q q 8 8 q q 9 9 9 & $ q q 8 q 9 X q r - z J M m V V ",
", , ; m - @ = = A A b c c A A r y i r i i i i r w w w w u r i i w w r i r r i y y i u i b F b 0 0 b A v F A i c b c n v 1 > > # ",
"I.J.c.p.( b ' q.` ` ~ ~ ~ G F A i d i i i i i i w i y i i i i i y w w i r i r i i p i i H ~ ~ H F ~ ` ~ [ ` L ' ` [ e.e.p.K.Y.J.",
"F.oXI.t.x 1 J v F F F G F c 0 & q w q w w w q q q w w q q q q q 9 9 q q q w q q 8 9 q = w i A A A L G A G F A L k S ^ X.6.V.BXXX",
"/.oXJ.O.h g ' P A c A F A r & X = 9 8 9 9 9 9 9 w w w w w q = 8 9 9 q q q q 9 w 8 q q $ $ 9 r g A L S A F A A G ' ' 2.7.6.V.MXXX",
" XP.s.O.n i ` ~ G F A G F c w w q q q q w q q q r i r i r r w q q q w q w w w w y i i y 9 w i r b D F H G D A W e a ~ ,.5.b.P.P.",
"n.z.t.e.( r a t H j r c c w w r q q q q 9 q q q q 9 q w w w w q 9 q q q q q q 8 8 q y $ 9 w w w $ i u i D i u b f f ~ q.0.y.c.l.",
"g L L F A $ & = & - 9 9 w 0 X 9 9 9 9 8 = 9 q 9 q q q q q e q 9 q q q q q q w q 8 9 9 9 9 w 9 q w . t 0 & 9 & & * g - n n W ^ w ",
"m B < v ^ S b c z w r A F A A A i i i i i i i i i w w w r r r w w r w r y w w w i i i i i i i d G r F b w A A G r z g n n M K 2 ",
"R.N.R 7.Z.1.[ / G w A L G G ~ A i i i i i i i i i i w r i i r p y r y r r w y i i i i i i i i i F A ~ A w F W L ] ] / f.M.J.VXT.",
"%X|.6.7.2.S A G ` q A ~ F F G 9 w q w w q q w q r w q w w r r w q q 9 w e w q q q q 9 q w w q w 9 r ` A w G F A A i g o.6.k. XOX",
".X X=.y.u.P G ~ [ r A ` A H G & 9 8 q = 9 9 9 9 q 9 q q y r w w q q q q 9 q 9 q q q q q q q w q X w ` G c ~ G A W H v O.@.$.|..X",
" XR.$.5.w.L A w ` i A L F F G z q q q q 9 q q q w w q q w i w w q w q q q w q w q q q w w w w w w w G F r G G G H A v ..#.k.oX|.",
"I.VXA.h.d.~ F u A r r A v c A c q q w q w w q w q q q q w y r w q w q e w q q w w 9 w q q w w w g 0 c r t c z A d A F ,.u.H.bXv.",
"# } | J v 9 w q t q X & q & & r q 9 q q 9 9 q q 9 9 9 q q w w q q q q q q q q q q w w w w w w u r X w w 9 w 0 9 e A A J ! ..! > ",
"V J q y d i c g M S S v A v q X g - w z c r q $ = = q y = q q 9 9 q b $ r $ w 9 0 0 0 0 w - & & w ; = z b c c F w w 9 z r * v K ",
"u.h.~ W { W ~ ^ ,.1.[ [ [ [ G c [ ~ ~ [ ' ~ H H b d b D D D b d D A W b A i H D b b D b A A F F F F G ] [ [ [ [ G j w ~ ` ' h.u.",
"O.,.A A f p D Q A Q H A H F g 9 ^ J c F F A d a D D D H Q H A H A F F G w F F A D D H A D H Q D A A H D D D A D 1.A c ~ n J w.3.",
"6.i.K A D D Q D f D b A G L F c [ L A F G G G W W W W W W F G G G ~ F [ w ~ J W G W F F G D H D W W W W D D A H L r c ` u v g.u.",
"x.c.| S J c A w Q D c A J L J z ^ J n v F F G ` H A A F F A A F S J F q.; ^ J F c A F F F A g r A A F F F F A S ' z n / z v g.5.",
"$.z.@.X.,.^ / ( ( W K K T ^ v * ..K M M B J J K ~ K L ~ ~ J J ^ ~ ^ ^ d.* ~ ^ ^ S J ~ ~ ~ L L J F L F S F J J A Z.J c / ^ ..u.V ",
"-.W.I.Y.Y.H.K.Z.f.g.B.N.K.H.<.x H.c.t.t.u.u.0.u.p.2.w.p.p.w.0.p.0.,.e.Z.h / f.e.r.<.<.<.,.2.,.,.u.e.w.,.w.p.w...q.J w / e.p.M.O.",
"6 G.D.v.k. . .| #.$.x.n.V.c.) 1 a.&.#.#.5.O.X.X.<.| | <.<...| <.^ K ,.,.@ k ,.,...! K B B V B B K V B N ! <...K J n * v K B K l "
};
