/* XPM */
static char *_13dbbe305e04d1bbfca27102997e213OJEsT8YxrZ9JzP2n[] = {
/* columns rows colors chars-per-pixel */
"64 64 235 2 ",
"   c #152600",
".  c #1D3301",
"X  c #213903",
"o  c #2B3906",
"O  c #2B3D0C",
"+  c #25370B",
"@  c #2B2E11",
"#  c #303B11",
"$  c #363A1A",
"%  c #2E340F",
"&  c #1C5600",
"*  c #254404",
"=  c #2B4403",
"-  c #284905",
";  c #2C440C",
":  c #2B4B0C",
">  c #25490A",
",  c #32450D",
"<  c #324B0B",
"1  c #364D08",
"2  c #225B01",
"3  c #2B540C",
"4  c #2C5C0D",
"5  c #265508",
"6  c #36570A",
"7  c #2C4611",
"8  c #334414",
"9  c #364D15",
"0  c #37431B",
"q  c #3B491C",
"w  c #2D5A12",
"e  c #2F5710",
"r  c #345E14",
"t  c #395913",
"y  c #196C01",
"u  c #1D6704",
"i  c #2B630D",
"p  c #256B0A",
"a  c #2A6C0B",
"s  c #2C6805",
"d  c #336B02",
"f  c #326C0C",
"g  c #386508",
"h  c #24730C",
"j  c #2C720C",
"k  c #247A0C",
"l  c #2B7B0C",
"z  c #237507",
"x  c #347D04",
"c  c #30730D",
"v  c #3A790A",
"b  c #2E6B12",
"n  c #336414",
"m  c #396611",
"M  c #336B13",
"N  c #376A1A",
"B  c #2C7C13",
"V  c #2F7714",
"C  c #327214",
"Z  c #337B12",
"A  c #35731A",
"S  c #39791C",
"D  c #377617",
"F  c #3E4C22",
"G  c #3B4220",
"H  c #3E5124",
"J  c #465808",
"K  c #41431C",
"L  c #465012",
"P  c #47571B",
"I  c #436D09",
"U  c #526609",
"Y  c #537901",
"T  c #576915",
"R  c #48771F",
"E  c #537115",
"W  c #647D1F",
"Q  c #484A28",
"!  c #435123",
"~  c #4A562C",
"^  c #4C5828",
"/  c #585C2D",
"(  c #4C5832",
")  c #545234",
"_  c #595C3C",
"`  c #545B38",
"'  c #4F622A",
"]  c #596523",
"[  c #576A21",
"{  c #596C2C",
"}  c #536323",
"|  c #5A7322",
" . c #5B7629",
".. c #5D6233",
"X. c #5B653B",
"o. c #5C7432",
"O. c #4B7A29",
"+. c #63732F",
"@. c #657525",
"#. c #626C34",
"$. c #61643E",
"%. c #636C3B",
"&. c #606135",
"*. c #637436",
"=. c #6B733B",
"-. c #697A3B",
";. c #6B722D",
":. c #5D5945",
">. c #645E4E",
",. c #685F4E",
"<. c #655D45",
"1. c #655E52",
"2. c #695D55",
"3. c #6C5F5A",
"4. c #645F59",
"5. c #5E6343",
"6. c #5B6547",
"7. c #5F6251",
"8. c #636345",
"9. c #656A44",
"0. c #696C45",
"q. c #65634D",
"w. c #69634E",
"e. c #646A4C",
"r. c #6A6B4D",
"t. c #6A6346",
"y. c #726B4F",
"u. c #6E7A43",
"i. c #657147",
"p. c #747A44",
"a. c #666152",
"s. c #6A6454",
"d. c #6E6A56",
"f. c #676358",
"g. c #6B6559",
"h. c #6E6959",
"j. c #666954",
"k. c #726B56",
"l. c #72675B",
"z. c #706B58",
"x. c #716B5B",
"c. c #726B59",
"v. c #716C59",
"b. c #726D5A",
"n. c #706A5C",
"m. c #706A5F",
"M. c #726C5C",
"N. c #726C5E",
"B. c #706D5D",
"V. c #746E5D",
"C. c #726C5B",
"Z. c #736756",
"A. c #6E7152",
"S. c #737255",
"D. c #73715A",
"F. c #7A7758",
"G. c #6F6E61",
"H. c #736C61",
"J. c #2C8314",
"K. c #2B8913",
"L. c #348416",
"P. c #35831C",
"I. c #39841B",
"U. c #348A1C",
"Y. c #388919",
"T. c #2C9C11",
"R. c #2B9312",
"E. c #349B1C",
"W. c #339418",
"Q. c #2E8D0B",
"!. c #2BA011",
"~. c #39A31F",
"^. c #3B8D21",
"/. c #3C9422",
"(. c #3DA624",
"). c #428003",
"_. c #4A950E",
"`. c #559B06",
"'. c #488A19",
"]. c #578315",
"[. c #499515",
"{. c #569618",
"}. c #53860D",
"|. c #659509",
" X c #6B8818",
".X c #679318",
"XX c #719718",
"oX c #5AA818",
"OX c #66B417",
"+X c #78B91C",
"@X c #71AD15",
"#X c #468725",
"$X c #429B27",
"%X c #668427",
"&X c #738B2A",
"*X c #6D912F",
"=X c #739929",
"-X c #6D8736",
";X c #79953A",
":X c #44A728",
">X c #4EAC32",
",X c #5BAF35",
"<X c #69A627",
"1X c #7CB121",
"2X c #73AF2B",
"3X c #74C02C",
"4X c #7E9243",
"5X c #7FA047",
"6X c #8DB314",
"7X c #89B514",
"8X c #8BBD24",
"9X c #88BC26",
"0X c #88AB3B",
"qX c #8BB633",
"wX c #83AF26",
"eX c #86C51B",
"rX c #91C819",
"tX c #94C50D",
"yX c #A8CA1E",
"uX c #88C92A",
"iX c #96C427",
"pX c #9FC33B",
"aX c #92D128",
"sX c #AFD523",
"dX c #B1DB29",
"fX c #A9D837",
"gX c #B3E62F",
"hX c #C3EB2A",
"jX c #CAED35",
"kX c #818F46",
"lX c #96B543",
"zX c #92A855",
"xX c #959A60",
"cX c #96A562",
"vX c #B4D64B",
/* pixels */
"b.d.x.g.h.s.g.c.x.x.x.g.h.c.g.s.d.d.d.s.h.H.H.g.d.d.d.w.d.c.g.s.g.d.h.f.g.H.g.s.k.h.l.4.h.h.c.q.d.w.g.d.c.c.d.q.g.x.d.s.g.M.x.s.",
"d.b.n.q.>.w.s.>.w.g.s.q.g.x.M.x.b.b.x.s.g.h.g.>.s.k.d.w.g.N.h.s.d.d.N.a.g.G.k.k.c.c.n.s.g.m.b.w.q.>.q.s.g.b.n.g.g.x.g.s.s.b.x.2.",
"c.c.n.s.s.s.g.>.g.g.s.s.s.g.x.x.h.c.x.a.g.g.h.s.g.b.k.w.s.M.n.s.j.d.g.s.a.h.c.k.k.M.h.a.h.h.h.q.d.s.s.s.s.c.g.>.s.c.g.s.s.x.h.a.",
"s.s.s.>.s.s.s.s.s.s.w.>.s.x.n.M.b.k.x.s.g.g.g.1.w.w.q.q.s.s.1.1.j.r.w.s.s.c.b.S.b.x.h.a.3.g.g.>.s.s.w.2.s.g.s.>.w.g.s.w.s.h.h.1.",
"d.s.s.>.s.q.s.>.>.s.s.q.s.x.M.M.b.b.h.>.g.g.a.>.s.s.s.q.g.g.g.1.w.>.s.>.s.M.k.k.k.k.c.>.j.h.g.8.q.s.s.1.a.s.s.s.s.s.s.>.1.g.s.1.",
"b.D.x.s.h.x.M.>.x.x.c.g.d.x.n.x.b.x.d.s.h.h.H.g.s.b.h.q.s.x.h.a.w.q.q.s.s.b.k.k.k.k.k.s.h.h.h.a.c.b.x.s.s.s.a.w.g.x.x.s.s.d.g.1.",
"c.b.x.1.g.x.x.s.g.x.g.s.d.x.N.x.c.d.h.s.h.h.n.s.h.M.N.s.g.M.M.s.g.s.s.g.l.b.k.k.c.k.h.a.h.h.h.g.d.b.g.s.s.g.s.g.g.c.c.s.g.g.g.s.",
"s.w.s.q.s.w.s.1.s.s.s.>.1.s.2.s.1.s.s.>.1.g.s.1.a.s.s.>.s.g.s.>.s.a.s.a.1.2.,.s.s.s.s.1.a.g.s.>.q.w.w.>.>.q.>.s.q.s.s.>.q.s.s.>.",
"c.s.s.>.d.s.g.s.s.s.g.>.s.s.g.s.s.s.s.q.s.g.h.1.1.g.h.s.s.s.a.s.g.f.G.1.j.a.g.1.2.1.2.s.s.d.g.>.s.s.s.>.s.x.g.q.s.s.s.>.q.s.g.>.",
"k.M.b.s.g.g.c.>.s.b.x.>.g.b.x.>.g.n.x.s.g.M.n.a.s.g.s.s.s.b.d.k.s.H.G.:.h.g.1.g.4.s.a.s.g.x.c.s.s.c.x.s.g.x.b.N.x.x.h.s.l.x.n.1.",
"d.b.x.>.s.s.g.,.g.M.M.s.x.M.H.g.g.n.x.s.w.k.b.s.g.h.s.1.s.b.c.k.B.D.h.j.a.a.g.f.g.1.g.s.g.x.n.s.g.k.b.>.s.s.x.x.x.x.x.q.g.h.h.a.",
"s.s.s.>.s.w.s.>.w.s.s.>.s.>.s.s.s.s.s.s.s.s.s.w.a.s.g.>.q.d.r.S.A.r.r.0.>.6.g.a.g.g.s.s.w.g.g.1.s.w.s.>.s.x.M.x.b.x.x.2.s.s.h.1.",
"d.s.s.q.s.w.s.>.s.g.g.s.s.s.a.s.f.1.1.a.s.d.s.q.g.h.g.1.w.k.S.F.i.=.....$.8.8.j.f.f.s.q.w.s.g.>.s.s.s.>.c.b.N.b.x.N.n.q.s.q.s.>.",
"b.b.x.q.g.M.b.s.s.x.b.1.s.>.a.1.a.s.s.a.s.b.b.s.h.h.h.s.c.F.y.$...T L L ^ %.q.q.g.g.s.s.s.k.n.s.d.c.n.q.g.x.c.g.x.x.x.s.s.>.1.1.",
"c.x.x.s.g.M.n.s.c.M.M.s.s.s.h.s.a.g.s.w.d.k.b.a.h.n.h.g.s.k.8...{ J J J L #.r.q.j.j.s.w.r.b.M.g.s.g.N.s.g.b.N.M.x.d.h.s.s.s.h.1.",
"g.s.g.>.s.s.s.q.s.s.s.>.s.>.1.1.s.s.s.s.s.s.a.8.8.8.9.$.$.9.9.*.T U W E ] u.8.q.a.s.w.>.w.s.g.q.s.w.s.>.s.s.s.q.2.s.2.>.s.s.s.1.",
"g.c.h.1.1.g.s.s.s.s.s.1.s.g.s.1.g.4.h.2.2.q.5.X.'  .T [ *...*.4X].{.].@.-X%.s.s.g.g.a.q.w.s.s.w.s.c.s.s.s.g.s.>.s.s.s.s.s.s.,.1.",
"g.s.s.s.s.1.1.1.g.n.N.a.h.n.n.s.g.1.2.s.2.8.( <  .*X;XzXcX-. .4X=X|.wX=X| { _ <.s.n.n.3.h.k.M.s.s.s.s.w.s.x.c.s.s.q.1.s.s.>.>.s.",
"x.g.s.s.s.s.s.s.s.x.x.1.h.x.x.s.s.g.h.2.g.6.; I =XlXkX+.kXxX%.@.qXpXqX&XU T W =.r.N.h.g.s.Z.b.w.s.g.h.s.g.b.x.s.g.s.s.s.s.w.s.s.",
"d.s.w.q.s.a.s.1.1.s.s.>.s.s.s.>.>.>.w.>.j.~ < -XkX X] / X.p./ @.pX8XU J U T ;.=.9.a.f.f.s.s.w.9.w.s.s.>.>.s.s.>.w.1.>.q.s.s.>.>.",
"g.h.s.q.s.g.s.>.s.s.s.>.s.s.s.>.y.w.>.d.8.^ o.4X*.#.X.q.a.e.} ;XqX|.|.XX X&X4X$.q.s.g.4.f.j.a.7.s.d.s.s.s.d.s.a.s.g.s.>.1.g.s.>.",
"M.b.x.g.g.M.b.s.g.N.b.w.c.M.M.s.,.s.<.q.0.%.u.#.9.r.N.b.j.i.%X0XwX9X7XwX0XkX$.q.d.b.m.4.f.B.B.7.q.g.s.s.s.h.c.s.g.M.n.s.g.b.x.w.",
"c.x.g.s.g.x.d.s.s.b.x.>.g.b.x.s.g.3.g.,.y.F.r.<.j.N.h.r.4XO.=X8X@X7XuXqX*X*.i.h.g.H.l.s.f.G.G.7.s.d.h.s.h.M.b.g.s.c.x.s.s.x.h.>.",
"g.s.>.s.w.g.s.>.a.s.s.>.s.s.s.1.g.2.1.d.q.q.a.q.q.6.%.] W ].iXtXtXrX@X}.I o.i._ 2.s.,.>.a.f.j.7.a.s.a.>.1.s.s.>.s.s.s.>.s.s.s.>.",
"h.s.s.,.s.g.s.s.s.s.s.>.s.s.s.>.a.g.w.e.d.q.r.5.X.*.| =XvX7XyXjXgXdX7X X%X .*.X.8.t.t.t.t.q.g.a.a.s.s.>.s.s.s.>.s.s.s.s.s.g.s.>.",
"M.c.x.s.s.x.x.x.x.x.h.w.h.h.n.s.h.h.d.q.q.D.S.` ! 1 g XXvXsXyXjXhXtX6XXXI * - P / 0.k.t.w.w.s.f.g.x.h.s.s.M.M.s.q.>.>.w.s.x.x.w.",
"h.h.x.s.q.h.x.N.M.x.x.s.d.h.h.a.g.G.N.a.w.D.$.K O - d }.|.9XtXsXgXgXgX+X.Xg - . # / <.>.Z.w.s.s.g.b.h.s.s.M.x.s.h.g.g.s.g.x.l.a.",
"s.g.g.q.s.h.h.N.x.x.x.>.w.s.s.>.j.f.f.a.s.<.K o 7 t d ).@XuXiX7XgXrXaX+X{.v r >   $ ) :.s.w.1.1.s.s.s.,.s.s.s.>.,.>.q.>.q.s.s.>.",
"Z.s.s.s.s.x.x.b.x.x.l.>.s.s.s.>.w.g.a.1.a.) % , 1 g v _.2XOX+X`.3X+XoXoX_.v M r . % Q :.s.g.h.:.a.s.s.q.s.s.s.>.w.g.s.s.s.s.s.s.",
"g.s.s.w.s.b.x.x.M.N.x.s.d.g.x.s.w.D.h.a.r.! o < t I '.{.oXOXoXx `.2X_.oX,XY.j w 7 + G :.h.H.B.a.s.N.x.s.s.M.x.s.g.x.x.s.>.2.>.>.",
"k.d.d.s.g.b.h.k.c.d.d.q.d.c.c.w.Z.Z.M.a.6.8 * 1 6 v v Y._.<X[.d x v '.x l Y.Z i : . # ) d.N.h.j.g.x.x.s.s.N.b.s.g.b.x.s.g.g.s.s.",
"s.w.s.>.q.w.s.s.s.w.s.>.s.s.s.>.w.,.d.5.6.O = 6 m D c v L.d f #XR 2 2 j Y.l l j 4 * O Q 8.s.a.q.s.a.s.>.s.s.s.>.q.s.s.>.w.s.>.q.",
"h.s.s.w.s.g.x.>.s.g.s.>.s.g.s.1.j.h.a.j.` O , 6 m f j V V & 4 O.R s 2 a l z Y.V i - X Q <.k.s.s.s.s.d.>.s.s.h.1.s.s.g.s.s.g.g.1.",
"H.h.h.s.s.g.h.1.h.n.n.s.g.M.n.s.g.h.f.j._ # , t m f j j p b b w 5 f C Z z L./.U.i 3 ; Q y.Z.V.Z.Z.c.c.w.h.x.n.s.1.1.1.a.g.h.h.a.",
"l.h.g.s.s.s.g.w.g.x.x.s.s.M.x.s.h.h.h.q.5.8 , t m C V B B ^.b & 2 C P.L.Q.W.E.$Xf 3 O Q y.w.H.H.b.d.d.w.h.h.h.s.h.s.g.h.h.H.n.g.",
"s.s.s.s.s.s.s.s.s.s.s.>.s.s.s.>.g.1.j.q.5.F O t i C B B J.^.y u a p U.Q.T.T.E.$XS e 8 _ w.Z.l.l.n.b.h.w.s.s.g.a.g.1.1.a.a.g.1.>.",
"s.s.a.q.>.>.s.>.s.s.s.>.s.s.s.>.s.>.s.8.6.~ 9 e N C l J.K.J.y h h h (.R.T.!.:XW.M < ! t.w.V.M.x.b.b.b.a.s.q.s.1.g.s.s.g.s.g.g.s.",
"g.s.s.s.s.s.s.s.g.b.x.s.g.M.b.s.s.1.s.q.0.X.q 3 m a h J.k U.k y u k (.!.T.~.>X#X5 8 5.j.Z.Z.M.c.b.x.k.s.s.>.a.1.1.1.1.s.1.a.a.1.",
"g.s.s.s.s.s.s.g.g.x.x.s.s.M.x.s.g.a.s.q.r.6.( 9 4 n P.U.K./.^.h U.U./.E.R.E.I.i : ~ r.s.l.x.d.x.c.c.d.w.g.s.s.w.g.s.g.g.g.a.g.a.",
"g.a.>.s.1.w.s.>.s.w.s.>.q.s.2.>.s.a.a.a.a.r.X.! - n S P.P.B P.P.J.^.U.B B D n : q 8.q.>.q.s.8.w.w.q.a.>.s.s.s.>.s.1.a.a.a.g.s.a.",
"c.>.s.w.1.g.g.>.s.s.s.>.s.g.g.w.s.s.g.1.j.a.9.X.9 3 i A C C A C b A V A A w > 0 e.q.q.q.a.j.s.2.w.s.s.>.g.x.s.,.s.s.g.1.a.a.g.1.",
"d.>.s.s.s.M.x.s.g.x.b.s.g.x.M.M.l.Z.h.2.h.h.d.5.( 9 : 3 w n n n w w 5 > > + G 8.r.k.h.j.s.H.N.s.g.c.x.s.s.M.M.M.N.h.h.g.g.s.g.1.",
"g.s.s.s.g.b.c.s.s.x.n.s.w.g.g.x.N.H.H.g.h.n.b.w.r.~ 7 * > 7 * . . + .   + ) 8.q.e.A.A.a.g.H.H.3.h.M.b.s.>.g.h.M.N.b.n.s.g.g.g.f.",
"g.w.s.>.q.s.s.>.s.s.s.q.s.x.k.b.N.Z.l.1.g.s.g.>.w.5.~ F H H G 0 G $ @ $ ) d.j.8.q.q.e.q.s.3.3.2.s.s.s.>.s.b.x.M.h.x.h.s.a.a.g.1.",
"g.s.s.q.s.h.s.>.s.s.s.>.g.M.N.N.h.D.g.a.4.g.g.1.w.c.r.5.8.j.e.a.G.h.,.s.c.w.7.8.e.a.q.q.s.g.3.2.s.s.s.,.Z.D.b.c.x.l.x.2.g.1.g.1.",
"b.x.x.s.g.b.x.s.d.b.x.s.s.h.d.d.D.B.h.f.g.h.l.3.w.Z.d.q.7.j.s.2.a.N.M.w.,.c.B.a.g.N.l.s.3.H.H.j.h.M.c.2.s.Z.h.c.b.N.N.s.g.3.g.1.",
"b.b.c.s.c.D.c.w.s.k.b.w.s.b.D.D.d.d.h.j.g.h.n.s.h.b.n.j.j.g.g.3.g.h.h.s.w.b.b.a.h.H.H.3.s.b.S.q.g.l.x.s.s.b.M.M.x.l.m.2.g.2.g.2.",
"s.s.w.>.q.g.w.>.s.s.s.>.q.d.w.s.q.a.j.:.f.s.3.1.2.s.s.a.2.4.2.3.a.j.a.a.>.s.s.q.j.1.2.2.2.w.q.8.q.s.s.<.,.s.w.w.,.s.s.1.s.1.g.2.",
"d.g.s.w.g.s.s.>.s.g.g.w.s.g.d.w.w.s.s.>.a.s.g.>.s.s.s.>.g.g.g.s.s.s.s.a.s.s.s.q.g.w.s.s.w.s.s.8.s.g.s.>.s.w.s.>.s.s.s.>.s.s.s.>.",
"g.d.g.>.g.b.M.s.h.M.x.s.s.g.g.>.c.x.b.s.h.N.b.s.g.b.N.>.s.g.s.q.g.n.n.s.s.N.x.s.q.>.>.w.g.b.b.s.d.b.n.w.g.x.x.s.s.q.s.s.g.b.x.s.",
"d.g.c.>.s.x.x.s.g.g.x.s.s.c.g.w.g.x.x.s.d.h.n.s.s.b.b.1.s.g.d.a.g.N.x.s.s.M.N.s.g.s.s.s.d.d.c.w.g.x.x.1.g.x.x.s.s.s.2.s.g.x.x.w.",
"h.s.s.>.s.q.s.>.w.s.s.>.q.s.g.s.>.s.s.>.s.s.s.>.a.s.s.>.s.s.s.w.a.s.s.1.s.s.s.>.s.w.s.q.s.d.g.q.s.s.s.>.s.s.s.1.s.s.q.s.s.s.s.>.",
"g.s.a.>.s.s.s.2.s.>.1.a.s.>.s.,.s.s.g.>.g.g.g.s.s.s.s.>.g.s.s.>.s.s.a.a.w.s.s.>.>.s.s.w.w.g.s.s.s.s.g.q.g.q.w.s.2.>.q.s.a.s.s.>.",
"M.b.x.s.d.N.b.s.g.s.a.s.s.1.>.s.w.>.w.>.s.w.s.>.g.x.x.1.g.b.x.2.g.N.x.s.g.N.n.s.g.M.N.s.s.g.s.w.g.b.N.w.s.s.g.>.s.s.s.s.s.s.s.>.",
"N.N.N.2.d.n.N.s.w.s.a.s.s.s.s.s.g.s.g.s.c.g.g.s.g.b.n.w.c.x.x.s.g.x.h.s.g.H.n.s.g.x.x.s.s.c.s.g.s.b.b.2.s.s.s.>.s.s.s.g.s.>.s.s.",
"g.s.s.>.s.s.s.>.>.s.s.a.1.g.g.s.s.>.s.q.s.w.s.>.w.s.g.>.s.q.s.>.w.s.a.>.a.s.s.1.>.g.a.>.s.s.s.>.s.s.g.w.s.,.s.s.s.q.>.,.s.s.s.>.",
"h.1.s.a.s.h.s.s.s.s.s.>.s.a.s.a.g.q.s.s.s.s.s.>.s.s.s.>.w.g.s.s.s.g.s.>.s.s.a.a.1.h.g.>.s.h.g.s.s.g.s.s.w.s.s.s.s.s.s.>.s.g.s.>.",
"h.a.1.s.s.x.b.M.N.x.x.s.s.1.a.1.a.>.s.,.s.M.b.s.d.x.x.s.s.x.x.x.x.b.h.s.s.g.s.g.n.H.n.1.s.s.s.>.s.s.s.s.s.s.>.s.g.x.h.s.s.M.x.w.",
"h.g.s.s.>.g.d.x.c.c.x.s.g.a.h.g.s.s.s.s.s.x.N.s.g.g.l.s.s.g.x.x.c.b.h.s.g.a.1.f.g.h.h.g.h.h.g.s.g.s.s.s.s.s.s.g.s.c.d.s.s.b.x.a.",
"h.1.g.s.s.x.b.b.c.d.h.a.a.1.g.1.s.s.1.>.s.s.s.>.s.s.s.q.s.x.x.M.k.b.x.s.s.a.g.g.f.g.h.1.s.1.s.>.w.s.q.>.1.s.>.a.s.s.s.>.s.g.s.>.",
"g.1.2.s.g.b.b.c.b.x.h.1.g.s.g.1.g.s.w.>.s.g.s.1.w.>.s.>.g.b.M.x.b.b.h.s.1.g.4.s.a.4.g.1.s.s.s.>.s.g.s.>.s.s.s.>.s.s.s.a.s.g.s.>.",
"G.4.1.s.s.x.x.c.b.x.h.s.h.H.H.s.g.M.x.s.s.M.x.s.s.>.s.s.g.b.x.c.b.b.g.s.s.a.1.1.g.1.s.a.n.x.x.g.g.b.x.w.d.M.x.s.g.b.x.s.g.b.x.w.",
"h.f.g.s.s.n.b.M.c.c.h.s.h.h.h.a.g.M.d.s.g.b.x.s.g.s.s.s.g.c.g.x.c.b.h.s.g.g.g.g.g.3.h.g.h.h.x.,.s.h.h.s.s.c.g.s.g.b.l.a.s.x.x.1.",
"g.1.s.1.>.s.q.q.q.q.a.>.1.a.f.1.1.s.>.>.w.s.>.>.w.>.s.>.>.s.>.q.>.q.1.>.1.a.f.1.4.1.1.1.1.1.s.>.>.s.s.>.>.s.s.q.2.q.1.>.q.s.,.>."
};
