/* XPM */
static char *_14c3699b9b74b9cdcc2309c7661d8bd4hohbbHJTZ4xyzhA[] = {
/* columns rows colors chars-per-pixel */
"64 64 185 2 ",
"   c #5E5848",
".  c #5F5949",
"X  c #5E584A",
"o  c #5F594B",
"O  c #605A4A",
"+  c #615A4A",
"@  c #615B4B",
"#  c #635C4A",
"$  c #645D4B",
"%  c #605A4C",
"&  c #615B4D",
"*  c #625C4C",
"=  c #635D4D",
"-  c #625C4E",
";  c #635D4F",
":  c #655E4C",
">  c #645F4C",
",  c #665F4D",
"<  c #645C4F",
"1  c #645E4E",
"2  c #655E4E",
"3  c #655F4F",
"4  c #665F4F",
"5  c #615D51",
"6  c #635D51",
"7  c #625E52",
"8  c #645E50",
"9  c #655F51",
"0  c #665E51",
"q  c #645E52",
"w  c #655F53",
"e  c #675F52",
"r  c #65604D",
"t  c #64614E",
"y  c #67604E",
"u  c #66614E",
"i  c #65624F",
"p  c #67624F",
"a  c #68614E",
"s  c #68614F",
"d  c #666050",
"f  c #676050",
"g  c #676151",
"h  c #656251",
"j  c #666350",
"k  c #666052",
"l  c #676153",
"z  c #666352",
"x  c #676451",
"c  c #676453",
"v  c #646054",
"b  c #656155",
"n  c #666054",
"m  c #676155",
"M  c #666256",
"N  c #676357",
"B  c #676455",
"V  c #686151",
"C  c #696250",
"Z  c #686350",
"A  c #6A6351",
"S  c #686053",
"D  c #686252",
"F  c #696252",
"G  c #696353",
"H  c #6A6353",
"J  c #696451",
"K  c #6B6451",
"L  c #686552",
"P  c #6B6452",
"I  c #6A6552",
"U  c #696653",
"Y  c #6B6653",
"T  c #6C6553",
"R  c #6D6653",
"E  c #696154",
"W  c #686254",
"Q  c #696355",
"!  c #6A6255",
"~  c #686256",
"^  c #696357",
"/  c #6B6356",
"(  c #686554",
")  c #6A6454",
"_  c #6B6454",
"`  c #6B6555",
"'  c #6A6754",
"]  c #686556",
"[  c #6A6456",
"{  c #6B6557",
"}  c #696657",
"|  c #6A6756",
" . c #6C6555",
".. c #6D6654",
"X. c #6C6754",
"o. c #6E6755",
"O. c #6C6457",
"+. c #6C6656",
"@. c #6D6656",
"#. c #6D6757",
"$. c #6E6757",
"%. c #6B6855",
"&. c #6B6857",
"*. c #6D6855",
"=. c #6C6956",
"-. c #6F6856",
";. c #6E6956",
":. c #6D6A57",
">. c #6F6A57",
",. c #686458",
"<. c #696559",
"1. c #6A6458",
"2. c #6B6559",
"3. c #6A6758",
"4. c #6D6558",
"5. c #6C6658",
"6. c #6D6759",
"7. c #6E6659",
"8. c #6C665A",
"9. c #6D675B",
"0. c #6F675A",
"q. c #6C6958",
"w. c #6E6858",
"e. c #6F6858",
"r. c #6F6959",
"t. c #6D6A59",
"y. c #6E6B58",
"u. c #6E685A",
"i. c #6F695B",
"p. c #6E6B5A",
"a. c #6F6C59",
"s. c #6F6C5B",
"d. c #6E685C",
"f. c #6F695D",
"g. c #706956",
"h. c #706957",
"j. c #716A57",
"k. c #706959",
"l. c #716A58",
"z. c #706B58",
"x. c #726B58",
"c. c #726B59",
"v. c #70685B",
"b. c #706A5A",
"n. c #716A5A",
"m. c #716B5B",
"M. c #726B5B",
"N. c #716C59",
"B. c #736C59",
"V. c #706D5A",
"C. c #736C5A",
"Z. c #726D5A",
"A. c #716E5B",
"S. c #736E5B",
"D. c #746D5A",
"F. c #746D5B",
"G. c #71695C",
"H. c #706A5C",
"J. c #716B5D",
"K. c #726A5D",
"L. c #736B5E",
"P. c #726C5C",
"I. c #736C5C",
"U. c #736D5D",
"Y. c #726C5E",
"T. c #736D5F",
"R. c #746D5D",
"E. c #756E5C",
"W. c #746F5C",
"Q. c #766F5D",
"!. c #746C5F",
"~. c #746E5E",
"^. c #756E5E",
"/. c #756F5F",
"(. c #766F5F",
"). c #75705D",
"_. c #77705E",
"`. c #76715E",
"'. c #78715F",
"]. c #746E60",
"[. c #756F61",
"{. c #767060",
"}. c #777060",
"|. c #777161",
" X c #767062",
/* pixels */
"S.*.z.6.r.) r.J.*.U._.W f.r.6.D *.*.*.d U.U.].2.*.r.r.d f.r.r.m &.r.z.W W z.j.A *.S.r.d r.r.U.q r.) r.*.r.r.r.2 r.r.J.q *.U.J.q ",
"*.z.J.2 d 2 W 5 r d +.q r.z.I.E.S.E.U.D ) ) 2.* ) ~.U.2 6.U.J.m *.S.U.L ) E.E.j.*.x.S.d r.r.].m d o d d r.r.U.d ) r.z.d +.z.z.2 ",
"S._._.W ) r.J.) q.*.r.5 / 0.z.h.&.*.U.d r.+.f.) *.{.U.d f.[.[.m &.r.r.m e z.j.j.r.S.U.D r.U.U.d U.) ) ) r.U.U.d r.U.S.d z.~.~.D ",
"L r d * d 2 m d x ) ) * / z.I.I.S.S.S.d ) ) ) q d d d o m d d o x ) 2.d W z.j.E.S.S.r.* d ) 2.o ) d d * ) d ) * d B W + d D ) + ",
"S.L W d +.) W q r D +.% +.J.I.~.S.S.r.* W ) ) o ) 6.) 2 r.2.m m L 2 W q / ~.I.j.z.z.r.2 W ) 6.% ) ) r.* ) ) ) ) ) 6.f.d 6.6.6.q ",
"j.S.z.d +.U.[.q S.z.~.W z.J.I.j.x.>.r.d J.U.].) D U.U.* 2.f.].d W q D e 6.~.I.j.S.E.U.D r.J.].W r.U.U.d ) * 2 2 6.6.f.d W 6.2.2 ",
"*.S.S.d r.~.[.W &.r.J.W z.I.I.I.S.r.U.d r.r.U.m r.{.{.d S.{.].W r.) 6.2.G.I.z.I.z.z.z.D *.U.U.W r.U.U.) f.+.r.r.J.J.[.W 6.J.J.d ",
"R L W 2 D d W * x d / % e A 4 , r r D * d D ) 5 d D d + m d m * ) 5 e q q A 4 4 a L W + D W 6.+ * ) d + L 2 * d q m W % m W W % ",
"j.L D d +.6.r.D L +.*.r +.+.) d r.) ) d ) +.) d L 6.I.q +./ A a L *.*.q 6.W ,.W W q +.D +./ +.2 +./ +.+ / z./ $ L R ) % D +.6.X ",
"x.~.~.r +.r.J.5 L E.~.* +.U.U.2 D U.U.2 ) U._.d r D +.2 6.I.I.I.*.S.r.r W q W w D 2 D 4 6.z.J.D R z.[.D 0.~._.E.S.S.U.D z.~.[.d ",
"*.).U.q D r.J.2 *._.~.d S.|.[.d r.U.{.) r.{.{.) r.*.z.q 6.0.h.h.)._.U.) d.6.6.2.+.D z./ J.z.[.+.L z.~.q e h.h.j.j.*.z.r 6.z.f.q ",
"R p D 2 D D W q r D d + W d m q D d D * d d d o L ) W % / z.I.x.&.r.r.* W w e e ) D D 2 D D D + L W / % / I.I.I.z.S.U.q W ) 6.2 ",
"*.L d * W D ) 2 +.+.+.D 2.d ) ) +.D ) d r.6.) r x d ) * 6.I.I.E.S.S.J.D +.W ,.,.r.) r.D ) +.z.% R W +.% 0.~.~.j.j.S.~.D D d W q ",
"_.).U.d r.~.[.q D ~.~.q D m ) q d d D * ) U.U.2 S.S.].W J.I.I.0.x.x.z.d 2.d W q ) D +.d ) z.z.d j.z.~.W 0.z.0.h.*.z.U.D D d W 2 ",
"j.S.U.d j.~.|.) +.~.[.W W 6.d.,.D +.r.d z.{.{.D &.r.U.m z.I.z.z.a.).S.L 6.) 6.,.+.+.r.D z.~.~.+.+.r.~.W 0.~.U._.z.S.U.W +.+.r.W ",
"L L L 2 D q W q D D D q W 5 w m ) d d d 6.d d * t D ) o q D D D r r d o m q m w ) D D * q W +.+ L D W + e D D a r r D % d D W % ",
"*.z.z.D W D 6.W D ) ) * 6.) W q r.W W W 6.m 6.d D W +.2 D R ) 2 D L R 2 6.W 6.W ) ) ) 2 ) ) ) d +.j.6.2 +.+.6.% +.D +.D r.W 6.W ",
"+.W D 2 q q W d +.~.~.2 r.[.[.W d q D q m 2 W d 6.~.~.D +.U.~.D x.U.z.D W q 5 5 r.U.U.d r.U.{.d L / +.d +.r.z.D D 2 q q W q q q ",
"~.+.z.+.J.6.6.6.) ~.U.2 6.[.J.d 6.W r.2.6.) f.W +.z.~.D +.U.~.2 R >.~.D J.+.J.f.) U.U.d ) U.U.d +.*.z.D z.~.~.) z.+.+.6.U.W 2.6.",
"+.q 2 % W d q % D ) d * ,.W W q W m W d D q W 5 D 4 D % W D D 2 d ) +.% W q d 5 ) d ) * D ) ) 2 D W D % D W D + D % 2 % W 2 q % ",
"6.+.+.* W 6.6.q ) ) D * 6.W W q 6.D W D 6.6.6.q W D L 2 ) ) W 2 r.z.6.2 r.) 2.d ) d ) * ) D ) * 6.+.z.q +.+.+.2 D ) 6.2 W ) 6.5 ",
"z.S.J.D J.J.~.q +.~.~.d f.[.[.W W q e q 6.6.J.d 6.~.~.D r.~.~.D d L ) * r.U.U.m r.U.U.d +.U.{.d D +.+.2 6.z.z.D +.S.U.r 6.U.~.q ",
"~.J.J.D J.J.J.W +.~.~.d 6.~.[.d 6.W 6.W J.[.[.) +.z.~.d +.~.~.D 6.U.z.W r.U.r.) ) U.U.d r.U.~.d +.+.z.D z.~.~.+.*.S.E.D +.U.~.2 ",
"+.D D 2 W W W 2 D D d % W W d q W W D q D W ,.% D D D + D D D $ q W W + ) ) ) * ) d ) * D D ) * D D D % e D / + p p L + D ) D + ",
"+.) 6.* W 6./ 4 R R D # D +.6.% ) D ) 2 D ) +.2 r ) r.% 4 R R a ) D +.2 W W 6.W ) ) ) d ) d m ) ) d ) 2 2.) 6.q r.W 6.D W +.+.X ",
"S.z.~.m 6.z.~.x.z.I.z.D r.J.U.W 6.~.~.D +.~.~.D *.z.[.) +.I.E.j.~.~.~.D W d D q ) {.U.d ) m 6.5 ) U.U.d 6.U.[.m d # r q +.S.~.D ",
"r.6.S.q W h.I.x.S.S.~.W z.J.J.W +.S.U.q +.~.~.d L r.S.q A h.I.x.r.J.J.W 6.W 6.6.) ~.U.d 2.2.) d r.U.U.d 2.U.[.d J.) r.L z.I.z.q ",
"&.) r.* W h.I.x.z.z.r.2 D W ) 5 D D D 2 W D L * ) d r.q / h.x.E.r.z.z.D W D W q d ) d * W m ) m ) d W 2 W W W * d d d o e W +.% ",
"%.d ) d 2.U.I.I.z.z.r.d d ) 2.* ) D D 2 D D W 2 x d W q r.z.I.x.I.I.z.q W W W % ) ) ) * 2.W m * ) ) ) * m ) ) 5 D ) +.2 W 2.6.D ",
"*.L *.m f.U.I.j.S.S.U.) r.U.U.) +.~.~.D +.~.~.D ) 5 +.q J.I.I.h.J.z.z.D J.[.[.) r.U.U.* f.{.].d +.U.~.d 2.].].m +.S.U.e ) q q 5 ",
"S.) S.m r.z.J.I.*.*.z.d 6.U.U.m r.z.~.D +.~.~.d q.L 6.,.J.J.z.I.J.J.z.D 6.J.J.m ) U.U.d r.{.].m +.U.U.d r.].[.d R E.~.D 6.6.6.6.",
"x d ) * q D D A D a D + d ) W o D D D % D D D * B 5 W q e q e a 2 D +.% W W +.5 d ) ) # m m m * D d D * ) m ) 2 r L L + W q q 6 ",
"j.L +.q +.6.U.q +.D L 2 W W +.q D +.6.m ) D 6.2.) ) ) * ) ) ) d 6.z.z.D +.+.+.+ x ) r.o ) 6./ a R R +.2 W +.6.q 6.D +.q 6.6.6.% ",
"z.z.z.d D ) 6.% +.~.~.D r.[.~.D +.6.z.d W q W 5 ) U.U.d r.U.U.D 2 e W 2 6.~.~.D *.U.U.d 6.U.I.z.S.z.U.D z.J.I.W e 6 D q 6.z.J.q ",
"~.J.U.) r.6.J.W +.I.~.q 6.J.[.q z.J.U.) 6.) r.) +.U.~.d r.U.U.d U.z.z.D z.z.z.q &.*.U.q W 6.z.I.z.z.z.d +.z.J.W z./ 6.+.J.[.[.W ",
"L q D 2 m d 6.q D D W 2 W W W % D D D q W m W m d ) d * ) D ) * D d q + D +.+.2 L ) +.* 2.z.I.I.S.z.S.q +.W +.q ,.q W q 2.W W % ",
"h.D +.D W e +.e +.W +.2 ,.W / q W D +.D ) W ) m ) ) D * ) ) D 2 W +.+.2 / *.z.W L ) ) * +.I.I.I.z.S.J.D D a W W +.q +.W +.W 6.D ",
"+.q W e W q ,.w +.~.~.D 6.[.[.W D D D q W q W d ) {.U.d r.U.U.D z.z.~.D W W +.q L ) r.q 0.I.I.z.z.z.~.D L q ) q D q W q e q W q ",
"z.) 6.+.f.,.f.6.6.~.~.2 6.I.~.e ) D +.D r.2.r.2.) U.U.d r.U.U.d 6.z.J.D 0.z.I.D *.r.I.W J.z.z.z.z.j.S.L +.+.6.W 6.W r.6.6.W 6.W ",
"6.q q q W 5 m q D d D # W W D < D 2 D q ) 5 m d D ) d + ) D D 2 e D D + D D L + r e +.% W e a D D r q + D D D < ) q W q W d ) q ",
"J.2 +.D D +.+.+ *.+.+.% W 0.A 4 R L W * ) +.6.% R R &.r +.) D d W D D 2 D ) ) 2 ) D ) * W ) 2.q D +.6.% / I.A # +.A z.q 6.q 6.d ",
"r.2 +.D +.~.~.D L r.~.D 0.I.~.Q.S.z.z.D z.J.J.W L E.S.* +.U.U.2 r.~.~.D r.U.U.d r.U.~.D 6.].[.m R S.~.e / I._.Q.j.h.z.2 / q ,.5 ",
"r.2 +.D +.U.~.D R S.[.d W +.h.h.S.~.~.L z.z.J.W *.~.~.D S.{.[.W +.U.~.2 +.U.U.d ) U.U.d 6.].[.m *.S.~.2 e +.0.I.~.E._.D z.W d.m ",
"+.q L 2 d +.D + D D +.% / ~.I.I.j.*.r.2 W ) W q a D D % D m D q ) D D 2 ) d ) 2 ) D ) * W ) W * D D +.< / I.I.x.h.R 0.2 W q ,.7 ",
"+.D ) 2 D +.+.% L D +.% 0.}.~.j.r.j.z.2 D W 6.% +.+.z.2 6.W W W ) D ) * ) D ) * ) d ) * ) W ) 5 L W +.2 0._.I.j.E.j.~.a 6.q 6.m ",
"~.z.~.D z.[.z.) z.J.~.e 2.z.z.j.S.U.~.W 0.z.[.W D J.I.q q W W q +.U.~.d +.~.~.D r.~.{.d r.].[.m z.z.~.q 2.z.0.I.I.j.~.q 6.q ,.5 ",
"~.J.~.D 6.~.z.W R z.].e 0.I.~.'.*.x.r.d 0.z.J.W 6.~.[.D +.6.d.,.r.U.U.d +.~.~.d ) U.U.d 2.].].m +.z.~.D 0.I.~.'.I.j.~.D G.D d.m ",
"D D D X D +.D 2 D D / + e A D r L r D + D +.W % D D W 5 W 2 m W D d D * D D D * D d D * m W ) * a q +.% / A 4 $ $ $ D + m q ,.5 ",
"z.+.+.q 6.W 6.% L +.*.d +.+.J.W W / +.% D +.+.% +.+.D 2 6.+.+.r ) ) ) 2 ) ) ) d r.d +.D ) ) 6.# L +.+.2 2.W ) m +.D +.D +.+.6.+ ",
"+.6.z.2 6.[.[.W +.z.J.2 D 6.6.% z.J.~.D z.~.~.D +.~.U.2 ) r.+.2 r.U.U.d r.U.{.d d + a q 6.z.~.D +.~.z.2 6.U.J.q D 2 D 2 +.z.z.q ",
"6.z.z.2 6.J.[.D z.E.~.d 6.J.J.d z.z.~.D 6.J.E.D ) ~.~.2 ) r.z.2 ) U.U.d ) U.U.d J.) +.R z.J.I.e +.~.~.q J.[.[.) z.D +.L z.~.~.D ",
"z.W D < W W W 5 q 4 D 2 W W ) q 2 D D $ D D D * d W L * ) D W d ) d ) * D ) ) 2 d 2 D % D +.+.% D D D + W m W q 2.q W q W W W + ",
"6.D D * ) W 6.q +.D W W 6.q W W ) ) 6.q 6.f.J.W ) ) D $ +.D D * ) d ) * ) D ) * L +.+.2 +.+.z.W +.+.r.d 6.d ) W W D 6.D 6.W 6.e ",
"z.~.~.D r.[.{.W L q e e 6.5 e W d q m 5 ) W W q z.~.~.q z.~.U.D r.U.U.d +.U.{.d 6.~.~.D +.W D 2 D U.~.d W W W q W q W q W q W q ",
"I.[.~.D 6.[.].d +.W 2.D 6.2.f.6.r.2.6.) J.6.J.) +.~.~.r 6.~.~.D ) U.U.d r.U.~.d +.~.U.D z.z.z.+.+.~.|.D 2.6.6.W J.W 6.6.6.D 6.W ",
"/ d D + W W m % e W ,.6 e ,.,.6 W q W q W W W * q D D + D q a 2 ) d ) * D D ) + 2 ) D   D D q 2 D D D 2 W d d W W q D q W D W q ",
"*.q ) d +.+.R $ R D ) 2 ) D 6.W 6.2 D L +.D +.+ d +.6.q q j.R a L +.+.2 / W ,.w q +.+.+ 6.z.h.W B a.s.d q.B 2.W +.D D 2 ) ,.W q ",
"r.q 2.e 6.I._._.S.S.U.D D 2 m * D d +.d +.~.|.d r.J.~.W / ~.E.x.z.z.z.D 6.W ,.m z.~.z.2 / W D % d d ) * W * d e +.U.~.a r.].~.q ",
"r.d W q D / j.j.*.*.U.W ) ) r.2.D D *.q +.~.|.D &.*.G.w D z.j.x.E._.I.D 6.W 2.W +.z.~.D z.6.z.+.s.r.r.D J.2.6.6.+.z.J.q 6.[.[.d ",
"&.v 6.e 6.z.I.x.S.S.S.d ) d ) q +.D D 2 W D D 2 B W 6.e W z.x.x.h.j.0.2 W q ,.m D D D + D D D % d d d + W q q < D D D 2 W W 2.* ",
"&.5 ) d 6.J.I.h.~.*.r.d D W W % ) L D * +.D L q x d W d / ~.I.I.I.~.~.L 6.W 6.2.6.W 6.D 6.6.6.< ) r.) * / 6.6.6 ) ) D 2 ) W ) 5 ",
"a.d W m 6.z.I.j.S.S.r.D z.U.[.) +.U.~.2 z.~.~.) B d W W 0._.j.x.h.z.z.2 W q w 5 q % q q 6.J.J.W ) ~.~.2 2.].I.e r.~.~.D f.[.[.q ",
"r.d 2.m f.~._._.x.>.U.d r.U.J.m +._.~.2 6.~.U.d q.) 2.) 0.~.h.x.I.Q.~.D f.+.d.,.J.W 6.6.6.J.~.W +.~.z.D 0.I.I./ +.z.z.e 6.~.~.q ",
"&.q 2.* d r r # r r d o 2 D W % 2 D D + D q r * B * m d 4 4 , , $ , 2 o d q m 5 W % D 2 q q +.% e A W + e e W < D q D % q W W + "
};
