/* XPM */
static char *_45ca9910e4648eebf28c472e2959c81vDqvL7KkPSrVBVH8[] = {
/* columns rows colors chars-per-pixel */
"64 64 237 2 ",
"   c #35030C",
".  c #3C030D",
"X  c #3C0A0C",
"o  c #390709",
"O  c #330114",
"+  c #3C0514",
"@  c #340C14",
"#  c #3C0A14",
"$  c #36021C",
"%  c #3D031C",
"&  c #3D0B1B",
"*  c #2F1310",
"=  c #3D0520",
"-  c #370A23",
";  c #361027",
":  c #450B02",
">  c #4B0D04",
",  c #44040C",
"<  c #4B040C",
"1  c #450B0C",
"2  c #4B0B0C",
"3  c #470307",
"4  c #530B03",
"5  c #5E0C03",
"6  c #52050B",
"7  c #5A0509",
"8  c #540D0D",
"9  c #5C0C0C",
"0  c #46110C",
"q  c #4C110C",
"w  c #4C1005",
"e  c #511303",
"r  c #5E1402",
"t  c #571806",
"y  c #54120C",
"u  c #5C120C",
"i  c #59190B",
"p  c #420413",
"a  c #4C0514",
"s  c #450B14",
"d  c #4B0C14",
"f  c #43051B",
"g  c #4C051B",
"h  c #440B1B",
"j  c #4B0C1A",
"k  c #510412",
"l  c #530C14",
"z  c #5B0C13",
"x  c #520D1A",
"c  c #5D0C1A",
"v  c #59041D",
"b  c #441214",
"n  c #4C1114",
"m  c #43111E",
"M  c #4C111B",
"N  c #431812",
"B  c #521313",
"V  c #5C1312",
"C  c #53121C",
"Z  c #5C121C",
"A  c #531A18",
"S  c #680704",
"D  c #640D03",
"F  c #6C0D04",
"G  c #630C0C",
"H  c #690E09",
"J  c #651204",
"K  c #6B1203",
"L  c #6E1805",
"P  c #64130B",
"I  c #6B140C",
"U  c #6C1A0C",
"Y  c #64190A",
"T  c #731503",
"R  c #731A06",
"E  c #781A00",
"W  c #73130A",
"Q  c #741D0A",
"!  c #7A190B",
"~  c #670712",
"^  c #640C14",
"/  c #6A0D13",
"(  c #690F18",
")  c #631313",
"_  c #6C1314",
"`  c #64141A",
"'  c #6B141C",
"]  c #741C14",
"[  c #771914",
"{  c #6F2F0B",
"}  c #772F00",
"|  c #7D2B03",
" . c #77230C",
".. c #7C250B",
"X. c #762F0F",
"o. c #7C2C0D",
"O. c #792606",
"+. c #753007",
"@. c #743009",
"#. c #7D320C",
"$. c #7C3B0B",
"%. c #7B2514",
"&. c #742C16",
"*. c #7C2B13",
"=. c #74261B",
"-. c #7D251B",
";. c #7C2B1B",
":. c #762619",
">. c #7D3415",
",. c #7A3B13",
"<. c #7C311C",
"1. c #72301A",
"2. c #430523",
"3. c #4C0322",
"4. c #450A22",
"5. c #4B0B21",
"6. c #42032C",
"7. c #450E2C",
"8. c #4D052B",
"9. c #570720",
"0. c #540C22",
"q. c #5C0921",
"w. c #5B0B28",
"e. c #411121",
"r. c #4C1222",
"t. c #4E142D",
"y. c #531324",
"u. c #6A0D20",
"i. c #742422",
"p. c #772824",
"a. c #7C2B21",
"s. c #7D3020",
"d. c #7C392A",
"f. c #7F400D",
"g. c #7F4611",
"h. c #871F12",
"j. c #822504",
"k. c #842D05",
"l. c #8B2D05",
"z. c #83260C",
"x. c #8B260D",
"c. c #852C0C",
"v. c #8B2D0D",
"b. c #922C04",
"n. c #922E0D",
"m. c #992D0B",
"M. c #843105",
"N. c #8C3205",
"B. c #873F04",
"V. c #8E3905",
"C. c #85320C",
"Z. c #8C320D",
"A. c #863B0A",
"S. c #8C3B0C",
"D. c #923306",
"F. c #933A02",
"G. c #983805",
"H. c #92330C",
"J. c #9B350D",
"K. c #923B0D",
"L. c #9C3303",
"P. c #832613",
"I. c #8A2514",
"U. c #852C13",
"Y. c #8C2D13",
"T. c #852519",
"R. c #8A2719",
"E. c #842C1A",
"W. c #8C2D1A",
"Q. c #912D14",
"!. c #9B2D14",
"~. c #922D1A",
"^. c #992F1A",
"/. c #853213",
"(. c #8D3212",
"). c #843B14",
"_. c #8B3B13",
"`. c #84331A",
"'. c #8C331A",
"]. c #843C1A",
"[. c #8B3D1A",
"{. c #923313",
"}. c #9A3314",
"|. c #933B13",
" X c #92331A",
".X c #99331A",
"XX c #963A18",
"oX c #9A3B19",
"OX c #9C3D11",
"+X c #852B22",
"@X c #8D2B22",
"#X c #952C29",
"$X c #873720",
"%X c #8D3322",
"&X c #8A3C22",
"*X c #8B3F28",
"=X c #823D20",
"-X c #943323",
";X c #903F21",
":X c #8C4303",
">X c #874801",
",X c #86430C",
"<X c #8D430D",
"1X c #87490E",
"2X c #8D480D",
"3X c #894806",
"4X c #924303",
"5X c #93430C",
"6X c #9C450C",
"7X c #94490D",
"8X c #9D4A09",
"9X c #96500B",
"0X c #854313",
"qX c #8D4314",
"wX c #874910",
"eX c #85411B",
"rX c #8D431A",
"tX c #8D491C",
"yX c #8E4912",
"uX c #974614",
"iX c #934414",
"pX c #9A4713",
"aX c #9A4515",
"sX c #964810",
"dX c #934B13",
"fX c #9A4A13",
"gX c #93431A",
"hX c #9B441A",
"jX c #954A1B",
"kX c #9C4B1A",
"lX c #A14519",
"zX c #A34D14",
"xX c #8C4220",
"cX c #874225",
"vX c #924723",
"bX c #974B21",
"nX c #93432C",
/* pixels */
"pXfXfXpXfXfXpXfXdX8X7X7X8XiX8 # y [.kX8X5XkXdX6X5XkXkXqX7 Y <XfXhX9XqXM p k '.5X5XfXfXdXfXpXaXuX` a D 6 6.# $ C 5XfXfX7XdXaXfX5X",
"(.(.(.(.(.(.(.(. Xn.{.U.XXY.=.n _._.C.{.{.'.v. XJ.(.Z.C.E.W.{.(.V.Z.H.<.1 l  XK.(.{.{.(.{.Y.{.(.iX) ( J 9 a s A.{.{.Y.Z.S. X~.S.",
"Y.v.v.C.Y.v.Y.v.v.Q.Q. XY. XW.2 iXZ.v.n.(.v.Y.~.v.~.(.Z. X{.Q.~./.-XY.*.f l R R.Q.v. XY.{.v.{.H.K.S.~ J XXH s 7Xv. X Xn.v.{.Y.n.",
"Z.v.{.(.Z.(.Z.(.N.C.H.Z.(.v.'.1 C.(.(.(.v.N.(.Y.Y.C.(.(.l.c.(.(.W.b.l.v.l %.U. X(.c.{.Y.(.v.Z.Z.C.] ' qX|.E.s *.(.M.c.{.Q.c.Z.(.",
"Y.Y.Y.Q.Y.Y.Y.Y.Y.W.(.v.'.(...n XX(.Y.'.W.Y.{.D.(.v.l.H.v.Y.(.N.{.b.Z.(.s I v.v.(./.(.Y.W.Y.Y.Y.Z.K.uXC.Y.(.f q.XX(.Y.v.v.(.(.c.",
"H.Y.v.Y.Q.(.n.(.{. Xv.C.(.Q.H d H.H.l.H.Q.n.c.c.Y. XH.H.Q.Q.v.v.#.W.n.R.h 1 /.(.v.(.Y.{.{.Q.{.Q.{.v. XY.G.| y.A.N.Q.~.S.Z.~.~.M.",
"(.Z.(.H.Z.Z.{.Z.(.l.P.J P.T z f *.`.C.Z.l.U.W ` R.W.Q.n.~.(.Y.I C.W.!.;.. , R.n.R W...v.H.l.n.Z.Q.v.n.c.H &.: `./.n.}.&X].Y.~./.",
"R.U.R.U.R.U.R.U.G H z a ( 7 s + 6 x k ^ G ) , f J G E.C.U.*.<.k H *.c.j + j G ;.6 p.U U.U.v.U./.U.>.W.D g h + a p.H.j.2 s *.Y.6 ",
"2 d n j j n 0 & # f a > 0 e.s g + e.s 0 n 1 s d s d h @ a > l j d j d d d s d M j j h M j 8 o ; = r.1 > d s 1 n y j C d o * f : ",
"gXgX<X5XgXgX).u s a tXqX,.0.0X5XJ =XvXgXiXgXjXqXdX_.x + 9.cXrX<X<XiXyXqXqXiXiX<X7X5X<X1XgX[.P $ r `.bXiXqXtXrX[.[.qX>XqXz $ w.&X",
"H.Z.{.|.n.l.K.%X2 eX_.(.5X[.S.H.|.H.N.H.|.n.{.H.H.Z.;.B [._.|.Z.XXXX{.Z.XXXX{.{.Z.{.aXV.H.H. .B N._.|.H.H.hX|.n.K.H.XXXXU.2 %.{.",
" XY.Y.Y.Q.K.N.J n 7XQ.~.v.D.Y.~. X XY.Y.Y.x.n.l.Q.{.U.d 5XY.Q.~.Y.{.Z.v.Z.(.(.v.v.Y.{.Y.Y.{.>.y kX(.R.Q.H.H.v. Xv.v.@XU.U.B /.Y.",
"Y.Y.C.l.j.H.W.^ M ].D.Q.H.Y.J.l.c.Y.(.(.Y.(.(._.Q.J.*.d 5X|.Q.l.c.(.(.(.(.(.v.(.S.v.(.C. X{.*.1 iXZ.(.'.C.C.Z.(.Y.S.v._.c.g U.S.",
"{.Y.v.XX X XR.^ X kX}.c.c.Q.R.(.|.v.v.v.W.'.R.Y.I.l./.2 sXM.Y.{.n.Y.H.Z.v.v.(.{.W.W.v.Z.v.n.E.Z gX(.R.Y.Y.(.Y.Y.I.Y.v.{.C.l c.l.",
"c.{.Q.v.Y.H.c.D r.:X{.v.%X{.#X'.v.Y.|.Z.Z.XXv.Z. Xv.<.0.uX'.Y.(. XQ.Q.Q.Y.Q.~.R.v.{.l.N.n.}.*.s c.Z.Z.H.{.v.l.H. X XH.U.Y.3.@X{.",
"(.(.l.Z.'.P.Y a 1 E.~.S.M.H.N.M. Xv.Y.(.(.! R U.v.Z.+X2 U.Z.Q.l.(.c.C.{.(.{.U.T c. XY./.R.{.*.d E. XH.v.Y.'.'.v.Z.Y.c.'.k.d P.C.",
"U.U.%.K -.P 9 6 % d P.Y./.U.S L ..(.U.;.r k g z F 9 p + d *.S.v.R.U.K c.W.v.&.3.J U.T.I P i.B , 8.#.+Xl.Y.M.E.H P.a.7 C p , 4 ;.",
"n n l 2 d j h % e.h w s & h j + x p n n 1 f s j s h s 4.j d M = s h s s x x n b s j d 1 s M + & : 0 q n 2.b b j 8 l . h h h p M ",
"gXiXiXhXS.uXjXiX4X|.vXx = > gXjX].Y eX<XtXjX:X5XrXdXiXS.5XiX>.y + 1 wXtXB.qXqX:X|.qXuX5XpXpX5XuXuXdXeX< + + < qXiXiXdX<XdXdXiXiX",
"Z./.|.gXA.K.|.S.}.W.{.@.n ).(./._.c.(.zXlXH.lXN.Q.H.K.(.|.H.S.%.2 eXF.~.|.Y..Xn.S.|.pXK.iXaXK.H.v. X{.;.5.s nXN.Z.{.lXN.N.Z.(.{.",
"Y.Y.Y.{.n.{.v.v.(.Y. XC.a dXZ._.Z.C._.(.Z.U.'.(.Q.v.v.U.(.v.{.I.x vXv.x.W.(.v.!.Y.x.v.l.{.v.v.I.(.C.I.c.2 g.K.v./.c. XY.Y.Y.Y.U.",
"Z.(.C.v.{.(.Y.(.(.v.~.z.q.4XQ.Y.v.}.I.Q.Z.Z. Xv.Y.|.H.v.I.{. Xh.w ).! x.{.U.c.{.{.v.v.(.(.(.(. X XM.m.~.l ,XQ.{.Z.v.Y.Y.Y. XZ.N.",
"Q.(.v.Y.{.(.Y.{.l.V.(.*.B 7XH.v.v.Y.W.(.C.{.U.C.U.c.Z. X{.c.Y.'.j < E.N.k.(._.Y.Y.Y.Y.(.Y.Y.Y.Y.c./.J.k.2.w Z.Q.(.S.C.v.(.c.(.H.",
"{.Y.Y.{.Y.(.v.v.~.Y.U.x 1 eX{.Y.N.'.Y.Z.n.l.{.Q.~.{.l.Y.Y.(.S.k.d l C.W #XQ.l.Y._.Y.v.|.v.{.Z.C.! ..-X*.X 5.c. XQ.Q.v.v.{.v.~.Q.",
"Q.Y.Q.{.{.n.Q.{.n.N.U.c a *.Z.n.{.Z././.Z.{.N./.{.z.! %.`.'.(.R.f 1 ) I.I I.Y.Q.D.c.`.W.c.D.J.N.oXW I =.7 -./.c.R. XM.Y. XQ.S.I.",
"c.U.U.U.U.U.c.U.U.E.) < , V *./.(.P.(.W.I.v.Y.'.p.|.z.a 6 | c.l $ # d } 1 z k X.E.G 6 z _ -.+X+X].,.w s + f f j U.C.C./.Y.j.M.R.",
"d d n d d M n M 2 r.s 0 N O g s 2 f h # s 2 j < < s s % + 2 j + g s % f - d j B B s f s 2 1 2 d s B p h m m s n d 2 % & f q A j ",
"5XuXuXiXiXXXiXiX:XuXiX5X_.' u.~ G l + d Z 9 ^ G H G G _ _ 9 G _ 7X>Xl % t.:X0XrXK.gXkXiXiXpXiXgXqX[.jXjXqXiX<XS.7X|.l 2.l =XqXiX",
"|.XXgX|.{.(.{.(.|.gXH.|.(.Y.v.N.(.*.d ].[.R.Z.Q.v.Z.Z.U.c.k.v.c.{.(.O.s $.H.G.~.|.kXuXA.K.aXH.C.K.{.OXG.H.{.H.XXS. X*.> ,XZ.K.Q.",
"Z.{.{.v.v.v.Y.v.c.H.n.Q.Y.{.l.H. X#.x |.H.v.H.n.Y.v.(.Q. X(.(.Y.Y.(.R.A tXQ.l.n.x.Z.(.v.v.{.Y.Y.c.{.(.(.Z.c.Q.v.v..XP.C 7XXXl.'.",
"v.(.Y.{.(.Q.{.(.W.{.Q.Q.v.{.(.Y.Q.{ C qXb.Z.S.v.^.C.C.n.!.C.C.!.(.Y.Y.# 5XQ.Z.E.{.(.v.l.{.{.Y.{.(.Z.U.(.C.Y. X{.U.n.o.d 1X{.c.(.",
"{.Y.Y.Z.(.(.v.(.(.Z.v.C.(.U.{.Y.W.e f qX.XM.E. XY.'.(.Z.l.W.(.(.v.H.W.n |.{.c._.Y.Y.(.Y.Y.Y.v.C.Q.W.(.(.Y.{.l.Q.C.m.W.d rXQ.Q.Z.",
"(.Y.Q.Q.Z.v. XQ.v.S.l.(.%XI.U.n.Y.9 l rXZ.Q.l.Z.c.L v.v. Xl. XY.H.m.W.. B (.Y./.v.v.(.{.(.Z.Z.v.!.].v.I.S.W.v. Xv.n.E.1 1 '.{.E.",
"(.v.H.Y.C.H.c.(.Q.(.Q.K.k.H.R +Xl.+Xl :.{.~.W.I F R.H.v.H.H.R.M./.I.5 C :.l.m.J. X(.Y.Y.Y.Q. XW.Z.} {.Q.Z.(.N.v.v.Y.P a Z P.G.D.",
"P.'.z.c.R.E.E.v.I.W.@XU.H.v. ./ l 6 . y &.) 8 g ^ ( %.;.*.>.u &.V c j $ l <.%.c.U.c.U./.U./.U.c.^ 8 -.R.v.Y.E.R.D u a 2.a 9 U.o.",
"j q > M h s n 2 2 b   X s 5.A # j 1 M a d s 2 + # o > C 5.s s s k a m s a # 7.< n d d d d d n n s # n j n . & 2 d s & s s m f d ",
"dX_.S.qX).r rX<X].d 6.l ]._.4XgXiX2XrXtXS.<XrXl 2.9 _.5X5X5X5XgXhXdX3X2X[.> & 2 iXK.iXuXK.<XiX|.5XqX5XiX_.u % x XXvXjXV.zX].r &X",
"W.|.H.`.J '._.Y._.| 9 rXZ.XXb.H.lXG.Z. XXX{.S.-.j $._.-XH.M.XXaX{.N.zXN..X+X2 xXA.|.aXkXpXuXK._. X(. XU.'.o.0 0X}.M.jXzXV.C.].S.",
"Z.j.(./.gX/./.Z.v.c.2 <X(.Y..Xc.@Xv.{.c.v.(.c.Y.j dX|.I.j. XY.Z./.Y.'.E.I.E.4 tXY.v.(.{.C.Y.Y.(.Y.c.{.Z.{./.h xXn.{.C.l.Y.{.{.N.",
"v.XXQ.v.|.Z.n.Q.~.Y.0.2X(.(.Q.C.N.Z.'.(.C.v.|.U.x iXl.Q.XXU.Z.(.C.Q.l.{.D.U.d j Q.Y.(.H.v.Q.{.(.H.Y.n.v.Q.c.j 4X(.C.C.(.Q.W.v.{.",
"Y.Y.{.(.Y.Y.(.Y..X*.l 3X_.v.R.Z.Y.v.Y. X(.(.Q.P.n <X^.l.C.{.v.Y.m.'.N.~.Q.C.0 ].Y.-XQ.v.n.l.v.W.(.R. XU.n.R.j iX(.v.Q.n.Z./.(.W.",
"Q. XQ.v. Xv.Y.(.l.U.2 c.n.Y. XY.v.S.N.k.v.n.v.(.d E.n.-XM.Y.Y.(.Y.W.n.W.(./.< j M.O.).Z.E._.H.~.N.Z.N./.D._.1 qXZ.Z.n. XY.v.Z.n.",
"v.C.v.C.v.Z.v.(.v.'.2.U.~./.%.t P.E._.c.{.Q.{./.< /.Z.v.W.Q. XZ.Y.E.XXv.v.c.g s n c W.{.Y.v.M.U.v.(.(.U.H.%.j `. X{.Y.Y. X{.n.H.",
"C.{.(.v.XXZ.l.|.V.U.j c.!.V. X[.V 5 P. X(./.'.j.8 1.x E.(.n.b.~.n.U j.L.OX-.g u eXiXl.H.{.(. XH.Q.Q.Y.Y.Q.D , D v.k.Z.N.C.U.I. X",
"Y.U.P.Q.P.W.E.W.-.g   d *.C./.C.].l g V j.l.P.k f 1 . V r ) c.(.;.s u *.;.l O 1 J `.Y.~.U.P.R.l.;.P 4 =.) s f j U.K E.:.D J R %.",
"j n d s s # s # 9 s b r.s 1 . d N X 1 d A n M h j f M d 3.% s 8 d f g x d x m $ # h p s 1 n s # g , # x ,   h 1 j p M j d j . e.",
"<XdXeXe d.l 1 j _.fX[.[.x & h 5.|.dX7X5XgX[._.jXqXjX<X,Xx   0 eX5XgXgXiX_.aXS.J F z f $ j z G / / / _ S D U vXXX5XuXiX5XkX].l p ",
" XQ.{.(./.gXjXS.C k.).J...j 5XiX~.Y.(./.v.OXfX7XH.{.Q.H.*.C eX}.J./.A.6X|.(.Z.~.Q./.2 2 eXN.~.v.Z.l.o. X~.U.n.S.H.(.(. Xb./.<.< ",
"H.l.~.v.Y.H.{.H.K.{.Y.~.U.d <X Xv.Y.(.Y.(.(.C.v.Q.Z.l.Y.Y.n ].}.{.Y.(.v.Z.v.v.v./.(.c.6 dX{.n.(.Z.{.Z.{.{.Z.Z.v.H.v.Y.U.XXn.E.2 ",
"Y.Z.W.Z.{.Z.R.Z._.(.v.v.C.d dX(.Z.{.Y.Y.v.Y.(. XY. XY..Xv.N qXD.v.v.Y.(.(.Y.(.(.Y.n.U.y.$..XQ.C.Y.Y.Y.Y.Y.Y.Y.Y.Y.{.Z./.v.v.=.n ",
"'.S.Y.Y.Z.v.W.C.v.l.H.n.C.l |.!.v.Y.Y.{.'.Y.U.(./.{.'.Y.l.h iXS.Y.(.(.Z.v.v.(.v.~.H.U.3.e E.{.'.(.(.(.Z.(.(.(.Z.-XY.{.(.l. X7 % ",
"Q.l.Y.~.Q.Q.-Xv.@XR.(.'.;.l o.Z.Q.n.n.v.H.l.v.H.N.n.Y.Y.k.0.U.Y.v.v.v.n.v.(.Q.Q.H.k.>.p i v.b.v.H.v.n.v.v.H.v.v.c.H.n.v.H.c.Y % ",
"W.Z.Z.(.Z.v.(.S.n.G./.E.P . P U.E.'.(.(.Z.XX(.(.x.W R.U o.6 *.}.(.(.(.(.(. X(.c.x.P j j %.^.!.Q.(.(.(.(.Y.(.(.(.Z.Q.R.F U.{.=.j ",
"W.(.M.k.c.(.j.U.c...J G 6 4.g z L %.`.U.Y.U.c.P.) f 9 # # . M i.U.Y.U.U.c.U...R ` 3 O % 4 ..M.<.U.U.U.c.U.c.U.U.>.H ( < ) ;.6 p ",
"M % n h & 7.2 d d C M k 1 # $ > p j d s p s h h + o x + f s d 2 s n n d n j d 1 g s b j f s s 4.2 2 n n d n 0 2 j 2 s j j d , h ",
").u d.B p a yXqXtXS.eXiXpX]._ D ~ G H G V z a p j P ~ G / [.iXyXqXiXiX<XqXqXgXeXyXvX|.4XcXM % 2 qXiXqXiXiXiXiXiXrXiX7X,XrXgXfX<X",
"(.W.H.v.d <X|.v.H.{.{.Q.H.{.(.l.l.U.W.~.I.K P h ,.(.I.W. Xv.K.6X{.{.{.(.{.{. X{.H.uXG.H.(.I.s qX|.v.|.hXaX|.{.n.{.{.{.{.{.{.oXK.",
"Z.Q.(.`.h <X{. Xv.C.C.(.C.v.v.Y. X(.N.l.R uX_.h y v.H.C.Y.v./.@XC.C.Z.Z.v.C.C.c.l.E.W.~.C.H.j aX(.v.Z.(.{.v.v. Xc.U.U.(.U.(._.v.",
"(.{.l.E.j dXN.U.Q.Y.v.Y.{.W. X XY.l.H.U.qXN./.B cXm.b. XQ.N.S.W.Q.(.v.(.Y.(.Q.(.K./.] *./.Y.B |.{.{.v.v.(.v.v.Y.Z.{.(.{.{.Y.{.v.",
"Y.Z.N.W.2 uXZ.(.Z.{.{.v.v.v.v.v./.Y.}.v.'.Q.(.2 0X XI.'.Y.H.{.l.v.Q.Q.v.v.n.Y.v.R.Z.S.] 9  .0 jXC.(.C.(.(.(.Z.Y.H.Y.v.v.v.v.Z.v.",
"Q.}.M.-.B |.H.n.v.Y.(.C.(.{.(.c.+X(.b.Q.-X}.Y.h > E.Y.M.Z.(.c.Q.(.(.(.(.(.(.(.Y.n.H.[.S.P v s gXH.Z.H.(.c.v.XXY.v.(.(.(.Y.(.(.(.",
"I.U.u x @ a.{.n.(.{.Q.Y.{. Xx.E 4 `.(.v.v.R./ + g /.V.N.W.Q.v..XY.v.n.Y.Q.n.{.v.~.x.o.W c V p P Q.I.-XW.F T P.W.v.v.{.{.H.n.v.{.",
"9 9 1 p O B ;.*.L %.U.(.U.U.`.`.y 5.4 #.r c < + p *./.*._ T./.z.U.c.U.c.U.C.c.U.) J l 3 g , s g p.I G 9 6 z ) 9 E.U.E.U.E.P.Q %.",
"- f + f b p x X h + s s d d h s a % % f h f s # @ x a j , d s h j j j s j j f j + p - + 2.  @ f 2 , + h & % + + s s d s s 1 . j "
};
