/* XPM */
static char *bf66a72d437c422bf7185cb45207edc2AV7zGac81mMx3VyV[] = {
/* columns rows colors chars-per-pixel */
"64 64 248 2 ",
"   c #0A191C",
".  c #141C19",
"X  c #10180D",
"o  c #18221C",
"O  c #051B25",
"+  c #151D24",
"@  c #011D31",
"#  c #072328",
"$  c #162527",
"%  c #062936",
"&  c #132C34",
"*  c #182E38",
"=  c #1A363A",
"-  c #123435",
";  c #232726",
":  c #2A362B",
">  c #34362C",
",  c #273739",
"<  c #373B37",
"1  c #2A2E33",
"2  c #403E3F",
"3  c #39433B",
"4  c #26433D",
"5  c #18433C",
"6  c #44453B",
"7  c #4C503F",
"8  c #032B41",
"9  c #093745",
"0  c #173946",
"q  c #0A3852",
"w  c #243B46",
"e  c #1A4548",
"r  c #194656",
"t  c #0D4358",
"y  c #2A454B",
"u  c #27484A",
"i  c #384947",
"p  c #38554A",
"a  c #264956",
"s  c #354C53",
"d  c #2B5359",
"f  c #335554",
"g  c #335C5D",
"h  c #395858",
"j  c #2D554D",
"k  c #3B615C",
"l  c #284D63",
"z  c #2D5B6C",
"x  c #285665",
"c  c #3B5C63",
"v  c #355B67",
"b  c #31586E",
"n  c #3C6365",
"m  c #3B646B",
"M  c #386569",
"N  c #3C6573",
"B  c #386777",
"V  c #2C6272",
"C  c #175169",
"Z  c #454C4A",
"A  c #4A554B",
"S  c #58584C",
"D  c #485958",
"F  c #585C56",
"G  c #504F4B",
"H  c #645E4D",
"J  c #695E4D",
"K  c #655E52",
"L  c #6B5F53",
"P  c #645E5A",
"I  c #715F51",
"U  c #43635D",
"Y  c #4A655A",
"T  c #5D6153",
"R  c #5D635B",
"E  c #57645C",
"W  c #5D654E",
"Q  c #65624E",
"!  c #6A624E",
"~  c #656353",
"^  c #6A6454",
"/  c #666955",
"(  c #6D6955",
")  c #65645A",
"_  c #6B6559",
"`  c #65695A",
"'  c #6D6A5B",
"]  c #716555",
"[  c #716A56",
"{  c #72665B",
"}  c #726B5B",
"|  c #786B5A",
" . c #75725D",
".. c #6C6B56",
"X. c #425D63",
"o. c #555D62",
"O. c #426463",
"+. c #446A63",
"@. c #4B6B65",
"#. c #4B646B",
"$. c #446B6B",
"%. c #4C6D6C",
"&. c #466468",
"*. c #5E6A62",
"=. c #576867",
"-. c #4C716C",
";. c #55746B",
":. c #426C74",
">. c #4B6D74",
",. c #466A79",
"<. c #536E75",
"1. c #4B7473",
"2. c #45737B",
"3. c #4C747C",
"4. c #4A7879",
"5. c #547374",
"6. c #537B7B",
"7. c #5B7C7B",
"8. c #587776",
"9. c #636662",
"0. c #656B63",
"q. c #6C6C63",
"w. c #6B6B67",
"e. c #736D62",
"r. c #786C64",
"t. c #687469",
"y. c #757267",
"u. c #667978",
"i. c #716F70",
"p. c #5A837D",
"a. c #4F807D",
"s. c #63847C",
"d. c #688579",
"f. c #72897C",
"g. c #3A7488",
"h. c #33748D",
"j. c #437282",
"k. c #4B7986",
"l. c #537C83",
"z. c #547D8A",
"x. c #597C86",
"c. c #4A798F",
"v. c #637C82",
"b. c #3B869A",
"n. c #558384",
"m. c #5B8484",
"M. c #59868A",
"N. c #4A8496",
"B. c #548493",
"V. c #5D8B94",
"C. c #5C8B9B",
"Z. c #578695",
"A. c #5A919A",
"S. c #4E8288",
"D. c #648B8B",
"F. c #678787",
"G. c #768986",
"H. c #6A938B",
"J. c #73948D",
"K. c #789488",
"L. c #638D94",
"P. c #6B8C94",
"I. c #648D99",
"U. c #718E94",
"Y. c #649293",
"T. c #6B9393",
"R. c #63949C",
"E. c #6B979B",
"W. c #749494",
"Q. c #739A95",
"!. c #74939B",
"~. c #749D9C",
"^. c #7B9B9B",
"/. c #7B9995",
"(. c #7BA29B",
"). c #4B8BA6",
"_. c #568DA1",
"`. c #4A93A9",
"'. c #5998A9",
"]. c #589BB6",
"[. c #6493A5",
"{. c #6999A7",
"}. c #779CA6",
"|. c #6B9EB2",
" X c #51A2B9",
".X c #6CA2AA",
"XX c #74A4AB",
"oX c #7BA4AB",
"OX c #78A6A6",
"+X c #6CA4B4",
"@X c #78A9B6",
"#X c #7BB1B9",
"$X c #6BB0BF",
"%X c #56B1CB",
"&X c #77B6C7",
"*X c #6DB1CA",
"=X c #7BC6DC",
"-X c #869B98",
";X c #83968B",
":X c #85A69C",
">X c #97A69F",
",X c #829FA9",
"<X c #87A8A8",
"1X c #8EB1AA",
"2X c #86ADB7",
"3X c #89B5B8",
"4X c #93B3B3",
"5X c #96B9BB",
"6X c #97B2AB",
"7X c #A3BDB0",
"8X c #99C2B8",
"9X c #88B9C5",
"0X c #93BBC3",
"qX c #97BAC7",
"wX c #88AFC2",
"eX c #A5BCC8",
"rX c #8CC3CC",
"tX c #97C3C9",
"yX c #9BCAD5",
"uX c #97CAD8",
"iX c #9CD2DC",
"pX c #97D2DA",
"aX c #86C5DC",
"sX c #A4CBCD",
"dX c #A3C6C7",
"fX c #A4CCD5",
"gX c #A9D4DA",
"hX c #B3D9D9",
"jX c #AAD1CF",
"kX c #9CD8E4",
"lX c #8ACFE6",
"zX c #A5D5E2",
"xX c #A4DAE4",
"cX c #ACDDEA",
"vX c #A8DAE7",
"bX c #B3DCE8",
"nX c #AFD7E9",
"mX c #ACE3ED",
"MX c #B5E2EB",
"NX c #ADE5F2",
"BX c #BCECFA",
"VX c #B6E8F5",
"CX c #BCF3FC",
"ZX c #B6F2FD",
"AX c #C3ECFA",
"SX c #C5F5FE",
"DX c #CAF3F7",
"FX c #C3D2E5",
/* pixels */
"} [ ( ( ( ( ( ' ' } } ~ } _ ^ ^ ( ( ( ! [ ' w.9._ _ } J _ q.*.Z Z i.q.W / / ' ' [ I [ ! ! } q.) ' ~ ( ( ^ } } ~ ^ } ' ^ ^ } [ ^ ",
"( } ( Q Q ~ ~ W ~ / ^ Q } } } } } } [ Q ^ e._ P w.q.} ~ e.y.i + ; 2 w.R ` t.y.q.}  .[ ! ( e.' ' ~ H ! ~ ] } r._ ~ ' ' / ^ ( [ ^ ",
"( } ( Q ~ ( ^ ~ _ ' ^ H [ [ [ } ' } | J { L > > A y.S < w.2 + + + ; S w.3 ; $ < e.' } ..W ` } ! ^ ^ ! ~ ^ { { ~ _ } e.^ ^ } [ ^ ",
"( Q Q Q ^ ~ ~ ~ ^ ^ ~ H ^ [ }  .} } } ~ { 6 . . $ 3 F ; w 1 & 0 +   < G $ + + $ A t.' S / Q ( S ! ^ ! J ^ ] ^ L K ~ ~ K K ^ ^ ! ",
"( ^ H H ~ ^ Q H Q ~ ~ H [ ' }  . . .T / K > 1 . . 1 D 1 # a j.Z.:.g s , $ O $ 0 =.E q.K ] ] I ^ Q ( ^ ! L ~ ^ ~ ~ ^ _ ~ ~ ' ( ~ ",
"} } ] ! ' } ' ! ' ' } ^ } [ } [ } ' ` ) w.i $ * $ i D * 0 0 b b 4.k.&.# O w w l h # Z q.{ } ] ^ ( } } ^ ! ~ L ~ _ ' ' / ~ ^ ^ ~ ",
"( } ( ~ ' } } ~ ( } [ ^ } [ [ } ] [ e.S 9.=.O w v v :.9 a l l @ @ % l k.B C.I.b # & 1 9.w.P i._ / ' } ^ ] ^ ^ ^ ^ ' ' ' ^ ' { ~ ",
"( ^ ~ ~ ^ ~ K ~ ^ ^ ^ S ( ! ~ ! ! ^ S > 1 o.c 0 N 2.b a a b z.l 8 ,.{.+X+X'.C.9 0 * * Z 1 1 1 9.T ^ ^ Q L L ~ ! ~ ^ ^ F ~ ^ ^ K ",
"_ ^ J ! ^ { ^ ~ ^ ' ~ H ^ _ ^ Q ! / ~ A u - N c.g.z r c.+XN.|.+X|.@X_.N._._.g.% 8 0 & & # & < o.) / } S J } ^ ! ^ ( ^ Q Q _ _ ~ ",
"} e.} ~ ^ } ^ J ^ } } ! ^ } ' ^ / ' *.8.U.v % b g.{.{.|.9X'.|.uXuX@XB [._.'.g.b b a 0 8 a a s =.w.' e./ } } } } [ ' ( / / ' e._ ",
"' } } ~ ^ } ~ ~ ' } ' ~ } y.' H } q.i.p X.x.j.r Z.uXaX#Xz.k.x M.j.,.B [.@Xc.V Z._.B z.c.C.2.l X.Z ` e.~ ~ ^ } } [ } ..( ~ } } ~ ",
"^ ^ K ! ~ ~ ! ~ ! ^ K H ~ / ^ ` ~ 0.i & 0 b j.I.Z.&XrXc.9 a e j s w 0 l j.g.|.{.'.c.g.c.c.x b w o G ' K K { } [ ' } } / ~ _ _ K ",
"} ^ ~ Q ^ ^ ! H ~ } { ~ _ ~ K ) R i = 2.I.V.z.0XqX3.r e z a.B g X.m M V r 0 1.6.2Xz._.c.r r 8 0 . 6 ` S ~ r. .] } } [ ( L ~ ^ L ",
"} e.( ! [  .[ ! ^ } ' ~ ~ ) K A * = = 2.C.C.E.O.>.u M R.R.S.M e e n.XX{.{.,.# 5 L.qX{.r ,.c.j.#.i S y.' ' e.} } ( [ } ^ H K L H ",
"[  .[ ~ ( } | ^ { e.} K K _ w.i.v.P.I.k.I.oXg y -.^.Y.g M z M e e M S.N m M.D.k 0 5.0 w a l b z.0.0.w.` ' _ (  .( [ } ( ! ^ ^ ^ ",
"^ ^ ~ ~ ^ ^ Q ~ ! ^ ! K ) ~ F =.&.v }.qXqXx.4 @.J.H.k k M B M - 5 M R.B ,.a.p.p.h w = w @ 8 V j.<.E A A P ~ ' Q ! ! ! J J ~ ~ L ",
"_ ' ) ~ ~ ~ ~ ~ ! ^ ! K _ 9.w.i % r l ,X-XF u p.J.u ;.$.k.C.&.- e M Y.A.M.M 1.p.1.8.x.c g.9 C V d = o   Z 9._ K ~ ^ ! ! ( ^ ^ ~ ",
"_ ) ~ ~ ~ ) Q ^ [ } } K 0.i.o.X.R.{.}.v.Z i p J.+.4 J.5.N C.>.% e 2.E.A.R.A.a.4.5.f n 2.c.g.].).N 0 # $ Z i.y.K Q ! J ! Q ~ L K ",
"} ( ~ ^ ^ ^ ~ ] { { _ ` t.=.y }.rX@XOX-Xi p 5.H.h u.G.y d z.>.d :.n.@XR.S.OXn.4.F.n 5 d k.h.).h.j.v 5.D t.9.' ' ^ ^ ~ ^ _ ~ ~ ^ ",
"! ! Q Q ^ ^ J J ~ _ ) F X.8.d 2.&XR./.w.3 p (.Q.U <.<.a c E.P.<X3Xn.XXE.A.OXOXp.D.7.0 e XX+X*X&X{.l.X.p F 0.~ K ~ ~ ~ ~ ~ ~ ! J ",
"! ( ! H L ^ ^ J ^ ~ 0.Y w g ,.[.B 3.i.~ 4 k H.p.U u.!.8.g D.2.d m s I.I.M.Y.~.D.Q.s.h # 0 B.[.j.8 % O   i D ) K ! ^ ! ! J ^ ^ T ",
"[ } ] ^ } r.} ^ / y.0.E j n z.[..XP.) S , d.H.5 O.<.^.v.O.m.V.I.:.>.D.x.Y.OX~.Q.F.F.k f % l j.q w 0 0 w D u.F q.] | | I ] } ' ` ",
"} } _ ) ' ' ^ / ( W 3 ; * u w B v <.t.3 @.H.m.p.G.h !.#.@.Q.V.}.:.3.}.k.Y.n.Y.T.k J.F.u 0 E.wX[.z.% 8 & f u.=._ ^ | | ! ! } q.R ",
"_ _ ~ ) ) / ~ F / : X . o u 0 X.r v.` 4 Y Y.(.Q.W.s W.X.F.<XoXbXfXV.XXM..XY.H.a.-.1X^.j - m fXyXqXl @ % , o.*.F L ^ ! J H ^ / ~ ",
"_ _ ~ ~ ) ` ` ~ ' < o o + * 0 s a v.=.Z H.8XH.$.^.<.-X7.W.<XfXBXVXyXOXE.Y.E.Y.OX-.Q.8Xp.j # l.rXc._.b & s 9.9.~ ^ ~ ~ ~ Q ( ( H ",
"} } ' ~ _ } ' } ` q.~ A X.U.qXwXeX-Xp d.7XdXD.5.qX/.4X8.P.tXbXyX0XcXrX{.OXn.4.8XH.Q.<XtX-.e a yXuX+XwX<.i F i.~ T T ~ ~ / ' } ] ",
"( [ ^ ~ ~ ] { } r.y.0., w #.b wXFX<.p 1X:X:XF.v.4X(.^.Q.2XuXVXyXyXnXyX,..X.Xa.3Xp.4.p.F.1.u # d 9Xc.@XF., ; i.` ` ~ / Q / ' ] I ",
"! ] ^ ! ^ { | | r.S > ; = v a @XeX@.s.1X4XW.X.,X}.D.T.<X2XfXAXuXbXNXvXR.#X8XOX~.n.k T.6.^.d v 0X|.V q @ & + 6 S ~ ~ Q Q ~ ^ _ L ",
"! ( ! ! ] } } | r.S 3 , i }._.yXqX<.3X8X<X:XF.2XeX1XdX(.2XbXnXyXmXkXiX#X#X8X8X8Xm.1.~.M.OXn.~.SXcX|.[.l % $ . 6 ! ! ! ! Q ~ ~ ) ",
"( ! ^ ^ { } } [ } r.7 @.4Xv }.|.L.O.~.1X(.^.W.4X5X:XjX^.}.zXVXzXkXpXmXrX#XmXhXpX>.1.sX3.4.n.M @XVX&XXX[.u   $ 3 ( | [ ! ! ~ ~ K ",
"[ { _ _ ' } ' ' ( ` t.E , 4 fX3XqX2XT.!.U.T.<X4X<X^.dX2XyXcXBXNXmX9X@XxXrXXXpX8X&.n qXl.D.E.a % [.{.b v u 4 *.' / } ' ^ ^ ^ ) / ",
"~ ^ ~ ~ ~ / ~ / ! Q S 3 u h hX0XgX5XF.U./.F.<XtXjX(.sXgXnXvXqXiXvXpX#XmXmX8XrX8XL.g ,XL.M.D.e r |.).N.V e U 0.F Q ( ^ L ^ L Q F ",
"] ^ Q Q / ' / Q ( S > i v.3.d L.jX3Xp.d.:XH.(.tXjX}.nXAXVXuXrXmXBXvXcXgXVXCX9X9XXXd .XM.n.n e C.).h.`.=XA.v =.L L ~ ~ ~ L L _ K ",
"[ [ ( ^ / ` / H I } > * c M.n }.fX3Xp.K.f.(.OX8XfX}.eXMXAXcXxXxXVXNXmX&XvXNX@XXXM.r #X4.M M 3.9XN.`.%X%X|.X.Z 9.L H Q ~ ] e.q.) ",
"} [ ^ ^ ) ` _ ~ [ } S , * M.I.1.yX2Xp.Q.f.:XtXsXfX}.qXbXAXAXBXxXVXSXVXmXcXuX9X9XXXd OXR.3.2.n.cXb.h.b.b.V a F _ ^ ! Q ^ _ e.' _ ",
"^ ^ ^ ~ ) ) _ ~ ^ ~ F & w w s 2XbX1X@.8Xf.J.1XhXMXbXVXAXAXDXVXvXNXmXVXmXVXxXuX9X&XR.n.m.k.m l.xX+X XV % 9 #.i.K ^ ^ / ^ ^ _ ^ ~ ",
"_ ^ ^ K K ~ K K ] } 3 i v.,.c eXgXm.8.:X>X:XhXAXsXbXSXAXzXVXAXVXkXvXkXNXZXBX9X+X9XgXk.{.L.OXd B.NX*Xq l a s 9.P Q Q Q ~ K ~ ^ ~ ",
"_ ^ ~ _ ) ) ) L ] r.S . s ,XP.,XDX3X;.:X>XG.jXDXgXFXMXSXzXnXAXVXkXuXpXNXZXNXnXkXNX9X{..XE.{.z z.$XA.wXx.& + 1 9.~ Q / / ~ ~ ^ ^ ",
"_ _ ^ _ _ _ _ ^ { } 9.i s ,XP.6.8XQ.f.6Xt.F.4XdXMXMX0XvXBXAXVXVXNXuXmXZXNXcXaX9X9XM.@X3XM.V.E.yXB..XqXv 0 + ; F / ~ ^ _ ~ ~ ^ J ",
"_ ~ K L ~ _ ~ J ^ { F i D x.y $.3X(.p.7X;X-XeXqXbXfXqXzXnXAXBXmXNXZXZXvXkXiXyX+XXXS.3X3XV.I.x 2.rXn.a l w $ ; F ~ L L ^ ~ ~ ^ ! ",
"_ L ^ ~ ~ ' _ J ! ! R i 5.f h u.MXjXK.6X>X;X4X5X4X~.gXMXgXVXSXfXcXZXZXuXMXpXtX#X8XS.8XS.n.L.e 2.@X9 @ @ # # : E _ { { K P P _ L ",
"~ H ^ ^ _ } } ~ [  .S f.eXc !.5.jX8X:XK.>XK.4XsXtXV.rXCXAXBXzXBXNXpXrXmXVXiXrXOX.X4.OXa.Y.Y.d yXk.% % 0 c D 4 3 K ] r.{ L K ^ ~ ",
"^ ! ^ ~ ' } ^ ^ ! / 3 D F.>.P.#.1XD.K.K.-XK./.dXsX<X8XyX@XtX9XmXZXpX.X@XmX#XE.#Xn.Y.Y.a.1.Y.d k.E.z.z.!.6.&., ; P { r.{ _ K ^ ^ ",
"[ ~ ! ! ~ _ ! H ( S 3 p u u #.!.jX<X/.;X;XG.-XjX(.1XyX8X3.R.NXuXpXSXpXB.yX#XR.(.Y.Y.D.m.$.M.d OXyXl.a r O O $ F } { | L _ ~ _ L ",
"^ ^ ! L ~ ' ) K Q ' i 4 a a a >.W.4X1XK.;Xu.1XhXH.J.hX3X2XrXiX$X3XCXxXR.3XXXm OXn.p.m.D.H.n.c oXXX{.}.l.- O i y.} | ( Q ) ~ ~ L ",
"} } ^ ^ { e.' ^ / q.A u a l #.<X3X-.K.;Xf.d.K./.J.J.4X3XtXiXgX#XiXmXCX2XXX0X.XY.a.Y.m.1.4.4.L.bXoX:.l & #   < y.| } } / ) ~ ^ L ",
"} } { ~ } e._ ) ' F i 8.3.k.,.>.5X}.p.K.d.d.(.H.1X:XOX~.OXxXpXrX9XiXVX.XXX2XOX1.m.k H.tX1.u n.l.O 0 9 & & + Z r.] [ ../ / ~ L I ",
"! ( K K _ _ K K ~ R i X.>.,.v I.P.J.f.K.d.;.H.d.:XK.5X<X{.3XpX=X@XxXxXL.XXV.T.D.a.e Q.OX6.d M N z.wXz.9 * + G ^ ^ ! ! Q ~ H ^ L ",
"( ( ~ ~ _ ^ ' J / A i u h &.}.fXfX(.5.u.J.;.a.f.(.u.<XdXoX@XpXkX&XCX.XS.D.H.+.+.E.j T.m.-.d v #X@XZ.9 0 ,.s i _ ~ ~ ! ! ! ^ [ ~ ",
"( ' ( ~ ' q.} ~ 7 > , w * w c !.hX5XF.d.G.F.d.Q.(.(.4XU.Y.#X+XkXZX9XA.M.M.(.+.+.-.M ~.m.g +.a M V g.c._.l v Z 9.K ~ Q ! ! ] } ~ ",
"' ' ^ ~ ' e.^ L > 3 , 4 X.w w d D.!.:X;Xd.K.(.Q.1Xu.F.P.V.#X.XA.pX@X@X:.-.Q.f.U M k OXa.k M 2.3XuX&X[.c.l @ i i._ / ^ ^ _ e.' ^ ",
"^ ~ H ~ ) ) ~ S > 3 3 u 8.U.c c F.#.K.-XY ;.f.s.F.x.<.x.k.V.XXR.Y.k.I.1.k 1Xd.U p.4.T.-.1.n S.rXuXN.].|.g.@ Z 9.) ~ ~ ~ L _ ~ W ",
"^ ^ ^ ^ _ K q.F 1 , w s k.}.qX,XfX<Xu.-X;.E K.;.k k $.x.k.I.oXT.M.:.XX:.U K.d.p j 1.g p.p.O.v M.A.N.&X`.8 a G P ^ ! ~ _ L _ ^ ^ ",
" .} ] ^ } w.t.D * s = y :.|.j.z.I.X.v.i.t.f.d.=.F.-.$.V.z.B.x.6.L.6.E.m.a.s.4 p U j U -.5.O.u tX+X&XaX'.% w D P ! J ~ ~ L K / ~ ",
" .| ^ L { i.E X.}.X.* w j.wXwXzXqXs d.*.Y t.K.5.;.s.P.+X[.z.v.F.(.m.Q.a.-.f.4 d.;.U p.;.F.f n iXaX=XlX`.% w 1 *.^ ! _ _ _ ) ) ~ ",
"~ ^ ~ ^ L w.i >.qXa 0 w #.|.|.uXMX4X;.d.` *.G.u.8.7.I.}.|.[.,.<.M.1.T.5.U ;.p d.-.f O.k U g c rX&X*X=X`.9 0 $ Z _ ! K ) ~ ~ R ) ",
"Q ~ K _ ^ w., 0 0Xk.& >.m M x 9XpX9X@.t.G.;.u.v.U.F.E.{.'.{.1.-.s.-.5.1.;.p Y d.k j -.k k M 4.rX$X=X].x d * y s w.~ L K H ( ^ ~ ",
"~ _ _ K ' 0.* % 3.x.N ,.j.9 9 '.+XA.g 8.u.;.F.u.v.P.I.[._.B.$.a.@.+.O.-.@.h p.K.U u +.-.k k 4.&X$X*XZ.q O # ,.s o.y.r._ ^ [ } { ",
"/ Q L K 0.D <.B q B |.*X=X X].).).N.M 7.;.@.u.<.8.W.M.{.|.B.4.1.+.@.m.m.p.Y ;.;.+.f k +.4.M g #X'.'.g.% O O z z w s w.L !  .] I ",
"! Q _ ' E Y c N Z.l ).*X%X%X%X).].'.e n u.@.F.<.8.F.I.E.Z.2.4.n +.7.8.T.@.k p U k @.6.p.D.D.M $X$X$Xz % 9 z z t % * w K / ~ ] J ",
"/ W J ~ i u d q b q ).%X%X%X*X%X&X#Xl.8.8.@.p p.s.J.1Xx.3.4.1.~.+.D.Y.1.k p.-.U j h U O.c s l &XkXlX).B &Xj.V t 8 0 O : T ` ' K ",
"../ K K < s s D.v 8 h. X X X%X*X&XXXf s 4 3 p Y j i &.D i X.7.G.-.+.$.c $.g p - = = u , 0 & l.uX=X=Xc.b '.B r b 0 u # o A t.w.) ",
"R K K 9.w , h 5.s & B {.'.{.C.Z.[.!.v.v.u.f.;.p p i 3 i Z s E D D s f $.>.h p u y &.W.,X/.!.wX&X&X@XV 9 :.c - i X.A > 7 ~ ~ e._ ",
"` ) P F o.#.D D D ,.N B 4.,.,.X.m X.u.i.u.f.;.p.E *.0.) 0.*.9.u.u.F./.}.U.u.6X<X-XU./.U.}.}.j.g.c.N.,.c >.&.T F *.) ` H ^ ^ J J "
};
